SplineFontDB: 3.0
FontName: Jura-Regular
FullName: Jura Regular
FamilyName: Jura
Weight: Regular
Copyright: Copyright 2009, 2010, 2011 by Daniel Johnson.  Released under the terms of the Open Font License v1.1.
Version: 2.5.1
ItalicAngle: 0
UnderlinePosition: -102
UnderlineWidth: 51
Ascent: 819
Descent: 205
LayerCount: 2
Layer: 0 1 "Back"  1
Layer: 1 1 "Fore"  0
XUID: [1021 288 713564382 1913222]
FSType: 0
OS2Version: 2
OS2_WeightWidthSlopeOnly: 0
OS2_UseTypoMetrics: 1
CreationTime: 1232036477
ModificationTime: 1304075401
PfmFamily: 33
TTFWeight: 400
TTFWidth: 5
LineGap: 0
VLineGap: 0
Panose: 2 0 5 3 0 0 0 0 0 0
OS2TypoAscent: 838
OS2TypoAOffset: 0
OS2TypoDescent: -205
OS2TypoDOffset: 0
OS2TypoLinegap: 0
OS2WinAscent: 838
OS2WinAOffset: 0
OS2WinDescent: 205
OS2WinDOffset: 0
HheadAscent: 838
HheadAOffset: 0
HheadDescent: -205
HheadDOffset: 0
OS2SubXSize: 665
OS2SubYSize: 716
OS2SubXOff: 0
OS2SubYOff: 143
OS2SupXSize: 665
OS2SupYSize: 716
OS2SupXOff: 0
OS2SupYOff: 491
OS2StrikeYSize: 51
OS2StrikeYPos: 265
OS2Vendor: 'PfEd'
OS2CodePages: 2000009f.00000000
OS2UnicodeRanges: a00002ef.5000204b.00000020.00000000
Lookup: 260 0 0 "'abvm' Above Base Mark lookup 0"  {"'abvm' Above Base Mark lookup 0 subtable"  } ['abvm' ('DFLT' <'dflt' > 'cyrl' <'dflt' > 'grek' <'dflt' > 'latn' <'dflt' > ) ]
Lookup: 260 0 0 "'blwm' Below Base Mark lookup 1"  {"'blwm' Below Base Mark lookup 1 subtable"  } ['blwm' ('DFLT' <'dflt' > 'cyrl' <'dflt' > 'grek' <'dflt' > 'latn' <'dflt' > ) ]
Lookup: 258 0 0 "'kern' Horizontal Kerning in Latin lookup 2"  {"'kern' Horizontal Kerning in Latin lookup 2 per glyph data 0"  "'kern' Horizontal Kerning in Latin lookup 2 kerning class 1"  } ['kern' ('latn' <'dflt' > ) ]
MarkAttachClasses: 1
DEI: 91125
KernClass2: 159+ 125 "'kern' Horizontal Kerning in Latin lookup 2 kerning class 1" 
 5 space
 2 Xi
 29 Alphatonos Alpha Delta Lambda
 5 Gamma
 20 Epsilontonos Epsilon
 4 Zeta
 49 Etatonos Iotatonos Eta Iota Mu Nu Pi Iotadieresis
 5 Kappa

StartChar: .notdef
Encoding: 65536 -1 0
Width: 538
Flags: W
LayerCount: 2
Fore
SplineSet
156 546 m 2,0,-1
 156 130 l 2,1,2
 156 98 156 98 167.5 84.5 c 128,-1,3
 179 71 179 71 210 71 c 2,4,-1
 328 71 l 2,5,6
 359 71 359 71 370.5 84.5 c 128,-1,7
 382 98 382 98 382 130 c 2,8,-1
 382 546 l 2,9,10
 382 578 382 578 370.5 592 c 128,-1,11
 359 606 359 606 328 606 c 2,12,-1
 210 606 l 2,13,14
 179 606 179 606 167.5 592 c 128,-1,15
 156 578 156 578 156 546 c 2,0,-1
85 0 m 1,16,-1
 85 678 l 1,17,-1
 453 678 l 1,18,-1
 453 0 l 1,19,-1
 85 0 l 1,16,-1
EndSplineSet
EndChar

StartChar: exclam
Encoding: 33 33 4
Width: 244
GlyphClass: 2
Flags: W
LayerCount: 2
Fore
SplineSet
122 -12 m 0,0,1
 106 -12 106 -12 88.5 0 c 128,-1,2
 71 12 71 12 71 29 c 128,-1,3
 71 46 71 46 88.5 58 c 128,-1,4
 106 70 106 70 122 70 c 0,5,6
 139 70 139 70 156.5 58 c 128,-1,7
 174 46 174 46 174 29 c 128,-1,8
 174 12 174 12 157 0 c 128,-1,9
 140 -12 140 -12 122 -12 c 0,0,1
122 649 m 128,-1,11
 148 649 148 649 148 616 c 2,12,-1
 148 197 l 2,13,14
 148 164 148 164 121 164 c 0,15,16
 96 164 96 164 96 197 c 2,17,-1
 96 616 l 2,18,10
 96 649 96 649 122 649 c 128,-1,11
EndSplineSet
EndChar

StartChar: quotedbl
Encoding: 34 34 5
Width: 295
GlyphClass: 2
Flags: W
LayerCount: 2
Fore
SplineSet
197 433 m 0,0,1
 172 433 172 433 172 466 c 2,2,-1
 172 615 l 2,3,4
 172 648 172 648 198 648 c 128,-1,5
 224 648 224 648 224 615 c 2,6,-1
 224 466 l 2,7,8
 224 433 224 433 197 433 c 0,0,1
96 433 m 0,9,10
 71 433 71 433 71 466 c 2,11,-1
 71 615 l 2,12,13
 71 648 71 648 97 648 c 0,14,15
 122 648 122 648 122 615 c 2,16,-1
 122 466 l 2,17,18
 122 433 122 433 96 433 c 0,9,10
EndSplineSet
EndChar

StartChar: numbersign
Encoding: 35 35 6
Width: 603
GlyphClass: 2
Flags: W
LayerCount: 2
Fore
SplineSet
343 605 m 0,0,1
 343 600 343 600 340 588 c 1,2,-1
 283 436 l 1,3,-1
 407 436 l 1,4,-1
 469 606 l 2,5,6
 478 630 478 630 496 630 c 0,7,8
 508 630 508 630 515 622 c 128,-1,9
 522 614 522 614 522 604 c 0,10,11
 522 597 522 597 519 588 c 2,12,-1
 463 436 l 1,13,-1
 526 436 l 2,14,15
 559 436 559 436 559 410 c 128,-1,16
 559 384 559 384 526 384 c 2,17,-1
 444 384 l 1,18,-1
 396 252 l 1,19,-1
 495 252 l 2,20,21
 528 252 528 252 528 225 c 0,22,23
 528 200 528 200 495 200 c 2,24,-1
 377 200 l 1,25,-1
 315 30 l 2,26,27
 307 6 307 6 288 6 c 0,28,29
 262 6 262 6 262 32 c 0,30,31
 262 39 262 39 265 48 c 2,32,-1
 322 200 l 1,33,-1
 197 200 l 1,34,-1
 136 30 l 2,35,36
 128 6 128 6 109 6 c 0,37,38
 84 6 84 6 84 31 c 0,39,40
 84 36 84 36 87 48 c 1,41,-1
 143 200 l 1,42,-1
 77 200 l 2,43,44
 44 200 44 200 44 226 c 128,-1,45
 44 252 44 252 77 252 c 2,46,-1
 162 252 l 1,47,-1
 210 384 l 1,48,-1
 107 384 l 2,49,50
 75 384 75 384 75 411 c 0,51,52
 75 436 75 436 107 436 c 2,53,-1
 229 436 l 1,54,-1
 291 606 l 1,55,56
 301 630 301 630 317 630 c 0,57,58
 343 630 343 630 343 605 c 0,0,1
265 384 m 1,59,-1
 217 252 l 1,60,-1
 340 252 l 1,61,-1
 388 384 l 1,62,-1
 265 384 l 1,59,-1
EndSplineSet
EndChar

StartChar: dollar
Encoding: 36 36 7
Width: 587
GlyphClass: 2
Flags: W
LayerCount: 2
Fore
SplineSet
161 89 m 2,0,1
 129 89 129 89 108 98 c 128,-1,2
 87 107 87 107 77 124.5 c 128,-1,3
 67 142 67 142 64 159 c 128,-1,4
 61 176 61 176 61 200 c 0,5,6
 61 234 61 234 87 234 c 128,-1,7
 113 234 113 234 113 202 c 0,8,9
 113 167 113 167 125 154 c 128,-1,10
 137 141 137 141 168 141 c 2,11,-1
 272 141 l 1,12,-1
 272 301 l 1,13,-1
 190 301 l 2,14,15
 61 301 61 301 61 432 c 0,16,17
 61 491 61 491 90.5 522 c 128,-1,18
 120 553 120 553 190 553 c 2,19,-1
 272 553 l 1,20,-1
 272 610 l 2,21,22
 272 643 272 643 298 643 c 128,-1,23
 324 643 324 643 324 611 c 2,24,-1
 324 554 l 1,25,-1
 425 554 l 2,26,27
 457 554 457 554 478 545 c 128,-1,28
 499 536 499 536 509 518.5 c 128,-1,29
 519 501 519 501 522 484 c 128,-1,30
 525 467 525 467 525 443 c 0,31,32
 525 409 525 409 499 409 c 128,-1,33
 473 409 473 409 473 441 c 0,34,35
 473 476 473 476 461 488.5 c 128,-1,36
 449 501 449 501 418 501 c 2,37,-1
 324 501 l 1,38,-1
 324 353 l 1,39,-1
 399 353 l 2,40,41
 469 353 469 353 498 314 c 128,-1,42
 527 275 527 275 527 216 c 0,43,44
 527 90 527 90 399 90 c 2,45,-1
 324 90 l 1,46,-1
 324 25 l 2,47,48
 324 -7 324 -7 297 -7 c 0,49,50
 272 -7 272 -7 272 24 c 2,51,-1
 272 89 l 1,52,-1
 161 89 l 2,0,1
416 301 m 2,53,-1
 324 301 l 1,54,-1
 324 141 l 1,55,-1
 416 141 l 2,56,57
 475 141 475 141 475 214 c 0,58,59
 475 252 475 252 458.5 276.5 c 128,-1,60
 442 301 442 301 416 301 c 2,53,-1
172 353 m 2,61,-1
 272 353 l 1,62,-1
 272 501 l 1,63,-1
 172 501 l 2,64,65
 113 501 113 501 113 434 c 0,66,67
 113 395 113 395 129.5 374 c 128,-1,68
 146 353 146 353 172 353 c 2,61,-1
EndSplineSet
EndChar

StartChar: percent
Encoding: 37 37 8
Width: 559
GlyphClass: 2
Flags: W
LayerCount: 2
Fore
SplineSet
367 183 m 0,0,1
 367 171 367 171 376 162 c 128,-1,2
 385 153 385 153 397 153 c 0,3,4
 410 153 410 153 418.5 162 c 128,-1,5
 427 171 427 171 427 183 c 0,6,7
 427 196 427 196 418 204.5 c 128,-1,8
 409 213 409 213 397 213 c 128,-1,9
 385 213 385 213 376 204.5 c 128,-1,10
 367 196 367 196 367 183 c 0,0,1
312 183 m 128,-1,12
 312 217 312 217 337 241 c 128,-1,13
 362 265 362 265 397 265 c 0,14,15
 431 265 431 265 455 241 c 128,-1,16
 479 217 479 217 479 183 c 128,-1,17
 479 149 479 149 455 125 c 128,-1,18
 431 101 431 101 397 101 c 0,19,20
 362 101 362 101 337 125 c 128,-1,11
 312 149 312 149 312 183 c 128,-1,12
134 466 m 128,-1,22
 134 454 134 454 143 445 c 128,-1,23
 152 436 152 436 164 436 c 0,24,25
 175 436 175 436 184.5 444.5 c 128,-1,26
 194 453 194 453 194 466 c 128,-1,27
 194 479 194 479 184.5 487.5 c 128,-1,28
 175 496 175 496 164 496 c 0,29,30
 152 496 152 496 143 487 c 128,-1,21
 134 478 134 478 134 466 c 128,-1,22
81 466 m 128,-1,32
 81 500 81 500 105.5 524 c 128,-1,33
 130 548 130 548 164 548 c 0,34,35
 199 548 199 548 223.5 524 c 128,-1,36
 248 500 248 500 248 466 c 128,-1,37
 248 432 248 432 223.5 408 c 128,-1,38
 199 384 199 384 164 384 c 0,39,40
 130 384 130 384 105.5 408 c 128,-1,31
 81 432 81 432 81 466 c 128,-1,32
466 528 m 0,41,42
 474 528 474 528 482.5 520.5 c 128,-1,43
 491 513 491 513 491 503 c 0,44,45
 491 492 491 492 479 479 c 1,46,-1
 119 133 l 2,47,48
 106 121 106 121 94 121 c 0,49,50
 86 121 86 121 77.5 128.5 c 128,-1,51
 69 136 69 136 69 146 c 0,52,53
 69 158 69 158 81 170 c 2,54,-1
 442 516 l 2,55,56
 455 528 455 528 466 528 c 0,41,42
EndSplineSet
EndChar

StartChar: ampersand
Encoding: 38 38 9
Width: 508
GlyphClass: 2
Flags: W
LayerCount: 2
Fore
SplineSet
386 528 m 0,0,1
 386 518 386 518 378.5 510.5 c 128,-1,2
 371 503 371 503 360 503 c 0,3,4
 348 503 348 503 336.5 518 c 128,-1,5
 325 533 325 533 315.5 551.5 c 128,-1,6
 306 570 306 570 286.5 585 c 128,-1,7
 267 600 267 600 242 600 c 0,8,9
 195 600 195 600 156.5 566 c 128,-1,10
 118 532 118 532 118 476 c 0,11,12
 118 440 118 440 156 397 c 2,13,-1
 392 125 l 1,14,15
 421 168 421 168 421 227 c 0,16,17
 421 263 421 263 448 263 c 0,18,19
 472 263 472 263 472 227 c 0,20,21
 472 147 472 147 427 84 c 1,22,-1
 473 32 l 2,23,24
 480 24 480 24 480 11 c 0,25,26
 480 -1 480 -1 473 -6.5 c 128,-1,27
 466 -12 466 -12 458 -12 c 0,28,29
 443 -12 443 -12 428 4 c 1,30,-1
 393 45 l 1,31,32
 326 -14 326 -14 248 -14 c 0,33,34
 214 -14 214 -14 179.5 -3.5 c 128,-1,35
 145 7 145 7 112.5 28.5 c 128,-1,36
 80 50 80 50 59.5 90 c 128,-1,37
 39 130 39 130 39 182 c 0,38,39
 39 231 39 231 59.5 279 c 128,-1,40
 80 327 80 327 123 357 c 1,41,-1
 112 370 l 2,42,43
 64 428 64 428 64 476 c 0,44,45
 64 552 64 552 120.5 602 c 128,-1,46
 177 652 177 652 243 652 c 0,47,48
 275 652 275 652 303.5 635 c 128,-1,49
 332 618 332 618 349 595.5 c 128,-1,50
 366 573 366 573 376 554 c 128,-1,51
 386 535 386 535 386 528 c 0,0,1
359 84 m 1,52,-1
 157 319 l 1,53,54
 91 277 91 277 91 182 c 0,55,56
 91 107 91 107 139 72.5 c 128,-1,57
 187 38 187 38 248 38 c 0,58,59
 307 38 307 38 359 84 c 1,52,-1
EndSplineSet
EndChar

StartChar: quotesingle
Encoding: 39 39 10
Width: 194
GlyphClass: 2
Flags: W
LayerCount: 2
Fore
SplineSet
96 433 m 0,0,1
 71 433 71 433 71 466 c 2,2,-1
 71 615 l 2,3,4
 71 648 71 648 97 648 c 0,5,6
 122 648 122 648 122 615 c 2,7,-1
 122 466 l 2,8,9
 122 433 122 433 96 433 c 0,0,1
EndSplineSet
EndChar

StartChar: parenleft
Encoding: 40 40 11
Width: 248
GlyphClass: 2
Flags: W
LayerCount: 2
Fore
SplineSet
125 503 m 2,0,-1
 125 133 l 2,1,2
 125 99 125 99 125.5 80 c 128,-1,3
 126 61 126 61 129.5 44.5 c 128,-1,4
 133 28 133 28 136.5 21.5 c 128,-1,5
 140 15 140 15 151 10.5 c 128,-1,6
 162 6 162 6 172 5.5 c 128,-1,7
 182 5 182 5 203 5 c 1,8,-1
 203 -47 l 1,9,10
 167 -47 167 -47 146.5 -42 c 128,-1,11
 126 -37 126 -37 107 -19.5 c 128,-1,12
 88 -2 88 -2 80.5 35 c 128,-1,13
 73 72 73 72 73 133 c 2,14,-1
 73 503 l 2,15,16
 73 564 73 564 80.5 601 c 128,-1,17
 88 638 88 638 107 655.5 c 128,-1,18
 126 673 126 673 146.5 678 c 128,-1,19
 167 683 167 683 203 683 c 1,20,-1
 203 631 l 1,21,22
 182 631 182 631 172 630.5 c 128,-1,23
 162 630 162 630 151 625.5 c 128,-1,24
 140 621 140 621 136.5 614.5 c 128,-1,25
 133 608 133 608 129.5 591.5 c 128,-1,26
 126 575 126 575 125.5 556 c 128,-1,27
 125 537 125 537 125 503 c 2,0,-1
EndSplineSet
EndChar

StartChar: parenright
Encoding: 41 41 12
Width: 248
GlyphClass: 2
Flags: W
LayerCount: 2
Fore
SplineSet
123 503 m 2,0,1
 123 537 123 537 122.5 556 c 128,-1,2
 122 575 122 575 118.5 591.5 c 128,-1,3
 115 608 115 608 111.5 614.5 c 128,-1,4
 108 621 108 621 97 625.5 c 128,-1,5
 86 630 86 630 76 630.5 c 128,-1,6
 66 631 66 631 45 631 c 1,7,-1
 45 683 l 1,8,9
 81 683 81 683 101.5 678 c 128,-1,10
 122 673 122 673 141 655.5 c 128,-1,11
 160 638 160 638 167.5 601 c 128,-1,12
 175 564 175 564 175 503 c 2,13,-1
 175 133 l 2,14,15
 175 72 175 72 167.5 35 c 128,-1,16
 160 -2 160 -2 141 -19.5 c 128,-1,17
 122 -37 122 -37 101.5 -42 c 128,-1,18
 81 -47 81 -47 45 -47 c 1,19,-1
 45 5 l 1,20,21
 66 5 66 5 76 5.5 c 128,-1,22
 86 6 86 6 97 10.5 c 128,-1,23
 108 15 108 15 111.5 21.5 c 128,-1,24
 115 28 115 28 118.5 44.5 c 128,-1,25
 122 61 122 61 122.5 80 c 128,-1,26
 123 99 123 99 123 133 c 2,27,-1
 123 503 l 2,0,1
EndSplineSet
EndChar

StartChar: asterisk
Encoding: 42 42 13
Width: 397
GlyphClass: 2
Flags: W
LayerCount: 2
Fore
SplineSet
307 404 m 0,0,1
 299 404 299 404 287 410 c 2,2,-1
 224 446 l 1,3,-1
 224 374 l 2,4,5
 224 341 224 341 198 341 c 128,-1,6
 172 341 172 341 172 374 c 2,7,-1
 172 446 l 1,8,-1
 109 410 l 2,9,10
 97 404 97 404 89 404 c 0,11,12
 79 404 79 404 72 412 c 128,-1,13
 65 420 65 420 65 429 c 0,14,15
 65 444 65 444 83 455 c 2,16,-1
 146 492 l 1,17,-1
 83 527 l 2,18,19
 65 538 65 538 65 553 c 0,20,21
 65 560 65 560 71 569 c 128,-1,22
 77 578 77 578 89 578 c 0,23,24
 97 578 97 578 109 572 c 2,25,-1
 172 536 l 1,26,-1
 172 608 l 2,27,28
 172 641 172 641 199 641 c 0,29,30
 224 641 224 641 224 608 c 2,31,-1
 224 536 l 1,32,-1
 287 572 l 2,33,34
 299 578 299 578 307 578 c 0,35,36
 318 578 318 578 325 570 c 128,-1,37
 332 562 332 562 332 553 c 0,38,39
 332 539 332 539 313 527 c 1,40,-1
 251 492 l 1,41,-1
 313 455 l 2,42,43
 332 443 332 443 332 429 c 0,44,45
 332 422 332 422 325.5 413 c 128,-1,46
 319 404 319 404 307 404 c 0,0,1
EndSplineSet
EndChar

StartChar: plus
Encoding: 43 43 14
Width: 518
GlyphClass: 2
Flags: W
LayerCount: 2
Fore
SplineSet
259 -12 m 128,-1,1
 233 -12 233 -12 233 20 c 2,2,-1
 233 204 l 1,3,-1
 69 204 l 2,4,5
 38 204 38 204 38 231 c 0,6,7
 38 257 38 257 69 257 c 2,8,-1
 233 257 l 1,9,-1
 233 440 l 2,10,11
 233 473 233 473 260 473 c 0,12,13
 285 473 285 473 285 440 c 2,14,-1
 285 257 l 1,15,-1
 447 257 l 2,16,17
 481 257 481 257 481 229 c 0,18,19
 481 218 481 218 471.5 211 c 128,-1,20
 462 204 462 204 447 204 c 2,21,-1
 285 204 l 1,22,-1
 285 20 l 2,23,0
 285 -12 285 -12 259 -12 c 128,-1,1
EndSplineSet
EndChar

StartChar: comma
Encoding: 44 44 15
Width: 210
GlyphClass: 2
Flags: W
LayerCount: 2
Fore
SplineSet
142 41 m 0,0,1
 142 31 142 31 137 22 c 2,2,-1
 96 -61 l 1,3,4
 86 -85 86 -85 71 -85 c 0,5,6
 49 -85 49 -85 49 -60 c 0,7,8
 49 -56 49 -56 52 -44 c 2,9,-1
 76 43 l 2,10,11
 83 66 83 66 101 66 c 0,12,13
 112 66 112 66 127 60 c 128,-1,14
 142 54 142 54 142 41 c 0,0,1
EndSplineSet
EndChar

StartChar: hyphen
Encoding: 45 45 16
Width: 456
GlyphClass: 2
Flags: W
LayerCount: 2
Fore
SplineSet
73 231 m 0,0,1
 73 257 73 257 104 257 c 2,2,-1
 349 257 l 2,3,4
 383 257 383 257 383 229 c 0,5,6
 383 218 383 218 373.5 211 c 128,-1,7
 364 204 364 204 349 204 c 2,8,-1
 104 204 l 2,9,10
 73 204 73 204 73 231 c 0,0,1
EndSplineSet
EndChar

StartChar: period
Encoding: 46 46 17
Width: 232
GlyphClass: 2
Flags: W
LayerCount: 2
Fore
SplineSet
116 70 m 0,0,1
 132 70 132 70 149.5 58 c 128,-1,2
 167 46 167 46 167 29 c 128,-1,3
 167 12 167 12 149.5 0 c 128,-1,4
 132 -12 132 -12 116 -12 c 0,5,6
 99 -12 99 -12 82 0 c 128,-1,7
 65 12 65 12 65 29 c 128,-1,8
 65 46 65 46 82 58 c 128,-1,9
 99 70 99 70 116 70 c 0,0,1
EndSplineSet
EndChar

StartChar: slash
Encoding: 47 47 18
Width: 359
GlyphClass: 2
Flags: W
LayerCount: 2
Fore
SplineSet
316 626 m 0,0,1
 316 618 316 618 313 608 c 2,2,-1
 95 10 l 2,3,4
 87 -13 87 -13 69 -13 c 0,5,6
 60 -13 60 -13 51.5 -7.5 c 128,-1,7
 43 -2 43 -2 43 11 c 0,8,9
 43 17 43 17 46 29 c 1,10,-1
 264 627 l 2,11,12
 272 650 272 650 289 650 c 0,13,14
 298 650 298 650 307 644.5 c 128,-1,15
 316 639 316 639 316 626 c 0,0,1
EndSplineSet
EndChar

StartChar: zero
Encoding: 48 48 19
Width: 592
GlyphClass: 2
Flags: W
LayerCount: 2
Fore
SplineSet
116 497 m 2,0,-1
 116 138 l 2,1,2
 116 104 116 104 149.5 75.5 c 128,-1,3
 183 47 183 47 233 47 c 2,4,-1
 359 47 l 2,5,6
 409 47 409 47 442.5 75.5 c 128,-1,7
 476 104 476 104 476 138 c 2,8,-1
 476 497 l 2,9,10
 476 531 476 531 442.5 559.5 c 128,-1,11
 409 588 409 588 359 588 c 2,12,-1
 233 588 l 2,13,14
 183 588 183 588 149.5 559.5 c 128,-1,15
 116 531 116 531 116 497 c 2,0,-1
528 154 m 2,16,17
 528 84 528 84 477.5 39.5 c 128,-1,18
 427 -5 427 -5 350 -5 c 2,19,-1
 242 -5 l 2,20,21
 165 -5 165 -5 114.5 39.5 c 128,-1,22
 64 84 64 84 64 154 c 2,23,-1
 64 482 l 2,24,25
 64 552 64 552 114.5 596.5 c 128,-1,26
 165 641 165 641 242 641 c 2,27,-1
 350 641 l 2,28,29
 427 641 427 641 477.5 596.5 c 128,-1,30
 528 552 528 552 528 482 c 2,31,-1
 528 154 l 2,16,17
EndSplineSet
EndChar

StartChar: one
Encoding: 49 49 20
Width: 592
GlyphClass: 2
Flags: W
LayerCount: 2
Fore
SplineSet
279 600 m 1,0,-1
 254 576 l 2,1,2
 240 562 240 562 225 562 c 0,3,4
 212 562 212 562 206.5 569 c 128,-1,5
 201 576 201 576 201 584 c 0,6,7
 201 597 201 597 215 610 c 2,8,-1
 276 672 l 1,9,10
 291 685 291 685 304 685 c 0,11,12
 313 685 313 685 322 678 c 128,-1,13
 331 671 331 671 331 657 c 2,14,-1
 331 25 l 2,15,16
 331 -7 331 -7 305 -7 c 128,-1,17
 279 -7 279 -7 279 25 c 2,18,-1
 279 600 l 1,0,-1
EndSplineSet
EndChar

StartChar: two
Encoding: 50 50 21
Width: 592
GlyphClass: 2
Flags: W
LayerCount: 2
Fore
SplineSet
528 460 m 0,0,1
 528 410 528 410 486.5 369.5 c 128,-1,2
 445 329 445 329 385 298.5 c 128,-1,3
 325 268 325 268 265 235.5 c 128,-1,4
 205 203 205 203 162 155 c 128,-1,5
 119 107 119 107 117 47 c 1,6,-1
 493 47 l 2,7,8
 528 47 528 47 528 20 c 0,9,10
 528 -5 528 -5 493 -5 c 2,11,-1
 65 -5 l 1,12,-1
 65 44 l 2,13,14
 65 115 65 115 107.5 169.5 c 128,-1,15
 150 224 150 224 210 257.5 c 128,-1,16
 270 291 270 291 330.5 319.5 c 128,-1,17
 391 348 391 348 433.5 383 c 128,-1,18
 476 418 476 418 476 460 c 0,19,20
 476 543 476 543 441 566 c 128,-1,21
 406 589 406 589 312 589 c 2,22,-1
 171 589 l 2,23,24
 139 589 139 589 128 575.5 c 128,-1,25
 117 562 117 562 117 529 c 0,26,27
 117 494 117 494 90 494 c 0,28,29
 65 494 65 494 65 529 c 0,30,31
 65 589 65 589 88 615 c 128,-1,32
 111 641 111 641 164 641 c 2,33,-1
 312 641 l 2,34,35
 423 641 423 641 475.5 604.5 c 128,-1,36
 528 568 528 568 528 460 c 0,0,1
EndSplineSet
EndChar

StartChar: three
Encoding: 51 51 22
Width: 592
GlyphClass: 2
Flags: W
LayerCount: 2
Fore
SplineSet
338 589 m 2,0,-1
 254 589 l 2,1,2
 207 589 207 589 161.5 572 c 128,-1,3
 116 555 116 555 116 527 c 0,4,5
 116 494 116 494 90 494 c 128,-1,6
 64 494 64 494 64 529 c 0,7,8
 64 574 64 574 113.5 607.5 c 128,-1,9
 163 641 163 641 247 641 c 2,10,-1
 327 641 l 2,11,12
 436 641 436 641 482 598.5 c 128,-1,13
 528 556 528 556 528 451 c 0,14,15
 528 418 528 418 484 379 c 128,-1,16
 440 340 440 340 401 326 c 1,17,18
 438 315 438 315 483 267.5 c 128,-1,19
 528 220 528 220 528 185 c 0,20,21
 528 80 528 80 482 37.5 c 128,-1,22
 436 -5 436 -5 327 -5 c 2,23,-1
 247 -5 l 2,24,25
 163 -5 163 -5 113.5 28.5 c 128,-1,26
 64 62 64 62 64 106 c 0,27,28
 64 142 64 142 90 142 c 128,-1,29
 116 142 116 142 116 109 c 0,30,31
 116 81 116 81 161.5 64 c 128,-1,32
 207 47 207 47 254 47 c 2,33,-1
 338 47 l 2,34,35
 417 47 417 47 447 77.5 c 128,-1,36
 477 108 477 108 477 166 c 0,37,38
 477 219 477 219 413 259 c 128,-1,39
 349 299 349 299 291 299 c 0,40,41
 252 299 252 299 252 326 c 0,42,43
 252 352 252 352 291 352 c 0,44,45
 353 352 353 352 415 385 c 128,-1,46
 477 418 477 418 477 470 c 0,47,48
 477 528 477 528 447 558.5 c 128,-1,49
 417 589 417 589 338 589 c 2,0,-1
EndSplineSet
EndChar

StartChar: four
Encoding: 52 52 23
Width: 592
GlyphClass: 2
Flags: W
LayerCount: 2
Fore
SplineSet
498 170 m 2,0,-1
 442 170 l 1,1,-1
 442 24 l 2,2,3
 442 -7 442 -7 416 -7 c 0,4,5
 389 -7 389 -7 389 24 c 2,6,-1
 389 170 l 1,7,-1
 62 170 l 1,8,-1
 62 233 l 1,9,-1
 376 641 l 1,10,-1
 442 641 l 1,11,-1
 442 222 l 1,12,-1
 498 222 l 2,13,14
 530 222 530 222 530 196 c 128,-1,15
 530 170 530 170 498 170 c 2,0,-1
114 222 m 1,16,-1
 389 222 l 1,17,-1
 389 579 l 1,18,-1
 114 222 l 1,16,-1
EndSplineSet
EndChar

StartChar: five
Encoding: 53 53 24
Width: 592
GlyphClass: 2
Flags: W
LayerCount: 2
Fore
SplineSet
93 121 m 0,0,1
 98 121 98 121 125.5 101.5 c 128,-1,2
 153 82 153 82 198 62.5 c 128,-1,3
 243 43 243 43 291 43 c 0,4,5
 377 43 377 43 424 92 c 128,-1,6
 471 141 471 141 471 229 c 0,7,8
 471 272 471 272 455.5 304.5 c 128,-1,9
 440 337 440 337 415 354 c 128,-1,10
 390 371 390 371 365.5 379 c 128,-1,11
 341 387 341 387 317 387 c 2,12,-1
 75 387 l 1,13,-1
 84 512 l 2,14,15
 89 584 89 584 115 612.5 c 128,-1,16
 141 641 141 641 198 641 c 2,17,-1
 449 641 l 2,18,19
 481 641 481 641 481 614 c 0,20,21
 481 589 481 589 449 589 c 2,22,-1
 192 589 l 2,23,24
 167 589 167 589 154 576 c 128,-1,25
 141 563 141 563 138 529 c 2,26,-1
 132 439 l 1,27,-1
 308 439 l 2,28,29
 392 439 392 439 457.5 382 c 128,-1,30
 523 325 523 325 523 229 c 0,31,32
 523 118 523 118 458.5 54.5 c 128,-1,33
 394 -9 394 -9 291 -9 c 0,34,35
 228 -9 228 -9 148.5 26 c 128,-1,36
 69 61 69 61 69 95 c 0,37,38
 69 105 69 105 77 113 c 128,-1,39
 85 121 85 121 93 121 c 0,0,1
EndSplineSet
EndChar

StartChar: six
Encoding: 54 54 25
Width: 592
GlyphClass: 2
Flags: W
LayerCount: 2
Fore
SplineSet
64 209 m 0,0,1
 64 296 64 296 86 372.5 c 128,-1,2
 108 449 108 449 139 497 c 128,-1,3
 170 545 170 545 205 579.5 c 128,-1,4
 240 614 240 614 266 629 c 128,-1,5
 292 644 292 644 304 644 c 0,6,7
 333 644 333 644 333 621 c 0,8,9
 333 605 333 605 311 594 c 0,10,11
 259 567 259 567 211.5 511.5 c 128,-1,12
 164 456 164 456 139 375 c 1,13,14
 203 428 203 428 296 428 c 0,15,16
 396 428 396 428 462 366.5 c 128,-1,17
 528 305 528 305 528 210 c 0,18,19
 528 114 528 114 462 52.5 c 128,-1,20
 396 -9 396 -9 296 -9 c 0,21,22
 195 -9 195 -9 129.5 52 c 128,-1,23
 64 113 64 113 64 209 c 0,0,1
116 210 m 0,24,25
 116 134 116 134 164 88.5 c 128,-1,26
 212 43 212 43 296 43 c 128,-1,27
 380 43 380 43 428 88.5 c 128,-1,28
 476 134 476 134 476 210 c 0,29,30
 476 285 476 285 428 330.5 c 128,-1,31
 380 376 380 376 296 376 c 128,-1,32
 212 376 212 376 164 330.5 c 128,-1,33
 116 285 116 285 116 210 c 0,24,25
EndSplineSet
EndChar

StartChar: seven
Encoding: 55 55 26
Width: 592
GlyphClass: 2
Flags: W
LayerCount: 2
Fore
SplineSet
270 -10 m 0,0,1
 260 -10 260 -10 250.5 -4.5 c 128,-1,2
 241 1 241 1 241 14 c 0,3,4
 241 24 241 24 246 35 c 2,5,-1
 457 594 l 1,6,-1
 181 594 l 2,7,8
 149 594 149 594 137 580.5 c 128,-1,9
 125 567 125 567 125 534 c 0,10,11
 125 499 125 499 99 499 c 128,-1,12
 73 499 73 499 73 534 c 0,13,14
 73 594 73 594 96.5 620 c 128,-1,15
 120 646 120 646 173 646 c 2,16,-1
 493 646 l 2,17,18
 519 646 519 646 519 623 c 0,19,20
 519 614 519 614 515 602 c 2,21,-1
 297 16 l 2,22,23
 287 -10 287 -10 270 -10 c 0,0,1
EndSplineSet
EndChar

StartChar: eight
Encoding: 56 56 27
Width: 592
GlyphClass: 2
Flags: W
LayerCount: 2
Fore
SplineSet
116 174 m 128,-1,1
 116 131 116 131 124.5 105 c 128,-1,2
 133 79 133 79 156 66.5 c 128,-1,3
 179 54 179 54 205.5 50.5 c 128,-1,4
 232 47 232 47 281 47 c 2,5,-1
 312 47 l 2,6,7
 361 47 361 47 387 50.5 c 128,-1,8
 413 54 413 54 436 66.5 c 128,-1,9
 459 79 459 79 467.5 105 c 128,-1,10
 476 131 476 131 476 174 c 0,11,12
 476 256 476 256 441 279 c 128,-1,13
 406 302 406 302 312 302 c 2,14,-1
 281 302 l 2,15,16
 233 302 233 302 206 298.5 c 128,-1,17
 179 295 179 295 156 282 c 128,-1,18
 133 269 133 269 124.5 243 c 128,-1,0
 116 217 116 217 116 174 c 128,-1,1
528 174 m 0,19,20
 528 118 528 118 513.5 81.5 c 128,-1,21
 499 45 499 45 468.5 26.5 c 128,-1,22
 438 8 438 8 402 1.5 c 128,-1,23
 366 -5 366 -5 312 -5 c 2,24,-1
 281 -5 l 2,25,26
 238 -5 238 -5 207.5 -1.5 c 128,-1,27
 177 2 177 2 148.5 13.5 c 128,-1,28
 120 25 120 25 102.5 44 c 128,-1,29
 85 63 85 63 74.5 95.5 c 128,-1,30
 64 128 64 128 64 174 c 0,31,32
 64 286 64 286 128 326 c 1,33,34
 64 361 64 361 64 472 c 0,35,36
 64 518 64 518 75 550 c 128,-1,37
 86 582 86 582 102.5 599.5 c 128,-1,38
 119 617 119 617 149.5 626.5 c 128,-1,39
 180 636 180 636 208 638.5 c 128,-1,40
 236 641 236 641 281 641 c 2,41,-1
 312 641 l 2,42,43
 356 641 356 641 384 638.5 c 128,-1,44
 412 636 412 636 442.5 626.5 c 128,-1,45
 473 617 473 617 489.5 599.5 c 128,-1,46
 506 582 506 582 517 550 c 128,-1,47
 528 518 528 518 528 472 c 0,48,49
 528 361 528 361 465 326 c 1,50,51
 528 286 528 286 528 174 c 0,19,20
476 472 m 0,52,53
 476 497 476 497 472.5 515 c 128,-1,54
 469 533 469 533 464.5 546 c 128,-1,55
 460 559 460 559 448 567 c 128,-1,56
 436 575 436 575 426.5 579.5 c 128,-1,57
 417 584 417 584 395.5 586 c 128,-1,58
 374 588 374 588 358.5 588.5 c 128,-1,59
 343 589 343 589 312 589 c 2,60,-1
 281 589 l 2,61,62
 237 589 237 589 218 588 c 128,-1,63
 199 587 199 587 174 581.5 c 128,-1,64
 149 576 149 576 139.5 563.5 c 128,-1,65
 130 551 130 551 123 529 c 128,-1,66
 116 507 116 507 116 472 c 128,-1,67
 116 437 116 437 123 415 c 128,-1,68
 130 393 130 393 139.5 380.5 c 128,-1,69
 149 368 149 368 173.5 362 c 128,-1,70
 198 356 198 356 218 355 c 128,-1,71
 238 354 238 354 281 354 c 2,72,-1
 312 354 l 2,73,74
 348 354 348 354 365 354.5 c 128,-1,75
 382 355 382 355 405.5 358.5 c 128,-1,76
 429 362 429 362 438.5 369 c 128,-1,77
 448 376 448 376 458.5 389 c 128,-1,78
 469 402 469 402 472.5 422.5 c 128,-1,79
 476 443 476 443 476 472 c 0,52,53
EndSplineSet
EndChar

StartChar: nine
Encoding: 57 57 28
Width: 592
GlyphClass: 2
Flags: W
LayerCount: 2
Fore
SplineSet
64 471 m 0,0,1
 64 516 64 516 83 549 c 128,-1,2
 102 582 102 582 128.5 599 c 128,-1,3
 155 616 155 616 192.5 626 c 128,-1,4
 230 636 230 636 256.5 638.5 c 128,-1,5
 283 641 283 641 312 641 c 0,6,7
 528 641 528 641 528 470 c 0,8,9
 528 364 528 364 496.5 271 c 128,-1,10
 465 178 465 178 414.5 116.5 c 128,-1,11
 364 55 364 55 300 19.5 c 128,-1,12
 236 -16 236 -16 170 -16 c 0,13,14
 139 -16 139 -16 139 11 c 0,15,16
 139 37 139 37 170 37 c 0,17,18
 205 37 205 37 246.5 54.5 c 128,-1,19
 288 72 288 72 331 105.5 c 128,-1,20
 374 139 374 139 410 199 c 128,-1,21
 446 259 446 259 463 334 c 1,22,23
 412 302 412 302 312 302 c 0,24,25
 64 302 64 302 64 471 c 0,0,1
312 589 m 0,26,27
 116 589 116 589 116 471 c 0,28,29
 116 433 116 433 133.5 407.5 c 128,-1,30
 151 382 151 382 183 371.5 c 128,-1,31
 215 361 215 361 243.5 357.5 c 128,-1,32
 272 354 272 354 312 354 c 0,33,34
 401 354 401 354 438.5 384 c 128,-1,35
 476 414 476 414 476 470 c 0,36,37
 476 589 476 589 312 589 c 0,26,27
EndSplineSet
EndChar

StartChar: colon
Encoding: 58 58 29
Width: 248
GlyphClass: 2
Flags: W
LayerCount: 2
Fore
SplineSet
124 121 m 0,0,1
 140 121 140 121 157.5 109 c 128,-1,2
 175 97 175 97 175 80 c 128,-1,3
 175 63 175 63 157.5 51 c 128,-1,4
 140 39 140 39 124 39 c 0,5,6
 107 39 107 39 90 51 c 128,-1,7
 73 63 73 63 73 80 c 128,-1,8
 73 97 73 97 90 109 c 128,-1,9
 107 121 107 121 124 121 c 0,0,1
124 474 m 0,10,11
 140 474 140 474 157.5 462 c 128,-1,12
 175 450 175 450 175 433 c 128,-1,13
 175 416 175 416 157.5 404 c 128,-1,14
 140 392 140 392 124 392 c 0,15,16
 107 392 107 392 90 404 c 128,-1,17
 73 416 73 416 73 433 c 128,-1,18
 73 450 73 450 90 462 c 128,-1,19
 107 474 107 474 124 474 c 0,10,11
EndSplineSet
EndChar

StartChar: semicolon
Encoding: 59 59 30
Width: 251
GlyphClass: 2
Flags: W
LayerCount: 2
Fore
SplineSet
173 92 m 0,0,1
 173 82 173 82 168 73 c 2,2,-1
 127 -10 l 1,3,4
 117 -34 117 -34 102 -34 c 0,5,6
 80 -34 80 -34 80 -9 c 0,7,8
 80 -5 80 -5 83 7 c 2,9,-1
 107 94 l 2,10,11
 114 117 114 117 132 117 c 0,12,13
 143 117 143 117 158 111 c 128,-1,14
 173 105 173 105 173 92 c 0,0,1
124 474 m 0,15,16
 140 474 140 474 157.5 462 c 128,-1,17
 175 450 175 450 175 433 c 128,-1,18
 175 416 175 416 157.5 404 c 128,-1,19
 140 392 140 392 124 392 c 0,20,21
 107 392 107 392 90 404 c 128,-1,22
 73 416 73 416 73 433 c 128,-1,23
 73 450 73 450 90 462 c 128,-1,24
 107 474 107 474 124 474 c 0,15,16
EndSplineSet
EndChar

StartChar: less
Encoding: 60 60 31
Width: 530
GlyphClass: 2
Flags: W
LayerCount: 2
Fore
SplineSet
436 89 m 0,0,1
 426 89 426 89 415 96 c 2,2,-1
 51 306 l 2,3,4
 33 317 33 317 33 333 c 0,5,6
 33 348 33 348 51 358 c 2,7,-1
 415 568 l 1,8,9
 423 574 423 574 435 574 c 0,10,11
 446 574 446 574 453 567.5 c 128,-1,12
 460 561 460 561 460 551 c 0,13,14
 460 543 460 543 454 534.5 c 128,-1,15
 448 526 448 526 441 523 c 2,16,-1
 110 333 l 1,17,-1
 440 141 l 1,18,19
 460 131 460 131 460 116 c 0,20,21
 460 109 460 109 454 99 c 128,-1,22
 448 89 448 89 436 89 c 0,0,1
EndSplineSet
EndChar

StartChar: equal
Encoding: 61 61 32
Width: 468
GlyphClass: 2
Flags: W
LayerCount: 2
Fore
SplineSet
79 384 m 0,0,1
 79 410 79 410 110 410 c 2,2,-1
 355 410 l 2,3,4
 389 410 389 410 389 382 c 0,5,6
 389 371 389 371 379.5 364 c 128,-1,7
 370 357 370 357 355 357 c 2,8,-1
 110 357 l 2,9,10
 79 357 79 357 79 384 c 0,0,1
79 281 m 0,11,12
 79 307 79 307 110 307 c 2,13,-1
 355 307 l 2,14,15
 389 307 389 307 389 279 c 0,16,17
 389 268 389 268 379.5 261 c 128,-1,18
 370 254 370 254 355 254 c 2,19,-1
 110 254 l 2,20,21
 79 254 79 254 79 281 c 0,11,12
EndSplineSet
EndChar

StartChar: greater
Encoding: 62 62 33
Width: 530
GlyphClass: 2
Flags: W
LayerCount: 2
Fore
SplineSet
94 89 m 0,0,1
 82 89 82 89 76 99 c 128,-1,2
 70 109 70 109 70 116 c 0,3,4
 70 131 70 131 90 141 c 1,5,-1
 420 333 l 1,6,-1
 89 523 l 2,7,8
 82 526 82 526 76 534.5 c 128,-1,9
 70 543 70 543 70 551 c 0,10,11
 70 561 70 561 77 567.5 c 128,-1,12
 84 574 84 574 95 574 c 0,13,14
 107 574 107 574 115 568 c 1,15,-1
 479 358 l 2,16,17
 497 348 497 348 497 333 c 0,18,19
 497 317 497 317 479 306 c 2,20,-1
 115 96 l 2,21,22
 104 89 104 89 94 89 c 0,0,1
EndSplineSet
EndChar

StartChar: question
Encoding: 63 63 34
Width: 536
GlyphClass: 2
Flags: W
LayerCount: 2
Fore
SplineSet
251 70 m 0,0,1
 267 70 267 70 284.5 58 c 128,-1,2
 302 46 302 46 302 29 c 128,-1,3
 302 12 302 12 284.5 0 c 128,-1,4
 267 -12 267 -12 251 -12 c 0,5,6
 234 -12 234 -12 217 0 c 128,-1,7
 200 12 200 12 200 29 c 128,-1,8
 200 46 200 46 217 58 c 128,-1,9
 234 70 234 70 251 70 c 0,0,1
277 194 m 2,10,11
 277 161 277 161 251 161 c 128,-1,12
 225 161 225 161 225 194 c 2,13,-1
 225 338 l 1,14,-1
 382 381 l 2,15,16
 408 388 408 388 425 416 c 128,-1,17
 442 444 442 444 442 484 c 0,18,19
 442 526 442 526 418.5 561.5 c 128,-1,20
 395 597 395 597 345 597 c 2,21,-1
 252 597 l 2,22,23
 214 597 214 597 191.5 595 c 128,-1,24
 169 593 169 593 147 586.5 c 128,-1,25
 125 580 125 580 114.5 566 c 128,-1,26
 104 552 104 552 97.5 529 c 128,-1,27
 91 506 91 506 91 471 c 0,28,29
 91 438 91 438 65 438 c 0,30,31
 38 438 38 438 38 471 c 0,32,33
 38 527 38 527 52.5 563.5 c 128,-1,34
 67 600 67 600 98 618 c 128,-1,35
 129 636 129 636 164 642.5 c 128,-1,36
 199 649 199 649 252 649 c 2,37,-1
 328 649 l 2,38,39
 416 649 416 649 455 600.5 c 128,-1,40
 494 552 494 552 494 484 c 0,41,42
 494 417 494 417 465.5 380 c 128,-1,43
 437 343 437 343 367 324 c 2,44,-1
 277 299 l 1,45,-1
 277 194 l 2,10,11
EndSplineSet
EndChar

StartChar: at
Encoding: 64 64 35
Width: 593
GlyphClass: 2
Flags: W
LayerCount: 2
Fore
SplineSet
283 -5 m 2,0,1
 186 -5 186 -5 128 60.5 c 128,-1,2
 70 126 70 126 70 241 c 2,3,-1
 70 395 l 2,4,5
 70 510 70 510 128 575.5 c 128,-1,6
 186 641 186 641 283 641 c 2,7,-1
 312 641 l 2,8,9
 409 641 409 641 467 575.5 c 128,-1,10
 525 510 525 510 525 395 c 0,11,12
 525 363 525 363 524 343 c 128,-1,13
 523 323 523 323 518 298.5 c 128,-1,14
 513 274 513 274 504 259 c 128,-1,15
 495 244 495 244 478.5 228.5 c 128,-1,16
 462 213 462 213 438.5 204.5 c 128,-1,17
 415 196 415 196 380.5 190.5 c 128,-1,18
 346 185 346 185 301 185 c 0,19,20
 228 185 228 185 201.5 219 c 128,-1,21
 175 253 175 253 175 332 c 0,22,23
 175 410 175 410 201.5 444 c 128,-1,24
 228 478 228 478 301 478 c 128,-1,25
 374 478 374 478 401 444 c 128,-1,26
 428 410 428 410 428 332 c 0,27,28
 428 281 428 281 418 250 c 1,29,30
 450 259 450 259 461.5 287 c 128,-1,31
 473 315 473 315 473 395 c 0,32,33
 473 487 473 487 432 538 c 128,-1,34
 391 589 391 589 312 589 c 2,35,-1
 283 589 l 2,36,37
 203 589 203 589 162.5 538 c 128,-1,38
 122 487 122 487 122 395 c 2,39,-1
 122 241 l 2,40,41
 122 149 122 149 162.5 98 c 128,-1,42
 203 47 203 47 283 47 c 2,43,-1
 417 47 l 2,44,45
 448 47 448 47 460.5 60.5 c 128,-1,46
 473 74 473 74 473 109 c 0,47,48
 473 142 473 142 498 142 c 0,49,50
 525 142 525 142 525 106 c 0,51,52
 525 83 525 83 521.5 66 c 128,-1,53
 518 49 518 49 508.5 31.5 c 128,-1,54
 499 14 499 14 477.5 4.5 c 128,-1,55
 456 -5 456 -5 424 -5 c 2,56,-1
 283 -5 l 2,0,1
301 237 m 0,57,58
 350 237 350 237 363 256 c 128,-1,59
 376 275 376 275 376 332 c 128,-1,60
 376 389 376 389 363 407.5 c 128,-1,61
 350 426 350 426 301 426 c 0,62,63
 253 426 253 426 240 407.5 c 128,-1,64
 227 389 227 389 227 332 c 0,65,66
 227 274 227 274 240 255.5 c 128,-1,67
 253 237 253 237 301 237 c 0,57,58
EndSplineSet
EndChar

StartChar: A
Encoding: 65 65 36
Width: 570
GlyphClass: 2
Flags: W
AnchorPoint: "Anchor-1" 285 0 basechar 0
AnchorPoint: "Anchor-0" 284 678 basechar 0
LayerCount: 2
Fore
SplineSet
316 636 m 1,0,-1
 543 25 l 2,1,2
 546 16 546 16 546 9 c 0,3,4
 546 -4 546 -4 537 -10 c 128,-1,5
 528 -16 528 -16 520 -16 c 0,6,7
 503 -16 503 -16 493 7 c 1,8,-1
 422 199 l 1,9,-1
 148 199 l 1,10,-1
 77 7 l 1,11,12
 67 -16 67 -16 50 -16 c 0,13,14
 42 -16 42 -16 33 -10 c 128,-1,15
 24 -4 24 -4 24 9 c 0,16,17
 24 16 24 16 27 25 c 2,18,-1
 254 636 l 1,19,-1
 316 636 l 1,0,-1
284 560 m 1,20,-1
 168 251 l 1,21,-1
 402 251 l 1,22,-1
 284 560 l 1,20,-1
EndSplineSet
EndChar

StartChar: B
Encoding: 66 66 37
Width: 605
GlyphClass: 2
Flags: W
AnchorPoint: "Anchor-1" 279 0 basechar 0
AnchorPoint: "Anchor-0" 278 678 basechar 0
LayerCount: 2
Fore
SplineSet
136 332 m 1,0,-1
 136 52 l 1,1,-1
 326 52 l 2,2,3
 424 52 424 52 460 74.5 c 128,-1,4
 496 97 496 97 496 178 c 2,5,-1
 496 206 l 2,6,7
 496 287 496 287 461 309.5 c 128,-1,8
 426 332 426 332 332 332 c 2,9,-1
 136 332 l 1,0,-1
84 36 m 2,10,-1
 84 600 l 2,11,12
 84 636 84 636 108 636 c 2,13,-1
 288 636 l 2,14,15
 399 636 399 636 452.5 605 c 128,-1,16
 506 574 506 574 506 486 c 0,17,18
 506 410 506 410 457 374 c 1,19,20
 503 357 503 357 525.5 318.5 c 128,-1,21
 548 280 548 280 548 209 c 2,22,-1
 548 180 l 2,23,24
 548 72 548 72 494.5 36 c 128,-1,25
 441 0 441 0 326 0 c 2,26,-1
 108 0 l 2,27,28
 84 0 84 0 84 36 c 2,10,-1
288 384 m 2,29,30
 380 384 380 384 417 403 c 128,-1,31
 454 422 454 422 454 481 c 0,32,33
 454 544 454 544 417.5 561.5 c 128,-1,34
 381 579 381 579 288 579 c 2,35,-1
 136 579 l 1,36,-1
 136 384 l 1,37,-1
 288 384 l 2,29,30
EndSplineSet
EndChar

StartChar: C
Encoding: 67 67 38
Width: 592
GlyphClass: 2
Flags: W
AnchorPoint: "Anchor-1" 322 0 basechar 0
AnchorPoint: "Anchor-0" 321 678 basechar 0
LayerCount: 2
Fore
SplineSet
436 0 m 2,0,-1
 295 0 l 2,1,2
 179 0 179 0 125.5 36 c 128,-1,3
 72 72 72 72 72 180 c 2,4,-1
 72 456 l 2,5,6
 72 564 72 564 125 600 c 128,-1,7
 178 636 178 636 289 636 c 2,8,-1
 436 636 l 2,9,10
 468 636 468 636 489.5 626.5 c 128,-1,11
 511 617 511 617 520.5 599.5 c 128,-1,12
 530 582 530 582 533 565 c 128,-1,13
 536 548 536 548 536 524 c 0,14,15
 536 489 536 489 510 489 c 128,-1,16
 484 489 484 489 484 522 c 0,17,18
 484 557 484 557 472 570.5 c 128,-1,19
 460 584 460 584 429 584 c 2,20,-1
 289 584 l 2,21,22
 241 584 241 584 214 580.5 c 128,-1,23
 187 577 187 577 164 564 c 128,-1,24
 141 551 141 551 132.5 525 c 128,-1,25
 124 499 124 499 124 456 c 2,26,-1
 124 180 l 2,27,28
 124 97 124 97 160 74.5 c 128,-1,29
 196 52 196 52 295 52 c 2,30,-1
 429 52 l 2,31,32
 461 52 461 52 472.5 66 c 128,-1,33
 484 80 484 80 484 114 c 0,34,35
 484 147 484 147 510 147 c 128,-1,36
 536 147 536 147 536 111 c 0,37,38
 536 88 536 88 533 71 c 128,-1,39
 530 54 530 54 520.5 36.5 c 128,-1,40
 511 19 511 19 489.5 9.5 c 128,-1,41
 468 0 468 0 436 0 c 2,0,-1
EndSplineSet
EndChar

StartChar: D
Encoding: 68 68 39
Width: 620
GlyphClass: 2
Flags: W
AnchorPoint: "Anchor-1" 289 0 basechar 0
AnchorPoint: "Anchor-0" 288 678 basechar 0
LayerCount: 2
Fore
SplineSet
548 456 m 2,0,-1
 548 180 l 2,1,2
 548 72 548 72 494.5 36 c 128,-1,3
 441 0 441 0 326 0 c 2,4,-1
 108 0 l 2,5,6
 84 0 84 0 84 36 c 2,7,-1
 84 600 l 2,8,9
 84 636 84 636 108 636 c 2,10,-1
 332 636 l 2,11,12
 386 636 386 636 422 629.5 c 128,-1,13
 458 623 458 623 488.5 604 c 128,-1,14
 519 585 519 585 533.5 548.5 c 128,-1,15
 548 512 548 512 548 456 c 2,0,-1
496 180 m 2,16,-1
 496 456 l 2,17,18
 496 538 496 538 461 561 c 128,-1,19
 426 584 426 584 332 584 c 2,20,-1
 136 584 l 1,21,-1
 136 52 l 1,22,-1
 326 52 l 2,23,24
 424 52 424 52 460 74.5 c 128,-1,25
 496 97 496 97 496 180 c 2,16,-1
EndSplineSet
EndChar

StartChar: E
Encoding: 69 69 40
Width: 598
GlyphClass: 2
Flags: W
AnchorPoint: "Anchor-1" 314 0 basechar 0
AnchorPoint: "Anchor-0" 313 678 basechar 0
LayerCount: 2
Fore
SplineSet
136 332 m 1,0,-1
 136 52 l 1,1,-1
 514 52 l 2,2,3
 548 52 548 52 548 24 c 0,4,5
 548 0 548 0 514 0 c 2,6,-1
 108 0 l 2,7,8
 84 0 84 0 84 36 c 2,9,-1
 84 600 l 2,10,11
 84 636 84 636 108 636 c 2,12,-1
 514 636 l 2,13,14
 548 636 548 636 548 608 c 0,15,16
 548 584 548 584 514 584 c 2,17,-1
 136 584 l 1,18,-1
 136 384 l 1,19,-1
 395 384 l 2,20,21
 431 384 431 384 431 356 c 0,22,23
 431 332 431 332 395 332 c 2,24,-1
 136 332 l 1,0,-1
EndSplineSet
EndChar

StartChar: F
Encoding: 70 70 41
Width: 577
GlyphClass: 2
Flags: W
AnchorPoint: "Anchor-1" 274 0 basechar 0
AnchorPoint: "Anchor-0" 313 678 basechar 0
LayerCount: 2
Fore
SplineSet
136 27 m 2,0,1
 136 -7 136 -7 110 -7 c 128,-1,2
 84 -7 84 -7 84 28 c 2,3,-1
 84 600 l 2,4,5
 84 636 84 636 108 636 c 2,6,-1
 514 636 l 2,7,8
 548 636 548 636 548 608 c 0,9,10
 548 584 548 584 514 584 c 2,11,-1
 136 584 l 1,12,-1
 136 384 l 1,13,-1
 395 384 l 2,14,15
 431 384 431 384 431 356 c 0,16,17
 431 332 431 332 395 332 c 2,18,-1
 136 332 l 1,19,-1
 136 27 l 2,0,1
EndSplineSet
EndChar

StartChar: G
Encoding: 71 71 42
Width: 606
GlyphClass: 2
Flags: W
AnchorPoint: "Anchor-1" 302 0 basechar 0
AnchorPoint: "Anchor-0" 301 678 basechar 0
LayerCount: 2
Fore
SplineSet
484 246 m 1,0,-1
 353 246 l 2,1,2
 317 246 317 246 317 271 c 0,3,4
 317 298 317 298 353 298 c 2,5,-1
 536 298 l 1,6,-1
 536 109 l 2,7,8
 536 60 536 60 516.5 30 c 128,-1,9
 497 0 497 0 436 0 c 2,10,-1
 289 0 l 2,11,12
 234 0 234 0 198 6.5 c 128,-1,13
 162 13 162 13 131.5 31 c 128,-1,14
 101 49 101 49 86.5 85 c 128,-1,15
 72 121 72 121 72 177 c 2,16,-1
 72 459 l 2,17,18
 72 565 72 565 125.5 600.5 c 128,-1,19
 179 636 179 636 295 636 c 2,20,-1
 436 636 l 2,21,22
 468 636 468 636 489.5 626.5 c 128,-1,23
 511 617 511 617 520.5 599.5 c 128,-1,24
 530 582 530 582 533 565 c 128,-1,25
 536 548 536 548 536 525 c 0,26,27
 536 489 536 489 510 489 c 128,-1,28
 484 489 484 489 484 523 c 0,29,30
 484 556 484 556 472.5 570 c 128,-1,31
 461 584 461 584 429 584 c 2,32,-1
 295 584 l 2,33,34
 196 584 196 584 160 561.5 c 128,-1,35
 124 539 124 539 124 458 c 2,36,-1
 124 178 l 2,37,38
 124 97 124 97 159.5 74.5 c 128,-1,39
 195 52 195 52 289 52 c 2,40,-1
 429 52 l 2,41,42
 461 52 461 52 472.5 65.5 c 128,-1,43
 484 79 484 79 484 112 c 2,44,-1
 484 246 l 1,0,-1
EndSplineSet
EndChar

StartChar: H
Encoding: 72 72 43
Width: 632
GlyphClass: 2
Flags: W
AnchorPoint: "Anchor-1" 314 0 basechar 0
AnchorPoint: "Anchor-0" 313 678 basechar 0
LayerCount: 2
Fore
SplineSet
136 27 m 2,0,1
 136 -7 136 -7 110 -7 c 128,-1,2
 84 -7 84 -7 84 27 c 2,3,-1
 84 608 l 2,4,5
 84 643 84 643 108 643 c 0,6,7
 136 643 136 643 136 608 c 2,8,-1
 136 369 l 1,9,-1
 496 369 l 1,10,-1
 496 608 l 2,11,12
 496 643 496 643 521 643 c 0,13,14
 548 643 548 643 548 608 c 2,15,-1
 548 27 l 2,16,17
 548 -7 548 -7 523 -7 c 0,18,19
 496 -7 496 -7 496 27 c 2,20,-1
 496 317 l 1,21,-1
 136 317 l 1,22,-1
 136 27 l 2,0,1
EndSplineSet
EndChar

StartChar: I
Encoding: 73 73 44
Width: 220
GlyphClass: 2
Flags: W
AnchorPoint: "Anchor-1" 109 0 basechar 0
AnchorPoint: "Anchor-0" 108 678 basechar 0
LayerCount: 2
Fore
SplineSet
136 25 m 2,0,1
 136 -7 136 -7 109 -7 c 0,2,3
 84 -7 84 -7 84 25 c 2,4,-1
 84 610 l 2,5,6
 84 643 84 643 110 643 c 128,-1,7
 136 643 136 643 136 610 c 2,8,-1
 136 25 l 2,0,1
EndSplineSet
EndChar

StartChar: J
Encoding: 74 74 45
Width: 550
GlyphClass: 2
Flags: W
AnchorPoint: "Anchor-1" 253 0 basechar 0
AnchorPoint: "Anchor-0" 444 678 basechar 0
LayerCount: 2
Fore
SplineSet
251 44 m 0,0,1
 346 44 346 44 381.5 66.5 c 128,-1,2
 417 89 417 89 417 170 c 2,3,-1
 417 611 l 2,4,5
 417 643 417 643 443 643 c 128,-1,6
 469 643 469 643 469 610 c 2,7,-1
 469 169 l 2,8,9
 469 113 469 113 454.5 77 c 128,-1,10
 440 41 440 41 409.5 23 c 128,-1,11
 379 5 379 5 342.5 -1.5 c 128,-1,12
 306 -8 306 -8 251 -8 c 128,-1,13
 196 -8 196 -8 159.5 -1.5 c 128,-1,14
 123 5 123 5 92 23.5 c 128,-1,15
 61 42 61 42 46.5 78.5 c 128,-1,16
 32 115 32 115 32 172 c 0,17,18
 32 205 32 205 60 205 c 0,19,20
 85 205 85 205 85 172 c 0,21,22
 85 89 85 89 120 66.5 c 128,-1,23
 155 44 155 44 251 44 c 0,0,1
EndSplineSet
EndChar

StartChar: K
Encoding: 75 75 46
Width: 518
GlyphClass: 2
Flags: W
AnchorPoint: "Anchor-1" 284 0 basechar 0
AnchorPoint: "Anchor-0" 268 678 basechar 0
LayerCount: 2
Fore
SplineSet
514 18 m 128,-1,1
 514 8 514 8 505 0.5 c 128,-1,2
 496 -7 496 -7 488 -7 c 0,3,4
 475 -7 475 -7 463 8 c 2,5,-1
 189 322 l 1,6,-1
 136 258 l 1,7,-1
 136 25 l 2,8,9
 136 -7 136 -7 109 -7 c 0,10,11
 84 -7 84 -7 84 25 c 2,12,-1
 84 610 l 2,13,14
 84 643 84 643 110 643 c 128,-1,15
 136 643 136 643 136 610 c 2,16,-1
 136 330 l 1,17,-1
 397 628 l 1,18,19
 408 643 408 643 422 643 c 0,20,21
 430 643 430 643 438.5 636 c 128,-1,22
 447 629 447 629 447 619 c 0,23,24
 447 608 447 608 437 595 c 1,25,-1
 224 356 l 1,26,-1
 503 41 l 2,27,0
 514 28 514 28 514 18 c 128,-1,1
EndSplineSet
EndChar

StartChar: L
Encoding: 76 76 47
Width: 516
GlyphClass: 2
Flags: W
AnchorPoint: "Anchor-1" 284 0 basechar 0
AnchorPoint: "Anchor-0" 110 678 basechar 0
LayerCount: 2
Fore
SplineSet
108 0 m 2,0,1
 84 0 84 0 84 35 c 2,2,-1
 84 611 l 2,3,4
 84 643 84 643 110 643 c 128,-1,5
 136 643 136 643 136 611 c 2,6,-1
 136 52 l 1,7,-1
 459 52 l 2,8,9
 492 52 492 52 492 25 c 0,10,11
 492 0 492 0 459 0 c 2,12,-1
 108 0 l 2,0,1
EndSplineSet
EndChar

StartChar: M
Encoding: 77 77 48
Width: 653
GlyphClass: 2
Flags: W
AnchorPoint: "Anchor-1" 327 0 basechar 0
AnchorPoint: "Anchor-0" 326 678 basechar 0
LayerCount: 2
Fore
SplineSet
326 279 m 0,0,1
 315 279 315 279 309 287 c 2,2,-1
 136 545 l 1,3,-1
 136 28 l 2,4,5
 136 -7 136 -7 110 -7 c 128,-1,6
 84 -7 84 -7 84 27 c 2,7,-1
 84 608 l 2,8,9
 84 643 84 643 108 643 c 0,10,11
 126 643 126 643 138 624 c 2,12,-1
 326 346 l 1,13,-1
 515 624 l 2,14,15
 528 643 528 643 544 643 c 0,16,17
 569 643 569 643 569 608 c 2,18,-1
 569 27 l 2,19,20
 569 -7 569 -7 542 -7 c 0,21,22
 517 -7 517 -7 517 28 c 2,23,-1
 517 545 l 1,24,-1
 344 287 l 2,25,26
 338 279 338 279 326 279 c 0,0,1
EndSplineSet
EndChar

StartChar: N
Encoding: 78 78 49
Width: 632
GlyphClass: 2
Flags: W
AnchorPoint: "Anchor-1" 314 0 basechar 0
AnchorPoint: "Anchor-0" 313 678 basechar 0
LayerCount: 2
Fore
SplineSet
523 -7 m 0,0,1
 509 -7 509 -7 503 0 c 1,2,-1
 136 543 l 1,3,-1
 136 26 l 2,4,5
 136 -7 136 -7 110 -7 c 128,-1,6
 84 -7 84 -7 84 27 c 2,7,-1
 84 608 l 2,8,9
 84 643 84 643 108 643 c 0,10,11
 126 643 126 643 138 624 c 2,12,-1
 496 96 l 1,13,-1
 496 607 l 2,14,15
 496 643 496 643 521 643 c 0,16,17
 548 643 548 643 548 608 c 2,18,-1
 548 27 l 2,19,20
 548 -7 548 -7 523 -7 c 0,0,1
EndSplineSet
EndChar

StartChar: O
Encoding: 79 79 50
Width: 594
GlyphClass: 2
Flags: W
AnchorPoint: "Anchor-1" 298 0 basechar 0
AnchorPoint: "Anchor-0" 297 678 basechar 0
LayerCount: 2
Fore
SplineSet
297 -9 m 128,-1,1
 195 -9 195 -9 130 54 c 128,-1,2
 65 117 65 117 65 228 c 2,3,-1
 65 408 l 2,4,5
 65 519 65 519 130 582 c 128,-1,6
 195 645 195 645 297 645 c 128,-1,7
 399 645 399 645 464 581.5 c 128,-1,8
 529 518 529 518 529 408 c 2,9,-1
 529 228 l 2,10,11
 529 118 529 118 464 54.5 c 128,-1,0
 399 -9 399 -9 297 -9 c 128,-1,1
297 593 m 128,-1,13
 211 593 211 593 164 544 c 128,-1,14
 117 495 117 495 117 407 c 2,15,-1
 117 229 l 2,16,17
 117 141 117 141 164 92 c 128,-1,18
 211 43 211 43 297 43 c 128,-1,19
 383 43 383 43 430 92 c 128,-1,20
 477 141 477 141 477 229 c 2,21,-1
 477 407 l 2,22,23
 477 495 477 495 430 544 c 128,-1,12
 383 593 383 593 297 593 c 128,-1,13
EndSplineSet
EndChar

StartChar: P
Encoding: 80 80 51
Width: 540
GlyphClass: 2
Flags: W
AnchorPoint: "Anchor-1" 289 0 basechar 0
AnchorPoint: "Anchor-0" 288 678 basechar 0
LayerCount: 2
Fore
SplineSet
136 25 m 2,0,1
 136 -7 136 -7 109 -7 c 0,2,3
 84 -7 84 -7 84 25 c 2,4,-1
 84 600 l 2,5,6
 84 636 84 636 108 636 c 2,7,-1
 289 636 l 2,8,9
 397 636 397 636 451.5 603 c 128,-1,10
 506 570 506 570 506 481 c 0,11,12
 506 406 506 406 460.5 366.5 c 128,-1,13
 415 327 415 327 333 327 c 2,14,-1
 136 327 l 1,15,-1
 136 25 l 2,0,1
289 379 m 2,16,17
 381 379 381 379 417.5 399 c 128,-1,18
 454 419 454 419 454 481 c 0,19,20
 454 545 454 545 417 564.5 c 128,-1,21
 380 584 380 584 289 584 c 2,22,-1
 136 584 l 1,23,-1
 136 379 l 1,24,-1
 289 379 l 2,16,17
EndSplineSet
EndChar

StartChar: Q
Encoding: 81 81 52
Width: 594
GlyphClass: 2
Flags: W
AnchorPoint: "Anchor-1" 298 0 basechar 0
AnchorPoint: "Anchor-0" 297 678 basechar 0
LayerCount: 2
Fore
SplineSet
297 593 m 128,-1,1
 211 593 211 593 164 544 c 128,-1,2
 117 495 117 495 117 407 c 2,3,-1
 117 229 l 2,4,5
 117 141 117 141 164 92 c 128,-1,6
 211 43 211 43 297 43 c 0,7,8
 365 43 365 43 406 72 c 1,9,-1
 350 124 l 2,10,11
 337 135 337 135 337 147 c 0,12,13
 337 157 337 157 344.5 165 c 128,-1,14
 352 173 352 173 363 173 c 0,15,16
 375 173 375 173 389 160 c 2,17,-1
 443 107 l 1,18,19
 477 153 477 153 477 229 c 2,20,-1
 477 407 l 2,21,22
 477 495 477 495 430 544 c 128,-1,0
 383 593 383 593 297 593 c 128,-1,1
297 -9 m 0,23,24
 195 -9 195 -9 130 54 c 128,-1,25
 65 117 65 117 65 228 c 2,26,-1
 65 408 l 2,27,28
 65 519 65 519 130 582 c 128,-1,29
 195 645 195 645 297 645 c 128,-1,30
 399 645 399 645 464 581.5 c 128,-1,31
 529 518 529 518 529 408 c 2,32,-1
 529 228 l 2,33,34
 529 131 529 131 480 71 c 1,35,-1
 515 37 l 1,36,37
 526 24 526 24 526 13 c 0,38,39
 526 4 526 4 519 -4 c 128,-1,40
 512 -12 512 -12 502 -12 c 0,41,42
 489 -12 489 -12 478 -1 c 2,43,-1
 443 34 l 1,44,45
 383 -9 383 -9 297 -9 c 0,23,24
EndSplineSet
EndChar

StartChar: R
Encoding: 82 82 53
Width: 569
GlyphClass: 2
Flags: W
AnchorPoint: "Anchor-1" 289 0 basechar 0
AnchorPoint: "Anchor-0" 288 678 basechar 0
LayerCount: 2
Fore
SplineSet
288 374 m 2,0,1
 381 374 381 374 417.5 394 c 128,-1,2
 454 414 454 414 454 476 c 0,3,4
 454 540 454 540 417 559.5 c 128,-1,5
 380 579 380 579 288 579 c 2,6,-1
 136 579 l 1,7,-1
 136 374 l 1,8,-1
 288 374 l 2,0,1
389 332 m 1,9,10
 422 300 422 300 453 225 c 128,-1,11
 484 150 484 150 499 93 c 128,-1,12
 514 36 514 36 514 25 c 0,13,14
 514 11 514 11 506.5 2 c 128,-1,15
 499 -7 499 -7 487 -7 c 128,-1,16
 475 -7 475 -7 468.5 2.5 c 128,-1,17
 462 12 462 12 462 25 c 128,-1,18
 462 38 462 38 448 91 c 128,-1,19
 434 144 434 144 400 217 c 128,-1,20
 366 290 366 290 324 322 c 1,21,-1
 136 322 l 1,22,-1
 136 25 l 2,23,24
 136 -7 136 -7 109 -7 c 0,25,26
 84 -7 84 -7 84 25 c 2,27,-1
 84 600 l 2,28,29
 84 636 84 636 108 636 c 2,30,-1
 288 636 l 2,31,32
 397 636 397 636 451.5 603 c 128,-1,33
 506 570 506 570 506 481 c 0,34,35
 506 356 506 356 389 332 c 1,9,10
EndSplineSet
EndChar

StartChar: S
Encoding: 83 83 54
Width: 599
GlyphClass: 2
Flags: W
AnchorPoint: "Anchor-1" 306 0 basechar 0
AnchorPoint: "Anchor-0" 305 678 basechar 0
LayerCount: 2
Fore
SplineSet
113 481 m 0,0,1
 113 441 113 441 130.5 412.5 c 128,-1,2
 148 384 148 384 173 379 c 2,3,-1
 410 328 l 2,4,5
 477 313 477 313 507 266 c 128,-1,6
 537 219 537 219 537 156 c 0,7,8
 537 89 537 89 497.5 40.5 c 128,-1,9
 458 -8 458 -8 367 -8 c 2,10,-1
 284 -8 l 2,11,12
 227 -8 227 -8 190 -1.5 c 128,-1,13
 153 5 153 5 121.5 23.5 c 128,-1,14
 90 42 90 42 75.5 78.5 c 128,-1,15
 61 115 61 115 61 172 c 0,16,17
 61 205 61 205 89 205 c 0,18,19
 114 205 114 205 114 172 c 0,20,21
 114 89 114 89 149.5 66.5 c 128,-1,22
 185 44 185 44 284 44 c 2,23,-1
 386 44 l 2,24,25
 439 44 439 44 462 80 c 128,-1,26
 485 116 485 116 485 157 c 0,27,28
 485 206 485 206 465.5 236.5 c 128,-1,29
 446 267 446 267 425 272 c 2,30,-1
 190 324 l 2,31,32
 120 339 120 339 90.5 376.5 c 128,-1,33
 61 414 61 414 61 482 c 0,34,35
 61 549 61 549 102 596.5 c 128,-1,36
 143 644 143 644 238 644 c 2,37,-1
 314 644 l 2,38,39
 371 644 371 644 407.5 637.5 c 128,-1,40
 444 631 444 631 476 613 c 128,-1,41
 508 595 508 595 522.5 559 c 128,-1,42
 537 523 537 523 537 466 c 0,43,44
 537 433 537 433 510 433 c 0,45,46
 484 433 484 433 484 466 c 0,47,48
 484 549 484 549 449 570.5 c 128,-1,49
 414 592 414 592 314 592 c 2,50,-1
 216 592 l 2,51,52
 162 592 162 592 137.5 557 c 128,-1,53
 113 522 113 522 113 481 c 0,0,1
EndSplineSet
EndChar

StartChar: T
Encoding: 84 84 55
Width: 481
GlyphClass: 2
Flags: W
AnchorPoint: "Anchor-1" 240 0 basechar 0
AnchorPoint: "Anchor-0" 239 678 basechar 0
LayerCount: 2
Fore
SplineSet
421 636 m 2,0,1
 454 636 454 636 454 609 c 0,2,3
 454 584 454 584 421 584 c 2,4,-1
 269 584 l 1,5,-1
 269 25 l 2,6,7
 269 -7 269 -7 240 -7 c 0,8,9
 214 -7 214 -7 214 25 c 2,10,-1
 214 584 l 1,11,-1
 60 584 l 2,12,13
 27 584 27 584 27 610 c 128,-1,14
 27 636 27 636 60 636 c 2,15,-1
 421 636 l 2,0,1
EndSplineSet
EndChar

StartChar: U
Encoding: 85 85 56
Width: 620
GlyphClass: 2
Flags: W
AnchorPoint: "Anchor-1" 310 0 basechar 0
AnchorPoint: "Anchor-0" 309 678 basechar 0
LayerCount: 2
Fore
SplineSet
490 611 m 2,0,1
 490 643 490 643 517 643 c 0,2,3
 542 643 542 643 542 610 c 2,4,-1
 542 228 l 2,5,6
 542 118 542 118 477 54.5 c 128,-1,7
 412 -9 412 -9 310 -9 c 128,-1,8
 208 -9 208 -9 143 54 c 128,-1,9
 78 117 78 117 78 228 c 2,10,-1
 78 610 l 2,11,12
 78 643 78 643 104 643 c 128,-1,13
 130 643 130 643 130 611 c 2,14,-1
 130 229 l 2,15,16
 130 141 130 141 177 92 c 128,-1,17
 224 43 224 43 310 43 c 128,-1,18
 396 43 396 43 443 92 c 128,-1,19
 490 141 490 141 490 229 c 2,20,-1
 490 611 l 2,0,1
EndSplineSet
EndChar

StartChar: V
Encoding: 86 86 57
Width: 570
GlyphClass: 2
Flags: W
AnchorPoint: "Anchor-1" 285 0 basechar 0
AnchorPoint: "Anchor-0" 284 678 basechar 0
LayerCount: 2
Fore
SplineSet
286 76 m 1,0,-1
 493 629 l 1,1,2
 503 652 503 652 520 652 c 0,3,4
 528 652 528 652 537 646 c 128,-1,5
 546 640 546 640 546 627 c 0,6,7
 546 620 546 620 543 611 c 2,8,-1
 316 0 l 1,9,-1
 254 0 l 1,10,-1
 27 611 l 2,11,12
 24 620 24 620 24 627 c 0,13,14
 24 640 24 640 33 646 c 128,-1,15
 42 652 42 652 50 652 c 0,16,17
 67 652 67 652 77 629 c 1,18,-1
 286 76 l 1,0,-1
EndSplineSet
EndChar

StartChar: W
Encoding: 87 87 58
Width: 915
GlyphClass: 2
Flags: W
AnchorPoint: "Anchor-1" 460 0 basechar 0
AnchorPoint: "Anchor-0" 459 678 basechar 0
LayerCount: 2
Fore
SplineSet
664 72 m 1,0,-1
 836 627 l 1,1,2
 844 649 844 649 864 649 c 0,3,4
 888 649 888 649 888 630 c 0,5,6
 888 624 888 624 884 612 c 2,7,-1
 692 0 l 1,8,-1
 634 0 l 1,9,-1
 457 553 l 1,10,-1
 281 0 l 1,11,-1
 224 0 l 1,12,-1
 31 616 l 2,13,14
 27 628 27 628 27 634 c 0,15,16
 27 653 27 653 51 653 c 0,17,18
 71 653 71 653 79 631 c 1,19,-1
 253 72 l 1,20,-1
 428 626 l 2,21,22
 437 652 437 652 457 652 c 0,23,24
 480 652 480 652 488 626 c 2,25,-1
 664 72 l 1,0,-1
EndSplineSet
EndChar

StartChar: X
Encoding: 88 88 59
Width: 559
GlyphClass: 2
Flags: W
AnchorPoint: "Anchor-1" 278 0 basechar 0
AnchorPoint: "Anchor-0" 277 678 basechar 0
LayerCount: 2
Fore
SplineSet
497 643 m 0,0,1
 505 643 505 643 514 637 c 128,-1,2
 523 631 523 631 523 617 c 0,3,4
 523 605 523 605 515 596 c 1,5,-1
 312 317 l 1,6,-1
 515 39 l 2,7,8
 523 28 523 28 523 17 c 128,-1,9
 523 6 523 6 514.5 -0.5 c 128,-1,10
 506 -7 506 -7 497 -7 c 0,11,12
 484 -7 484 -7 472 9 c 2,13,-1
 279 277 l 1,14,-1
 87 9 l 2,15,16
 75 -7 75 -7 61 -7 c 0,17,18
 52 -7 52 -7 44 0 c 128,-1,19
 36 7 36 7 36 17 c 0,20,21
 36 28 36 28 44 39 c 2,22,-1
 247 317 l 1,23,-1
 44 596 l 1,24,25
 36 605 36 605 36 617 c 0,26,27
 36 631 36 631 45 637 c 128,-1,28
 54 643 54 643 61 643 c 0,29,30
 74 643 74 643 87 625 c 2,31,-1
 279 358 l 1,32,-1
 472 625 l 2,33,34
 486 643 486 643 497 643 c 0,0,1
EndSplineSet
EndChar

StartChar: Y
Encoding: 89 89 60
Width: 521
GlyphClass: 2
Flags: W
AnchorPoint: "Anchor-1" 260 0 basechar 0
AnchorPoint: "Anchor-0" 259 678 basechar 0
LayerCount: 2
Fore
SplineSet
234 308 m 1,0,-1
 25 597 l 2,1,2
 17 609 17 609 17 618 c 0,3,4
 17 629 17 629 25 636 c 128,-1,5
 33 643 33 643 42 643 c 0,6,7
 53 643 53 643 67 625 c 2,8,-1
 260 358 l 1,9,-1
 452 625 l 2,10,11
 465 643 465 643 478 643 c 0,12,13
 486 643 486 643 494.5 635.5 c 128,-1,14
 503 628 503 628 503 618 c 0,15,16
 503 609 503 609 495 597 c 2,17,-1
 287 308 l 1,18,-1
 287 24 l 2,19,20
 287 -7 287 -7 260 -7 c 0,21,22
 234 -7 234 -7 234 24 c 2,23,-1
 234 308 l 1,0,-1
EndSplineSet
EndChar

StartChar: Z
Encoding: 90 90 61
Width: 555
GlyphClass: 2
Flags: W
AnchorPoint: "Anchor-1" 278 0 basechar 0
AnchorPoint: "Anchor-0" 277 678 basechar 0
LayerCount: 2
Fore
SplineSet
46 0 m 1,0,-1
 46 51 l 1,1,-1
 447 594 l 1,2,-1
 81 594 l 2,3,4
 45 594 45 594 45 620 c 128,-1,5
 45 646 45 646 81 646 c 2,6,-1
 509 646 l 1,7,-1
 509 593 l 1,8,-1
 110 52 l 1,9,-1
 474 52 l 2,10,11
 509 52 509 52 509 25 c 0,12,13
 509 0 509 0 474 0 c 2,14,-1
 46 0 l 1,0,-1
EndSplineSet
EndChar

StartChar: bracketleft
Encoding: 91 91 62
Width: 255
GlyphClass: 2
Flags: W
LayerCount: 2
Fore
SplineSet
132 631 m 1,0,-1
 132 5 l 1,1,-1
 210 5 l 1,2,-1
 210 -47 l 1,3,-1
 80 -47 l 1,4,-1
 80 683 l 1,5,-1
 210 683 l 1,6,-1
 210 631 l 1,7,-1
 132 631 l 1,0,-1
EndSplineSet
EndChar

StartChar: backslash
Encoding: 92 92 63
Width: 359
GlyphClass: 2
Flags: W
LayerCount: 2
Fore
SplineSet
95 627 m 2,0,-1
 313 29 l 1,1,2
 316 17 316 17 316 11 c 0,3,4
 316 -2 316 -2 307 -7.5 c 128,-1,5
 298 -13 298 -13 289 -13 c 0,6,7
 272 -13 272 -13 264 10 c 2,8,-1
 46 608 l 2,9,10
 43 618 43 618 43 626 c 0,11,12
 43 639 43 639 51.5 644.5 c 128,-1,13
 60 650 60 650 69 650 c 0,14,15
 87 650 87 650 95 627 c 2,0,-1
EndSplineSet
EndChar

StartChar: bracketright
Encoding: 93 93 64
Width: 255
GlyphClass: 2
Flags: W
LayerCount: 2
Fore
SplineSet
123 5 m 1,0,-1
 123 631 l 1,1,-1
 45 631 l 1,2,-1
 45 683 l 1,3,-1
 175 683 l 1,4,-1
 175 -47 l 1,5,-1
 45 -47 l 1,6,-1
 45 5 l 1,7,-1
 123 5 l 1,0,-1
EndSplineSet
EndChar

StartChar: asciicircum
Encoding: 94 94 65
Width: 443
GlyphClass: 2
Flags: W
LayerCount: 2
Fore
SplineSet
222 581 m 1,0,-1
 132 381 l 1,1,2
 121 360 121 360 103 360 c 0,3,4
 93 360 93 360 86.5 366.5 c 128,-1,5
 80 373 80 373 80 383 c 0,6,7
 80 387 80 387 82 395 c 1,8,-1
 192 641 l 1,9,-1
 252 641 l 1,10,-1
 361 395 l 2,11,12
 363 391 363 391 363 383 c 0,13,14
 363 360 363 360 340 360 c 0,15,16
 322 360 322 360 311 381 c 1,17,-1
 222 581 l 1,0,-1
EndSplineSet
EndChar

StartChar: underscore
Encoding: 95 95 66
Width: 475
GlyphClass: 2
Flags: W
LayerCount: 2
Fore
SplineSet
-5 -20 m 0,0,1
 -5 5 -5 5 28 5 c 2,2,-1
 447 5 l 2,3,4
 480 5 480 5 480 -22 c 0,5,6
 480 -47 480 -47 447 -47 c 2,7,-1
 28 -47 l 2,8,9
 -5 -47 -5 -47 -5 -20 c 0,0,1
EndSplineSet
EndChar

StartChar: grave
Encoding: 96 96 67
Width: 212
GlyphClass: 2
Flags: W
LayerCount: 2
Fore
SplineSet
54 683 m 0,0,1
 66 683 66 683 79 668 c 2,2,-1
 175 553 l 2,3,4
 184 542 184 542 184 530 c 0,5,6
 184 519 184 519 176 512 c 128,-1,7
 168 505 168 505 159 505 c 0,8,9
 148 505 148 505 134 520 c 1,10,-1
 38 635 l 2,11,12
 29 646 29 646 29 657 c 128,-1,13
 29 668 29 668 37 675.5 c 128,-1,14
 45 683 45 683 54 683 c 0,0,1
EndSplineSet
EndChar

StartChar: a
Encoding: 97 97 68
Width: 554
GlyphClass: 2
Flags: W
AnchorPoint: "Anchor-1" 252 0 basechar 0
AnchorPoint: "Anchor-0" 277 510 basechar 0
LayerCount: 2
Fore
SplineSet
283 243 m 2,0,1
 232 243 232 243 204.5 239.5 c 128,-1,2
 177 236 177 236 153 223.5 c 128,-1,3
 129 211 129 211 120.5 186 c 128,-1,4
 112 161 112 161 112 118 c 0,5,6
 112 92 112 92 129 72 c 128,-1,7
 146 52 146 52 167 52 c 2,8,-1
 260 52 l 2,9,10
 344 52 344 52 387 97.5 c 128,-1,11
 430 143 430 143 430 228 c 2,12,-1
 430 243 l 1,13,-1
 283 243 l 2,0,1
283 295 m 2,14,-1
 430 295 l 1,15,-1
 430 352 l 2,16,17
 430 383 430 383 418.5 396 c 128,-1,18
 407 409 407 409 375 409 c 2,19,-1
 234 409 l 2,20,21
 112 409 112 409 112 349 c 0,22,23
 112 314 112 314 85 314 c 0,24,25
 60 314 60 314 60 349 c 0,26,27
 60 407 60 407 106 434 c 128,-1,28
 152 461 152 461 227 461 c 2,29,-1
 382 461 l 2,30,31
 440 461 440 461 461 433 c 128,-1,32
 482 405 482 405 482 335 c 2,33,-1
 482 27 l 2,34,35
 482 -7 482 -7 456 -7 c 128,-1,36
 430 -7 430 -7 430 28 c 2,37,-1
 430 63 l 1,38,39
 373 0 373 0 260 0 c 2,40,-1
 167 0 l 2,41,42
 120 0 120 0 90 33.5 c 128,-1,43
 60 67 60 67 60 123 c 0,44,45
 60 224 60 224 114.5 259.5 c 128,-1,46
 169 295 169 295 283 295 c 2,14,-1
EndSplineSet
EndChar

StartChar: b
Encoding: 98 98 69
Width: 611
GlyphClass: 2
Flags: W
AnchorPoint: "Anchor-1" 317 0 basechar 0
AnchorPoint: "Anchor-0" 327 510 basechar 0
LayerCount: 2
Fore
SplineSet
127 398 m 1,0,1
 186 461 186 461 298 461 c 2,2,-1
 327 461 l 2,3,4
 442 461 442 461 495.5 425.5 c 128,-1,5
 549 390 549 390 549 285 c 2,6,-1
 549 176 l 2,7,8
 549 71 549 71 495.5 35.5 c 128,-1,9
 442 0 442 0 327 0 c 2,10,-1
 298 0 l 2,11,12
 186 0 186 0 127 63 c 1,13,-1
 127 28 l 2,14,15
 127 -7 127 -7 101 -7 c 128,-1,16
 75 -7 75 -7 75 27 c 2,17,-1
 75 607 l 2,18,19
 75 643 75 643 99 643 c 0,20,21
 127 643 127 643 127 607 c 2,22,-1
 127 398 l 1,0,1
298 409 m 2,23,24
 127 409 127 409 127 232 c 2,25,-1
 127 228 l 2,26,27
 127 52 127 52 298 52 c 2,28,-1
 327 52 l 2,29,30
 378 52 378 52 405.5 55.5 c 128,-1,31
 433 59 433 59 456.5 71.5 c 128,-1,32
 480 84 480 84 488.5 109 c 128,-1,33
 497 134 497 134 497 177 c 2,34,-1
 497 284 l 2,35,36
 497 327 497 327 488.5 352 c 128,-1,37
 480 377 480 377 456.5 389.5 c 128,-1,38
 433 402 433 402 405.5 405.5 c 128,-1,39
 378 409 378 409 327 409 c 2,40,-1
 298 409 l 2,23,24
EndSplineSet
EndChar

StartChar: c
Encoding: 99 99 70
Width: 584
GlyphClass: 2
Flags: W
AnchorPoint: "Anchor-1" 304 0 basechar 0
AnchorPoint: "Anchor-0" 304 510 basechar 0
LayerCount: 2
Fore
SplineSet
426 0 m 2,0,-1
 285 0 l 2,1,2
 170 0 170 0 116 35.5 c 128,-1,3
 62 71 62 71 62 176 c 2,4,-1
 62 285 l 2,5,6
 62 390 62 390 116 425.5 c 128,-1,7
 170 461 170 461 285 461 c 2,8,-1
 426 461 l 2,9,10
 458 461 458 461 479.5 451.5 c 128,-1,11
 501 442 501 442 510.5 424 c 128,-1,12
 520 406 520 406 523 389 c 128,-1,13
 526 372 526 372 526 349 c 0,14,15
 526 314 526 314 500 314 c 128,-1,16
 474 314 474 314 474 347 c 0,17,18
 474 382 474 382 462 395.5 c 128,-1,19
 450 409 450 409 419 409 c 2,20,-1
 285 409 l 2,21,22
 234 409 234 409 206.5 405.5 c 128,-1,23
 179 402 179 402 155 389.5 c 128,-1,24
 131 377 131 377 122.5 352 c 128,-1,25
 114 327 114 327 114 284 c 2,26,-1
 114 177 l 2,27,28
 114 134 114 134 122.5 109 c 128,-1,29
 131 84 131 84 155 71.5 c 128,-1,30
 179 59 179 59 206.5 55.5 c 128,-1,31
 234 52 234 52 285 52 c 2,32,-1
 419 52 l 2,33,34
 451 52 451 52 462.5 66 c 128,-1,35
 474 80 474 80 474 114 c 0,36,37
 474 147 474 147 500 147 c 128,-1,38
 526 147 526 147 526 111 c 0,39,40
 526 88 526 88 523 71 c 128,-1,41
 520 54 520 54 510.5 36.5 c 128,-1,42
 501 19 501 19 479.5 9.5 c 128,-1,43
 458 0 458 0 426 0 c 2,0,-1
EndSplineSet
EndChar

StartChar: d
Encoding: 100 100 71
Width: 611
GlyphClass: 2
Flags: W
AnchorPoint: "Anchor-1" 294 0 basechar 0
AnchorPoint: "Anchor-0" 284 510 basechar 0
LayerCount: 2
Fore
SplineSet
484 461 m 1,0,-1
 484 607 l 2,1,2
 484 643 484 643 512 643 c 0,3,4
 536 643 536 643 536 607 c 2,5,-1
 536 27 l 2,6,7
 536 -7 536 -7 510 -7 c 128,-1,8
 484 -7 484 -7 484 28 c 2,9,-1
 484 63 l 1,10,11
 425 0 425 0 313 0 c 2,12,-1
 284 0 l 2,13,14
 169 0 169 0 115.5 35.5 c 128,-1,15
 62 71 62 71 62 176 c 2,16,-1
 62 285 l 2,17,18
 62 390 62 390 115.5 425.5 c 128,-1,19
 169 461 169 461 284 461 c 2,20,-1
 484 461 l 1,0,-1
484 409 m 1,21,-1
 284 409 l 2,22,23
 233 409 233 409 205.5 405.5 c 128,-1,24
 178 402 178 402 154.5 389.5 c 128,-1,25
 131 377 131 377 122.5 352 c 128,-1,26
 114 327 114 327 114 284 c 2,27,-1
 114 177 l 2,28,29
 114 134 114 134 122.5 109 c 128,-1,30
 131 84 131 84 154.5 71.5 c 128,-1,31
 178 59 178 59 205.5 55.5 c 128,-1,32
 233 52 233 52 284 52 c 2,33,-1
 313 52 l 2,34,35
 484 52 484 52 484 228 c 2,36,-1
 484 409 l 1,21,-1
EndSplineSet
EndChar

StartChar: e
Encoding: 101 101 72
Width: 592
GlyphClass: 2
Flags: W
AnchorPoint: "Anchor-1" 304 0 basechar 0
AnchorPoint: "Anchor-0" 304 510 basechar 0
LayerCount: 2
Fore
SplineSet
536 285 m 2,0,-1
 536 245 l 1,1,-1
 114 245 l 1,2,-1
 114 177 l 2,3,4
 114 134 114 134 122.5 109 c 128,-1,5
 131 84 131 84 155 71.5 c 128,-1,6
 179 59 179 59 206.5 55.5 c 128,-1,7
 234 52 234 52 285 52 c 2,8,-1
 419 52 l 2,9,10
 451 52 451 52 462.5 66 c 128,-1,11
 474 80 474 80 474 114 c 0,12,13
 474 147 474 147 500 147 c 128,-1,14
 526 147 526 147 526 111 c 0,15,16
 526 88 526 88 523 71 c 128,-1,17
 520 54 520 54 510.5 36.5 c 128,-1,18
 501 19 501 19 479.5 9.5 c 128,-1,19
 458 0 458 0 426 0 c 2,20,-1
 285 0 l 2,21,22
 170 0 170 0 116 35.5 c 128,-1,23
 62 71 62 71 62 176 c 2,24,-1
 62 285 l 2,25,26
 62 390 62 390 116 425.5 c 128,-1,27
 170 461 170 461 285 461 c 2,28,-1
 314 461 l 2,29,30
 429 461 429 461 482.5 425.5 c 128,-1,31
 536 390 536 390 536 285 c 2,0,-1
314 409 m 2,32,-1
 285 409 l 2,33,34
 188 409 188 409 151.5 388.5 c 128,-1,35
 115 368 115 368 114 297 c 1,36,-1
 484 297 l 1,37,38
 483 368 483 368 446.5 388.5 c 128,-1,39
 410 409 410 409 314 409 c 2,32,-1
EndSplineSet
EndChar

StartChar: f
Encoding: 102 102 73
Width: 323
GlyphClass: 2
Flags: W
AnchorPoint: "Anchor-1" 105 0 basechar 0
AnchorPoint: "Anchor-0" 276 678 basechar 0
LayerCount: 2
Fore
SplineSet
293 584 m 0,0,1
 246 584 246 584 220.5 580.5 c 128,-1,2
 195 577 195 577 172.5 565 c 128,-1,3
 150 553 150 553 141 528 c 128,-1,4
 132 503 132 503 132 461 c 1,5,-1
 270 461 l 2,6,7
 306 461 306 461 306 433 c 0,8,9
 306 409 306 409 270 409 c 2,10,-1
 132 409 l 1,11,-1
 132 28 l 2,12,13
 132 -7 132 -7 104 -7 c 0,14,15
 80 -7 80 -7 80 28 c 2,16,-1
 80 410 l 1,17,18
 49 412 49 412 49 437 c 0,19,20
 49 459 49 459 80 461 c 1,21,22
 81 516 81 516 95.5 552 c 128,-1,23
 110 588 110 588 140.5 606 c 128,-1,24
 171 624 171 624 205.5 630 c 128,-1,25
 240 636 240 636 293 636 c 0,26,27
 329 636 329 636 329 608 c 0,28,29
 329 584 329 584 293 584 c 0,0,1
EndSplineSet
EndChar

StartChar: g
Encoding: 103 103 74
Width: 611
GlyphClass: 2
Flags: W
AnchorPoint: "Anchor-1" 294 0 basechar 0
AnchorPoint: "Anchor-0" 294 510 basechar 0
LayerCount: 2
Fore
SplineSet
536 -87 m 2,0,1
 536 -152 536 -152 517 -178.5 c 128,-1,2
 498 -205 498 -205 445 -205 c 2,3,-1
 162 -205 l 2,4,5
 130 -205 130 -205 108.5 -195.5 c 128,-1,6
 87 -186 87 -186 77.5 -168 c 128,-1,7
 68 -150 68 -150 65 -133 c 128,-1,8
 62 -116 62 -116 62 -93 c 0,9,10
 62 -58 62 -58 88 -58 c 128,-1,11
 114 -58 114 -58 114 -91 c 0,12,13
 114 -126 114 -126 126 -139.5 c 128,-1,14
 138 -153 138 -153 169 -153 c 2,15,-1
 438 -153 l 2,16,17
 467 -153 467 -153 475.5 -143 c 128,-1,18
 484 -133 484 -133 484 -103 c 2,19,-1
 484 0 l 1,20,-1
 284 0 l 2,21,22
 169 0 169 0 115.5 35.5 c 128,-1,23
 62 71 62 71 62 176 c 2,24,-1
 62 285 l 2,25,26
 62 390 62 390 115.5 425.5 c 128,-1,27
 169 461 169 461 284 461 c 2,28,-1
 313 461 l 2,29,30
 425 461 425 461 484 398 c 1,31,-1
 484 433 l 2,32,33
 484 468 484 468 510 468 c 128,-1,34
 536 468 536 468 536 434 c 2,35,-1
 536 -87 l 2,0,1
484 52 m 1,36,-1
 484 233 l 2,37,38
 484 409 484 409 313 409 c 2,39,-1
 284 409 l 2,40,41
 233 409 233 409 205.5 405.5 c 128,-1,42
 178 402 178 402 154.5 389.5 c 128,-1,43
 131 377 131 377 122.5 352 c 128,-1,44
 114 327 114 327 114 284 c 2,45,-1
 114 177 l 2,46,47
 114 134 114 134 122.5 109 c 128,-1,48
 131 84 131 84 154.5 71.5 c 128,-1,49
 178 59 178 59 205.5 55.5 c 128,-1,50
 233 52 233 52 284 52 c 2,51,-1
 484 52 l 1,36,-1
EndSplineSet
EndChar

StartChar: h
Encoding: 104 104 75
Width: 619
GlyphClass: 2
Flags: W
AnchorPoint: "Anchor-1" 302 0 basechar 0
AnchorPoint: "Anchor-0" 317 510 basechar 0
LayerCount: 2
Fore
SplineSet
298 409 m 2,0,1
 213 409 213 409 170 363.5 c 128,-1,2
 127 318 127 318 127 231 c 2,3,-1
 127 27 l 2,4,5
 127 -7 127 -7 101 -7 c 128,-1,6
 75 -7 75 -7 75 27 c 2,7,-1
 75 607 l 2,8,9
 75 643 75 643 99 643 c 0,10,11
 127 643 127 643 127 607 c 2,12,-1
 127 398 l 1,13,14
 186 461 186 461 298 461 c 2,15,-1
 327 461 l 2,16,17
 442 461 442 461 495.5 425.5 c 128,-1,18
 549 390 549 390 549 285 c 2,19,-1
 549 27 l 2,20,21
 549 -7 549 -7 524 -7 c 0,22,23
 497 -7 497 -7 497 27 c 2,24,-1
 497 284 l 2,25,26
 497 327 497 327 488.5 352 c 128,-1,27
 480 377 480 377 456.5 389.5 c 128,-1,28
 433 402 433 402 405.5 405.5 c 128,-1,29
 378 409 378 409 327 409 c 2,30,-1
 298 409 l 2,0,1
EndSplineSet
EndChar

StartChar: i
Encoding: 105 105 76
Width: 200
GlyphClass: 2
Flags: W
AnchorPoint: "Anchor-1" 100 0 basechar 0
AnchorPoint: "Anchor-0" 100 678 basechar 0
LayerCount: 2
Fore
SplineSet
99 -12 m 0,0,1
 74 -12 74 -12 74 20 c 2,2,-1
 74 440 l 2,3,4
 74 473 74 473 100 473 c 128,-1,5
 126 473 126 473 126 440 c 2,6,-1
 126 20 l 2,7,8
 126 -12 126 -12 99 -12 c 0,0,1
100 642 m 0,9,10
 116 642 116 642 133.5 630 c 128,-1,11
 151 618 151 618 151 601 c 128,-1,12
 151 584 151 584 133.5 572 c 128,-1,13
 116 560 116 560 100 560 c 0,14,15
 83 560 83 560 66 572 c 128,-1,16
 49 584 49 584 49 601 c 128,-1,17
 49 618 49 618 66 630 c 128,-1,18
 83 642 83 642 100 642 c 0,9,10
EndSplineSet
EndChar

StartChar: j
Encoding: 106 106 77
Width: 202
GlyphClass: 2
Flags: W
AnchorPoint: "Anchor-1" 99 -175 basechar 0
AnchorPoint: "Anchor-0" 99 678 basechar 0
LayerCount: 2
Fore
SplineSet
99 642 m 0,0,1
 115 642 115 642 132.5 630 c 128,-1,2
 150 618 150 618 150 601 c 128,-1,3
 150 584 150 584 132.5 572 c 128,-1,4
 115 560 115 560 99 560 c 0,5,6
 82 560 82 560 65 572 c 128,-1,7
 48 584 48 584 48 601 c 128,-1,8
 48 618 48 618 65 630 c 128,-1,9
 82 642 82 642 99 642 c 0,0,1
127 0 m 2,10,11
 127 -56 127 -56 112.5 -91.5 c 128,-1,12
 98 -127 98 -127 67.5 -145 c 128,-1,13
 37 -163 37 -163 2 -169 c 128,-1,14
 -33 -175 -33 -175 -86 -175 c 0,15,16
 -122 -175 -122 -175 -122 -148 c 0,17,18
 -122 -123 -122 -123 -86 -123 c 0,19,20
 6 -123 6 -123 40.5 -101 c 128,-1,21
 75 -79 75 -79 75 0 c 2,22,-1
 75 432 l 2,23,24
 75 468 75 468 102 468 c 0,25,26
 127 468 127 468 127 432 c 2,27,-1
 127 0 l 2,10,11
EndSplineSet
EndChar

StartChar: k
Encoding: 107 107 78
Width: 454
GlyphClass: 2
Flags: W
AnchorPoint: "Anchor-1" 262 0 basechar 0
AnchorPoint: "Anchor-0" 262 510 basechar 0
LayerCount: 2
Fore
SplineSet
442 19 m 0,0,1
 442 10 442 10 435 2 c 128,-1,2
 428 -6 428 -6 418 -6 c 0,3,4
 407 -6 407 -6 393 6 c 1,5,-1
 156 235 l 1,6,-1
 127 206 l 1,7,-1
 127 25 l 2,8,9
 127 -7 127 -7 100 -7 c 0,10,11
 75 -7 75 -7 75 24 c 2,12,-1
 75 610 l 2,13,14
 75 643 75 643 101 643 c 128,-1,15
 127 643 127 643 127 610 c 2,16,-1
 127 269 l 1,17,-1
 321 454 l 2,18,19
 334 466 334 466 345 466 c 0,20,21
 354 466 354 466 362 458.5 c 128,-1,22
 370 451 370 451 370 440 c 128,-1,23
 370 429 370 429 358 417 c 2,24,-1
 192 265 l 1,25,-1
 431 43 l 1,26,27
 442 30 442 30 442 19 c 0,0,1
EndSplineSet
EndChar

StartChar: l
Encoding: 108 108 79
Width: 271
GlyphClass: 2
Flags: W
AnchorPoint: "Anchor-1" 177 0 basechar 0
AnchorPoint: "Anchor-0" 117 678 basechar 0
LayerCount: 2
Fore
SplineSet
197 0 m 2,0,-1
 190 0 l 2,1,2
 132 0 132 0 111 28.5 c 128,-1,3
 90 57 90 57 90 127 c 2,4,-1
 90 608 l 2,5,6
 90 643 90 643 116 643 c 128,-1,7
 142 643 142 643 142 608 c 2,8,-1
 142 110 l 2,9,10
 142 78 142 78 153.5 65 c 128,-1,11
 165 52 165 52 197 52 c 0,12,13
 232 52 232 52 232 25 c 0,14,15
 232 0 232 0 197 0 c 2,0,-1
EndSplineSet
EndChar

StartChar: m
Encoding: 109 109 80
Width: 830
GlyphClass: 2
Flags: W
AnchorPoint: "Anchor-1" 418 0 basechar 0
AnchorPoint: "Anchor-0" 418 510 basechar 0
LayerCount: 2
Fore
SplineSet
257 409 m 0,0,1
 195 409 195 409 160.5 363 c 128,-1,2
 126 317 126 317 126 231 c 2,3,-1
 126 27 l 2,4,5
 126 -7 126 -7 100 -7 c 128,-1,6
 74 -7 74 -7 74 27 c 2,7,-1
 74 433 l 2,8,9
 74 468 74 468 98 468 c 0,10,11
 126 468 126 468 126 432 c 2,12,-1
 126 398 l 1,13,14
 154 432 154 432 183 446.5 c 128,-1,15
 212 461 212 461 257 461 c 0,16,17
 325 461 325 461 367 444.5 c 128,-1,18
 409 428 409 428 428 381 c 1,19,20
 479 461 479 461 575 461 c 0,21,22
 667 461 667 461 713 425 c 128,-1,23
 759 389 759 389 759 285 c 2,24,-1
 759 27 l 2,25,26
 759 -7 759 -7 733 -7 c 128,-1,27
 707 -7 707 -7 707 27 c 2,28,-1
 707 284 l 2,29,30
 707 327 707 327 700.5 352 c 128,-1,31
 694 377 694 377 676 389.5 c 128,-1,32
 658 402 658 402 636.5 405.5 c 128,-1,33
 615 409 615 409 575 409 c 0,34,35
 512 409 512 409 477 363 c 128,-1,36
 442 317 442 317 442 231 c 2,37,-1
 442 27 l 2,38,39
 442 -7 442 -7 417 -7 c 0,40,41
 390 -7 390 -7 390 27 c 2,42,-1
 390 284 l 2,43,44
 390 365 390 365 362.5 387 c 128,-1,45
 335 409 335 409 257 409 c 0,0,1
EndSplineSet
EndChar

StartChar: n
Encoding: 110 110 81
Width: 617
GlyphClass: 2
Flags: W
AnchorPoint: "Anchor-1" 306 0 basechar 0
AnchorPoint: "Anchor-0" 311 510 basechar 0
LayerCount: 2
Fore
SplineSet
297 409 m 2,0,1
 212 409 212 409 169 363.5 c 128,-1,2
 126 318 126 318 126 231 c 2,3,-1
 126 27 l 2,4,5
 126 -7 126 -7 100 -7 c 128,-1,6
 74 -7 74 -7 74 27 c 2,7,-1
 74 433 l 2,8,9
 74 468 74 468 98 468 c 0,10,11
 126 468 126 468 126 432 c 2,12,-1
 126 398 l 1,13,14
 185 461 185 461 297 461 c 2,15,-1
 326 461 l 2,16,17
 441 461 441 461 494.5 425.5 c 128,-1,18
 548 390 548 390 548 285 c 2,19,-1
 548 27 l 2,20,21
 548 -7 548 -7 523 -7 c 0,22,23
 496 -7 496 -7 496 27 c 2,24,-1
 496 284 l 2,25,26
 496 327 496 327 487.5 352 c 128,-1,27
 479 377 479 377 455.5 389.5 c 128,-1,28
 432 402 432 402 404.5 405.5 c 128,-1,29
 377 409 377 409 326 409 c 2,30,-1
 297 409 l 2,0,1
EndSplineSet
EndChar

StartChar: o
Encoding: 111 111 82
Width: 598
GlyphClass: 2
Flags: W
AnchorPoint: "Anchor-1" 296 0 basechar 0
AnchorPoint: "Anchor-0" 296 510 basechar 0
LayerCount: 2
Fore
SplineSet
314 0 m 2,0,-1
 285 0 l 2,1,2
 170 0 170 0 116 35.5 c 128,-1,3
 62 71 62 71 62 176 c 2,4,-1
 62 285 l 2,5,6
 62 390 62 390 116 425.5 c 128,-1,7
 170 461 170 461 285 461 c 2,8,-1
 314 461 l 2,9,10
 429 461 429 461 482.5 425.5 c 128,-1,11
 536 390 536 390 536 285 c 2,12,-1
 536 176 l 2,13,14
 536 71 536 71 482.5 35.5 c 128,-1,15
 429 0 429 0 314 0 c 2,0,-1
285 52 m 2,16,-1
 314 52 l 2,17,18
 365 52 365 52 392.5 55.5 c 128,-1,19
 420 59 420 59 443.5 71.5 c 128,-1,20
 467 84 467 84 475.5 109 c 128,-1,21
 484 134 484 134 484 177 c 2,22,-1
 484 284 l 2,23,24
 484 327 484 327 475.5 352 c 128,-1,25
 467 377 467 377 443.5 389.5 c 128,-1,26
 420 402 420 402 392.5 405.5 c 128,-1,27
 365 409 365 409 314 409 c 2,28,-1
 285 409 l 2,29,30
 234 409 234 409 206.5 405.5 c 128,-1,31
 179 402 179 402 155 389.5 c 128,-1,32
 131 377 131 377 122.5 352 c 128,-1,33
 114 327 114 327 114 284 c 2,34,-1
 114 177 l 2,35,36
 114 134 114 134 122.5 109 c 128,-1,37
 131 84 131 84 155 71.5 c 128,-1,38
 179 59 179 59 206.5 55.5 c 128,-1,39
 234 52 234 52 285 52 c 2,16,-1
EndSplineSet
EndChar

StartChar: p
Encoding: 112 112 83
Width: 611
GlyphClass: 2
Flags: W
AnchorPoint: "Anchor-1" 309 0 basechar 0
AnchorPoint: "Anchor-0" 309 510 basechar 0
LayerCount: 2
Fore
SplineSet
497 284 m 2,0,1
 497 327 497 327 488.5 352 c 128,-1,2
 480 377 480 377 456.5 389.5 c 128,-1,3
 433 402 433 402 405.5 405.5 c 128,-1,4
 378 409 378 409 327 409 c 2,5,-1
 298 409 l 2,6,7
 127 409 127 409 127 232 c 2,8,-1
 127 52 l 1,9,-1
 328 52 l 2,10,11
 426 52 426 52 461.5 74 c 128,-1,12
 497 96 497 96 497 177 c 2,13,-1
 497 284 l 2,0,1
549 176 m 2,14,15
 549 71 549 71 495.5 35.5 c 128,-1,16
 442 0 442 0 328 0 c 2,17,-1
 127 0 l 1,18,-1
 127 -147 l 2,19,20
 127 -182 127 -182 99 -182 c 0,21,22
 75 -182 75 -182 75 -147 c 2,23,-1
 75 434 l 2,24,25
 75 468 75 468 101 468 c 128,-1,26
 127 468 127 468 127 433 c 2,27,-1
 127 398 l 1,28,29
 186 461 186 461 298 461 c 2,30,-1
 327 461 l 2,31,32
 442 461 442 461 495.5 425.5 c 128,-1,33
 549 390 549 390 549 285 c 2,34,-1
 549 176 l 2,14,15
EndSplineSet
EndChar

StartChar: q
Encoding: 113 113 84
Width: 611
GlyphClass: 2
Flags: W
AnchorPoint: "Anchor-1" 281 0 basechar 0
AnchorPoint: "Anchor-0" 281 510 basechar 0
LayerCount: 2
Fore
SplineSet
114 284 m 2,0,-1
 114 177 l 2,1,2
 114 134 114 134 122.5 109 c 128,-1,3
 131 84 131 84 154.5 71.5 c 128,-1,4
 178 59 178 59 205.5 55.5 c 128,-1,5
 233 52 233 52 284 52 c 2,6,-1
 484 52 l 1,7,-1
 484 232 l 2,8,9
 484 409 484 409 314 409 c 2,10,-1
 285 409 l 2,11,12
 234 409 234 409 206.5 405.5 c 128,-1,13
 179 402 179 402 155 389.5 c 128,-1,14
 131 377 131 377 122.5 352 c 128,-1,15
 114 327 114 327 114 284 c 2,0,-1
62 176 m 2,16,-1
 62 285 l 2,17,18
 62 390 62 390 116 425.5 c 128,-1,19
 170 461 170 461 285 461 c 2,20,-1
 314 461 l 2,21,22
 427 461 427 461 484 398 c 1,23,-1
 484 433 l 2,24,25
 484 468 484 468 510 468 c 128,-1,26
 536 468 536 468 536 434 c 2,27,-1
 536 -147 l 2,28,29
 536 -182 536 -182 512 -182 c 0,30,31
 484 -182 484 -182 484 -147 c 2,32,-1
 484 0 l 1,33,-1
 284 0 l 2,34,35
 169 0 169 0 115.5 35.5 c 128,-1,36
 62 71 62 71 62 176 c 2,16,-1
EndSplineSet
EndChar

StartChar: r
Encoding: 114 114 85
Width: 383
GlyphClass: 2
Flags: W
AnchorPoint: "Anchor-1" 208 0 basechar 0
AnchorPoint: "Anchor-0" 258 510 basechar 0
LayerCount: 2
Fore
SplineSet
287 409 m 2,0,1
 209 409 209 409 167.5 363 c 128,-1,2
 126 317 126 317 126 231 c 2,3,-1
 126 27 l 2,4,5
 126 -7 126 -7 100 -7 c 128,-1,6
 74 -7 74 -7 74 27 c 2,7,-1
 74 433 l 2,8,9
 74 468 74 468 98 468 c 0,10,11
 126 468 126 468 126 432 c 2,12,-1
 126 398 l 1,13,14
 185 461 185 461 287 461 c 2,15,-1
 333 461 l 2,16,17
 368 461 368 461 368 435 c 128,-1,18
 368 409 368 409 333 409 c 2,19,-1
 287 409 l 2,0,1
EndSplineSet
EndChar

StartChar: s
Encoding: 115 115 86
Width: 586
GlyphClass: 2
Flags: W
AnchorPoint: "Anchor-1" 284 0 basechar 0
AnchorPoint: "Anchor-0" 294 510 basechar 0
LayerCount: 2
Fore
SplineSet
160 0 m 2,0,1
 128 0 128 0 106.5 9.5 c 128,-1,2
 85 19 85 19 75.5 36.5 c 128,-1,3
 66 54 66 54 63 71 c 128,-1,4
 60 88 60 88 60 111 c 0,5,6
 60 147 60 147 86 147 c 128,-1,7
 112 147 112 147 112 114 c 0,8,9
 112 80 112 80 123.5 66 c 128,-1,10
 135 52 135 52 167 52 c 2,11,-1
 415 52 l 2,12,13
 474 52 474 52 474 126 c 0,14,15
 474 163 474 163 457.5 186.5 c 128,-1,16
 441 210 441 210 415 210 c 2,17,-1
 189 210 l 2,18,19
 60 210 60 210 60 340 c 0,20,21
 60 400 60 400 91 430.5 c 128,-1,22
 122 461 122 461 199 461 c 2,23,-1
 424 461 l 2,24,25
 456 461 456 461 477.5 451.5 c 128,-1,26
 499 442 499 442 508.5 424 c 128,-1,27
 518 406 518 406 521 389 c 128,-1,28
 524 372 524 372 524 349 c 0,29,30
 524 314 524 314 498 314 c 128,-1,31
 472 314 472 314 472 347 c 0,32,33
 472 382 472 382 460 395.5 c 128,-1,34
 448 409 448 409 417 409 c 2,35,-1
 171 409 l 2,36,37
 112 409 112 409 112 340 c 0,38,39
 112 302 112 302 128.5 282 c 128,-1,40
 145 262 145 262 171 262 c 2,41,-1
 398 262 l 2,42,43
 468 262 468 262 497 223 c 128,-1,44
 526 184 526 184 526 126 c 0,45,46
 526 64 526 64 494.5 32 c 128,-1,47
 463 0 463 0 388 0 c 2,48,-1
 160 0 l 2,0,1
EndSplineSet
EndChar

StartChar: t
Encoding: 116 116 87
Width: 344
GlyphClass: 2
Flags: W
AnchorPoint: "Anchor-1" 252 0 basechar 0
AnchorPoint: "Anchor-0" 215 510 basechar 0
LayerCount: 2
Fore
SplineSet
130 177 m 2,0,1
 130 96 130 96 164.5 74 c 128,-1,2
 199 52 199 52 291 52 c 0,3,4
 326 52 326 52 326 28 c 0,5,6
 326 0 326 0 291 0 c 0,7,8
 183 0 183 0 130.5 36 c 128,-1,9
 78 72 78 72 78 176 c 2,10,-1
 78 410 l 1,11,12
 47 412 47 412 47 437 c 0,13,14
 47 459 47 459 78 461 c 1,15,-1
 78 565 l 2,16,17
 78 601 78 601 102 601 c 0,18,19
 130 601 130 601 130 565 c 2,20,-1
 130 461 l 1,21,-1
 268 461 l 2,22,23
 304 461 304 461 304 433 c 0,24,25
 304 409 304 409 268 409 c 2,26,-1
 130 409 l 1,27,-1
 130 177 l 2,0,1
EndSplineSet
EndChar

StartChar: u
Encoding: 117 117 88
Width: 618
GlyphClass: 2
Flags: W
AnchorPoint: "Anchor-1" 304 0 basechar 0
AnchorPoint: "Anchor-0" 304 510 basechar 0
LayerCount: 2
Fore
SplineSet
321 52 m 2,0,1
 406 52 406 52 449 97.5 c 128,-1,2
 492 143 492 143 492 230 c 2,3,-1
 492 434 l 2,4,5
 492 468 492 468 518 468 c 128,-1,6
 544 468 544 468 544 434 c 2,7,-1
 544 28 l 2,8,9
 544 -7 544 -7 520 -7 c 0,10,11
 492 -7 492 -7 492 29 c 2,12,-1
 492 63 l 1,13,14
 433 0 433 0 321 0 c 2,15,-1
 292 0 l 2,16,17
 177 0 177 0 123.5 35.5 c 128,-1,18
 70 71 70 71 70 176 c 2,19,-1
 70 434 l 2,20,21
 70 468 70 468 95 468 c 0,22,23
 122 468 122 468 122 434 c 2,24,-1
 122 177 l 2,25,26
 122 134 122 134 130.5 109 c 128,-1,27
 139 84 139 84 162.5 71.5 c 128,-1,28
 186 59 186 59 213.5 55.5 c 128,-1,29
 241 52 241 52 292 52 c 2,30,-1
 321 52 l 2,0,1
EndSplineSet
EndChar

StartChar: v
Encoding: 118 118 89
Width: 509
GlyphClass: 2
Flags: W
AnchorPoint: "Anchor-1" 252 0 basechar 0
AnchorPoint: "Anchor-0" 252 510 basechar 0
LayerCount: 2
Fore
SplineSet
212 0 m 1,0,-1
 32 436 l 2,1,2
 28 445 28 445 28 452 c 0,3,4
 28 473 28 473 52 473 c 0,5,6
 70 473 70 473 80 451 c 2,7,-1
 252 51 l 1,8,-1
 430 452 l 2,9,10
 439 473 439 473 458 473 c 0,11,12
 482 473 482 473 482 453 c 0,13,14
 482 445 482 445 478 436 c 2,15,-1
 286 0 l 1,16,-1
 212 0 l 1,0,-1
EndSplineSet
EndChar

StartChar: w
Encoding: 119 119 90
Width: 792
GlyphClass: 2
Flags: W
AnchorPoint: "Anchor-1" 397 0 basechar 0
AnchorPoint: "Anchor-0" 397 510 basechar 0
LayerCount: 2
Fore
SplineSet
758 436 m 2,0,-1
 603 0 l 1,1,-1
 524 0 l 1,2,-1
 397 374 l 1,3,-1
 260 0 l 1,4,-1
 181 0 l 1,5,-1
 35 436 l 2,6,7
 31 448 31 448 31 454 c 0,8,9
 31 473 31 473 55 473 c 0,10,11
 75 473 75 473 83 451 c 2,12,-1
 223 48 l 1,13,-1
 369 446 l 2,14,15
 377 467 377 467 398 467 c 0,16,17
 418 467 418 467 425 446 c 2,18,-1
 565 48 l 1,19,-1
 710 451 l 2,20,21
 718 473 718 473 738 473 c 0,22,23
 762 473 762 473 762 454 c 0,24,25
 762 448 762 448 758 436 c 2,0,-1
EndSplineSet
EndChar

StartChar: x
Encoding: 120 120 91
Width: 512
GlyphClass: 2
Flags: W
AnchorPoint: "Anchor-1" 257 0 basechar 0
AnchorPoint: "Anchor-0" 257 510 basechar 0
LayerCount: 2
Fore
SplineSet
472 12 m 0,0,1
 472 2 472 2 464 -4.5 c 128,-1,2
 456 -11 456 -11 447 -11 c 0,3,4
 435 -11 435 -11 423 1 c 1,5,-1
 257 194 l 1,6,-1
 90 1 l 1,7,8
 76 -11 76 -11 65 -11 c 0,9,10
 56 -11 56 -11 48 -4.5 c 128,-1,11
 40 2 40 2 40 12 c 0,12,13
 40 16 40 16 50 36 c 1,14,-1
 221 230 l 1,15,-1
 50 425 l 2,16,17
 40 437 40 437 40 448 c 0,18,19
 40 458 40 458 48 465 c 128,-1,20
 56 472 56 472 65 472 c 0,21,22
 76 472 76 472 90 460 c 1,23,-1
 257 267 l 1,24,-1
 423 460 l 1,25,26
 435 472 435 472 447 472 c 0,27,28
 456 472 456 472 464 465 c 128,-1,29
 472 458 472 458 472 448 c 0,30,31
 472 437 472 437 462 425 c 2,32,-1
 291 230 l 1,33,-1
 462 36 l 1,34,35
 472 21 472 21 472 12 c 0,0,1
EndSplineSet
EndChar

StartChar: y
Encoding: 121 121 92
Width: 619
GlyphClass: 2
Flags: W
AnchorPoint: "Anchor-1" 307 0 basechar 0
AnchorPoint: "Anchor-0" 307 510 basechar 0
LayerCount: 2
Fore
SplineSet
544 -87 m 2,0,1
 544 -152 544 -152 525 -178.5 c 128,-1,2
 506 -205 506 -205 453 -205 c 2,3,-1
 170 -205 l 2,4,5
 138 -205 138 -205 116.5 -195.5 c 128,-1,6
 95 -186 95 -186 85.5 -168 c 128,-1,7
 76 -150 76 -150 73 -133 c 128,-1,8
 70 -116 70 -116 70 -93 c 0,9,10
 70 -58 70 -58 96 -58 c 128,-1,11
 122 -58 122 -58 122 -91 c 0,12,13
 122 -126 122 -126 134 -139.5 c 128,-1,14
 146 -153 146 -153 177 -153 c 2,15,-1
 446 -153 l 2,16,17
 475 -153 475 -153 483.5 -143 c 128,-1,18
 492 -133 492 -133 492 -103 c 2,19,-1
 492 63 l 1,20,21
 433 0 433 0 321 0 c 2,22,-1
 292 0 l 2,23,24
 177 0 177 0 123.5 35.5 c 128,-1,25
 70 71 70 71 70 176 c 2,26,-1
 70 434 l 2,27,28
 70 468 70 468 95 468 c 0,29,30
 122 468 122 468 122 434 c 2,31,-1
 122 177 l 2,32,33
 122 134 122 134 130.5 109 c 128,-1,34
 139 84 139 84 162.5 71.5 c 128,-1,35
 186 59 186 59 213.5 55.5 c 128,-1,36
 241 52 241 52 292 52 c 2,37,-1
 321 52 l 2,38,39
 406 52 406 52 449 97.5 c 128,-1,40
 492 143 492 143 492 230 c 2,41,-1
 492 434 l 2,42,43
 492 468 492 468 518 468 c 128,-1,44
 544 468 544 468 544 434 c 2,45,-1
 544 -87 l 2,0,1
EndSplineSet
EndChar

StartChar: z
Encoding: 122 122 93
Width: 552
GlyphClass: 2
Flags: W
AnchorPoint: "Anchor-1" 278 0 basechar 0
AnchorPoint: "Anchor-0" 278 510 basechar 0
LayerCount: 2
Fore
SplineSet
126 52 m 1,0,-1
 393 52 l 2,1,2
 429 52 429 52 439 70 c 128,-1,3
 449 88 449 88 449 129 c 0,4,5
 449 165 449 165 475 165 c 128,-1,6
 501 165 501 165 501 129 c 0,7,8
 501 59 501 59 480 29.5 c 128,-1,9
 459 0 459 0 401 0 c 2,10,-1
 59 0 l 1,11,-1
 59 64 l 1,12,-1
 416 409 l 1,13,-1
 166 409 l 2,14,15
 131 409 131 409 121 391 c 128,-1,16
 111 373 111 373 111 332 c 0,17,18
 111 296 111 296 84 296 c 0,19,20
 59 296 59 296 59 332 c 0,21,22
 59 403 59 403 80 432 c 128,-1,23
 101 461 101 461 159 461 c 2,24,-1
 480 461 l 1,25,-1
 480 394 l 1,26,-1
 126 52 l 1,0,-1
EndSplineSet
EndChar

StartChar: braceleft
Encoding: 123 123 94
Width: 262
GlyphClass: 2
Flags: W
LayerCount: 2
Fore
SplineSet
163 236 m 0,0,1
 163 210 163 210 149 164 c 128,-1,2
 135 118 135 118 135 108 c 0,3,4
 135 38 135 38 147.5 21.5 c 128,-1,5
 160 5 160 5 213 5 c 1,6,-1
 213 -47 l 1,7,8
 143 -47 143 -47 113 -17 c 128,-1,9
 83 13 83 13 83 108 c 0,10,11
 83 127 83 127 97 173 c 128,-1,12
 111 219 111 219 111 236 c 0,13,14
 111 258 111 258 85 280.5 c 128,-1,15
 59 303 59 303 38 313 c 1,16,-1
 38 321 l 1,17,18
 59 332 59 332 85 355 c 128,-1,19
 111 378 111 378 111 400 c 0,20,21
 111 417 111 417 97 463 c 128,-1,22
 83 509 83 509 83 528 c 0,23,24
 83 623 83 623 113 653 c 128,-1,25
 143 683 143 683 213 683 c 1,26,-1
 213 631 l 1,27,28
 161 631 161 631 148 614 c 128,-1,29
 135 597 135 597 135 528 c 0,30,31
 135 518 135 518 149 472 c 128,-1,32
 163 426 163 426 163 400 c 0,33,34
 163 360 163 360 92 317 c 1,35,36
 163 278 163 278 163 236 c 0,0,1
EndSplineSet
EndChar

StartChar: bar
Encoding: 124 124 95
Width: 214
GlyphClass: 2
Flags: W
LayerCount: 2
Fore
SplineSet
133 25 m 2,0,1
 133 -7 133 -7 106 -7 c 0,2,3
 81 -7 81 -7 81 25 c 2,4,-1
 81 610 l 2,5,6
 81 643 81 643 107 643 c 128,-1,7
 133 643 133 643 133 610 c 2,8,-1
 133 25 l 2,0,1
EndSplineSet
EndChar

StartChar: braceright
Encoding: 125 125 96
Width: 262
GlyphClass: 2
Flags: W
LayerCount: 2
Fore
SplineSet
99 236 m 0,0,1
 99 278 99 278 170 317 c 1,2,3
 99 360 99 360 99 400 c 0,4,5
 99 426 99 426 113 472 c 128,-1,6
 127 518 127 518 127 528 c 0,7,8
 127 597 127 597 114 614 c 128,-1,9
 101 631 101 631 49 631 c 1,10,-1
 49 683 l 1,11,12
 119 683 119 683 149 653 c 128,-1,13
 179 623 179 623 179 528 c 0,14,15
 179 509 179 509 165 463 c 128,-1,16
 151 417 151 417 151 400 c 0,17,18
 151 378 151 378 177 355 c 128,-1,19
 203 332 203 332 224 321 c 1,20,-1
 224 313 l 1,21,22
 203 303 203 303 177 280.5 c 128,-1,23
 151 258 151 258 151 236 c 0,24,25
 151 219 151 219 165 173 c 128,-1,26
 179 127 179 127 179 108 c 0,27,28
 179 13 179 13 149 -17 c 128,-1,29
 119 -47 119 -47 49 -47 c 1,30,-1
 49 5 l 1,31,32
 102 5 102 5 114.5 21.5 c 128,-1,33
 127 38 127 38 127 108 c 0,34,35
 127 118 127 118 113 164 c 128,-1,36
 99 210 99 210 99 236 c 0,0,1
EndSplineSet
EndChar

StartChar: asciitilde
Encoding: 126 126 97
Width: 425
GlyphClass: 2
Flags: W
LayerCount: 2
Fore
SplineSet
266 234 m 1,0,1
 269 234 269 234 274 238 c 2,2,-1
 305 266 l 1,3,4
 318 275 318 275 327 275 c 0,5,6
 337 275 337 275 345 269 c 128,-1,7
 353 263 353 263 353 252 c 0,8,9
 353 238 353 238 339 225 c 1,10,-1
 292 186 l 1,11,12
 284 178 284 178 273 178 c 0,13,14
 271 178 271 178 269 178.5 c 128,-1,15
 267 179 267 179 265.5 179 c 128,-1,16
 264 179 264 179 262 180 c 1,17,-1
 261 180 l 1,18,-1
 163 216 l 1,19,20
 161 218 161 218 157 218 c 0,21,22
 154 218 154 218 149 214 c 2,23,-1
 118 186 l 1,24,25
 105 177 105 177 96 177 c 128,-1,26
 87 177 87 177 79 183.5 c 128,-1,27
 71 190 71 190 71 201 c 0,28,29
 71 216 71 216 85 227 c 2,30,-1
 131 265 l 1,31,32
 138 274 138 274 150 274 c 0,33,34
 152 274 152 274 157 273 c 128,-1,35
 162 272 162 272 163 272 c 2,36,-1
 261 236 l 1,37,-1
 266 234 l 1,0,1
EndSplineSet
EndChar

StartChar: exclamdown
Encoding: 161 161 98
Width: 230
GlyphClass: 2
Flags: W
LayerCount: 2
Fore
SplineSet
114 -170 m 0,0,1
 89 -170 89 -170 89 -138 c 2,2,-1
 89 282 l 2,3,4
 89 315 89 315 115 315 c 128,-1,5
 141 315 141 315 141 282 c 2,6,-1
 141 -138 l 2,7,8
 141 -170 141 -170 114 -170 c 0,0,1
114 491 m 0,9,10
 132 491 132 491 149 479 c 128,-1,11
 166 467 166 467 166 450 c 128,-1,12
 166 433 166 433 148.5 421 c 128,-1,13
 131 409 131 409 114 409 c 0,14,15
 98 409 98 409 80.5 421 c 128,-1,16
 63 433 63 433 63 450 c 128,-1,17
 63 467 63 467 80.5 479 c 128,-1,18
 98 491 98 491 114 491 c 0,9,10
EndSplineSet
EndChar

StartChar: cent
Encoding: 162 162 99
Width: 478
GlyphClass: 2
Flags: W
LayerCount: 2
Fore
SplineSet
243 -12 m 0,0,1
 218 -12 218 -12 218 20 c 2,2,-1
 218 118 l 1,3,4
 133 123 133 123 91 162 c 128,-1,5
 49 201 49 201 49 298 c 2,6,-1
 49 340 l 2,7,8
 49 435 49 435 92 474.5 c 128,-1,9
 135 514 135 514 218 519 c 1,10,-1
 218 615 l 2,11,12
 218 648 218 648 245 648 c 0,13,14
 270 648 270 648 270 615 c 2,15,-1
 270 520 l 1,16,-1
 322 520 l 2,17,18
 354 520 354 520 375 510.5 c 128,-1,19
 396 501 396 501 405.5 483.5 c 128,-1,20
 415 466 415 466 418 449.5 c 128,-1,21
 421 433 421 433 421 409 c 0,22,23
 421 373 421 373 396 373 c 0,24,25
 369 373 369 373 369 407 c 0,26,27
 369 442 369 442 357.5 455 c 128,-1,28
 346 468 346 468 315 468 c 2,29,-1
 270 468 l 1,30,-1
 270 170 l 1,31,-1
 313 170 l 2,32,33
 344 170 344 170 356.5 183 c 128,-1,34
 369 196 369 196 369 231 c 0,35,36
 369 265 369 265 394 265 c 0,37,38
 421 265 421 265 421 229 c 0,39,40
 421 206 421 206 417.5 189 c 128,-1,41
 414 172 414 172 404.5 154.5 c 128,-1,42
 395 137 395 137 373.5 127.5 c 128,-1,43
 352 118 352 118 320 118 c 2,44,-1
 270 118 l 1,45,-1
 270 20 l 2,46,47
 270 -12 270 -12 243 -12 c 0,0,1
218 171 m 1,48,-1
 218 467 l 1,49,50
 155 464 155 464 128 437.5 c 128,-1,51
 101 411 101 411 101 340 c 2,52,-1
 101 298 l 2,53,54
 101 225 101 225 127 199.5 c 128,-1,55
 153 174 153 174 218 171 c 1,48,-1
EndSplineSet
EndChar

StartChar: sterling
Encoding: 163 163 100
Width: 501
GlyphClass: 2
Flags: W
LayerCount: 2
Fore
SplineSet
65 23 m 0,0,1
 65 29 65 29 66 32 c 2,2,-1
 104 468 l 2,3,4
 109 524 109 524 125.5 561.5 c 128,-1,5
 142 599 142 599 169.5 617 c 128,-1,6
 197 635 197 635 224.5 641.5 c 128,-1,7
 252 648 252 648 288 648 c 0,8,9
 359 648 359 648 400 617.5 c 128,-1,10
 441 587 441 587 441 501 c 0,11,12
 441 468 441 468 414 468 c 0,13,14
 389 468 389 468 389 501 c 0,15,16
 389 562 389 562 364 579 c 128,-1,17
 339 596 339 596 284 596 c 0,18,19
 225 596 225 596 194 572 c 128,-1,20
 163 548 163 548 156 468 c 2,21,-1
 147 369 l 1,22,-1
 181 369 l 2,23,24
 213 369 213 369 213 342 c 0,25,26
 213 317 213 317 181 317 c 2,27,-1
 143 317 l 1,28,-1
 119 47 l 1,29,-1
 410 47 l 2,30,31
 443 47 443 47 443 20 c 0,32,33
 443 -5 443 -5 410 -5 c 2,34,-1
 87 -5 l 2,35,36
 65 -5 65 -5 65 23 c 0,0,1
EndSplineSet
EndChar

StartChar: currency
Encoding: 164 164 101
Width: 495
GlyphClass: 2
Flags: W
LayerCount: 2
Fore
SplineSet
143 230 m 0,0,1
 143 187 143 187 174 156.5 c 128,-1,2
 205 126 205 126 248 126 c 128,-1,3
 291 126 291 126 321.5 156.5 c 128,-1,4
 352 187 352 187 352 230 c 128,-1,5
 352 273 352 273 321.5 304 c 128,-1,6
 291 335 291 335 248 335 c 0,7,8
 204 335 204 335 173.5 304.5 c 128,-1,9
 143 274 143 274 143 230 c 0,0,1
99 230 m 0,10,11
 99 278 99 278 125 315 c 1,12,-1
 80 360 l 1,13,14
 68 374 68 374 68 384 c 0,15,16
 68 393 68 393 76.5 401 c 128,-1,17
 85 409 85 409 93 409 c 0,18,19
 103 409 103 409 117 397 c 1,20,-1
 162 352 l 1,21,22
 200 379 200 379 248 379 c 128,-1,23
 296 379 296 379 333 352 c 1,24,-1
 377 397 l 2,25,26
 390 409 390 409 402 409 c 0,27,28
 410 409 410 409 418.5 402.5 c 128,-1,29
 427 396 427 396 427 385 c 0,30,31
 427 372 427 372 413 360 c 1,32,-1
 369 315 l 1,33,34
 396 279 396 279 396 230 c 0,35,36
 396 182 396 182 369 145 c 1,37,-1
 413 101 l 2,38,39
 427 87 427 87 427 77 c 0,40,41
 427 69 427 69 418.5 60 c 128,-1,42
 410 51 410 51 401 51 c 0,43,44
 390 51 390 51 377 65 c 2,45,-1
 333 109 l 1,46,47
 296 82 296 82 248 82 c 128,-1,48
 200 82 200 82 162 109 c 1,49,-1
 117 65 l 1,50,51
 105 51 105 51 92 51 c 0,52,53
 84 51 84 51 76 58 c 128,-1,54
 68 65 68 65 68 76 c 0,55,56
 68 88 68 88 80 101 c 2,57,-1
 125 146 l 1,58,59
 99 183 99 183 99 230 c 0,10,11
EndSplineSet
EndChar

StartChar: yen
Encoding: 165 165 102
Width: 538
GlyphClass: 2
Flags: W
LayerCount: 2
Fore
SplineSet
39 601 m 2,0,1
 31 613 31 613 31 623 c 0,2,3
 31 634 31 634 39 641 c 128,-1,4
 47 648 47 648 56 648 c 0,5,6
 67 648 67 648 81 630 c 1,7,-1
 269 363 l 1,8,-1
 456 630 l 2,9,10
 468 648 468 648 482 648 c 0,11,12
 490 648 490 648 498.5 640.5 c 128,-1,13
 507 633 507 633 507 623 c 128,-1,14
 507 613 507 613 499 601 c 2,15,-1
 295 308 l 1,16,-1
 295 277 l 1,17,-1
 389 277 l 2,18,19
 422 277 422 277 422 250 c 0,20,21
 422 225 422 225 389 225 c 2,22,-1
 295 225 l 1,23,-1
 295 188 l 1,24,-1
 389 188 l 2,25,26
 422 188 422 188 422 161 c 0,27,28
 422 136 422 136 389 136 c 2,29,-1
 295 136 l 1,30,-1
 295 20 l 2,31,32
 295 -12 295 -12 269 -12 c 0,33,34
 244 -12 244 -12 244 20 c 2,35,-1
 244 136 l 1,36,-1
 144 136 l 2,37,38
 112 136 112 136 112 163 c 0,39,40
 112 188 112 188 144 188 c 2,41,-1
 244 188 l 1,42,-1
 244 225 l 1,43,-1
 144 225 l 2,44,45
 112 225 112 225 112 252 c 0,46,47
 112 277 112 277 144 277 c 2,48,-1
 244 277 l 1,49,-1
 244 308 l 1,50,-1
 39 601 l 2,0,1
EndSplineSet
EndChar

StartChar: brokenbar
Encoding: 166 166 103
Width: 213
GlyphClass: 2
Flags: W
LayerCount: 2
Fore
SplineSet
107 648 m 0,0,1
 132 648 132 648 132 616 c 2,2,-1
 132 401 l 2,3,4
 132 368 132 368 105 368 c 0,5,6
 81 368 81 368 81 401 c 2,7,-1
 81 616 l 2,8,9
 81 648 81 648 107 648 c 0,0,1
107 268 m 0,10,11
 132 268 132 268 132 237 c 2,12,-1
 132 22 l 2,13,14
 132 -12 132 -12 105 -12 c 0,15,16
 81 -12 81 -12 81 22 c 2,17,-1
 81 237 l 2,18,19
 81 268 81 268 107 268 c 0,10,11
EndSplineSet
EndChar

StartChar: section
Encoding: 167 167 104
Width: 520
GlyphClass: 2
Flags: W
LayerCount: 2
Fore
SplineSet
399 194 m 1,0,1
 445 167 445 167 445 99 c 0,2,3
 445 -5 445 -5 340 -5 c 2,4,-1
 156 -5 l 2,5,6
 107 -5 107 -5 91 19.5 c 128,-1,7
 75 44 75 44 75 86 c 0,8,9
 75 116 75 116 102 116 c 0,10,11
 113 116 113 116 120 108 c 128,-1,12
 127 100 127 100 127 88 c 0,13,14
 127 62 127 62 134 54.5 c 128,-1,15
 141 47 141 47 167 47 c 2,16,-1
 351 47 l 2,17,18
 375 47 375 47 384 59 c 128,-1,19
 393 71 393 71 393 99 c 0,20,21
 393 164 393 164 354 169 c 2,22,-1
 179 194 l 2,23,24
 75 208 75 208 75 306 c 0,25,26
 75 377 75 377 121 400 c 1,27,28
 75 427 75 427 75 495 c 0,29,30
 75 599 75 599 180 599 c 2,31,-1
 365 599 l 2,32,33
 399 599 399 599 417.5 584.5 c 128,-1,34
 436 570 436 570 440.5 552.5 c 128,-1,35
 445 535 445 535 445 508 c 0,36,37
 445 478 445 478 419 478 c 0,38,39
 407 478 407 478 400 486 c 128,-1,40
 393 494 393 494 393 506 c 0,41,42
 393 532 393 532 386 539.5 c 128,-1,43
 379 547 379 547 353 547 c 2,44,-1
 169 547 l 2,45,46
 145 547 145 547 136 534.5 c 128,-1,47
 127 522 127 522 127 495 c 0,48,49
 127 430 127 430 166 425 c 2,50,-1
 341 400 l 2,51,52
 445 386 445 386 445 289 c 0,53,54
 445 217 445 217 399 194 c 1,0,1
127 306 m 0,55,56
 127 266 127 266 179.5 246 c 128,-1,57
 232 226 232 226 312 226 c 0,58,59
 364 226 364 226 378.5 236 c 128,-1,60
 393 246 393 246 393 289 c 0,61,62
 393 331 393 331 336.5 349.5 c 128,-1,63
 280 368 280 368 208 368 c 0,64,65
 156 368 156 368 141.5 358 c 128,-1,66
 127 348 127 348 127 306 c 0,55,56
EndSplineSet
EndChar

StartChar: dieresis
Encoding: 168 168 105
Width: 367
GlyphClass: 2
Flags: W
LayerCount: 2
Fore
SplineSet
111 671 m 0,0,1
 127 671 127 671 144.5 659 c 128,-1,2
 162 647 162 647 162 630 c 128,-1,3
 162 613 162 613 144.5 601 c 128,-1,4
 127 589 127 589 111 589 c 0,5,6
 94 589 94 589 77 601 c 128,-1,7
 60 613 60 613 60 630 c 128,-1,8
 60 647 60 647 77 659 c 128,-1,9
 94 671 94 671 111 671 c 0,0,1
257 671 m 0,10,11
 273 671 273 671 290.5 659 c 128,-1,12
 308 647 308 647 308 630 c 128,-1,13
 308 613 308 613 290.5 601 c 128,-1,14
 273 589 273 589 257 589 c 0,15,16
 240 589 240 589 223 601 c 128,-1,17
 206 613 206 613 206 630 c 128,-1,18
 206 647 206 647 223 659 c 128,-1,19
 240 671 240 671 257 671 c 0,10,11
EndSplineSet
EndChar

StartChar: copyright
Encoding: 169 169 106
Width: 612
GlyphClass: 2
Flags: W
LayerCount: 2
Fore
SplineSet
406 363 m 0,0,1
 406 346 406 346 385 346 c 0,2,3
 367 346 367 346 367 361 c 0,4,5
 367 372 367 372 363.5 376 c 128,-1,6
 360 380 360 380 349 380 c 2,7,-1
 301 380 l 2,8,9
 277 380 277 380 261.5 368.5 c 128,-1,10
 246 357 246 357 246 337 c 2,11,-1
 246 298 l 2,12,13
 246 278 246 278 261.5 266.5 c 128,-1,14
 277 255 277 255 301 255 c 2,15,-1
 349 255 l 2,16,17
 365 255 365 255 366.5 268.5 c 128,-1,18
 368 282 368 282 372 285 c 0,19,20
 377 289 377 289 385 289 c 128,-1,21
 393 289 393 289 399.5 284 c 128,-1,22
 406 279 406 279 406 272 c 0,23,24
 406 251 406 251 394 232.5 c 128,-1,25
 382 214 382 214 351 214 c 2,26,-1
 301 214 l 2,27,28
 262 214 262 214 234 235.5 c 128,-1,29
 206 257 206 257 206 298 c 2,30,-1
 206 337 l 2,31,32
 206 378 206 378 234 399.5 c 128,-1,33
 262 421 262 421 301 421 c 2,34,-1
 351 421 l 2,35,36
 381 421 381 421 393.5 403 c 128,-1,37
 406 385 406 385 406 363 c 0,0,1
292 82 m 2,38,39
 239 82 239 82 203.5 88.5 c 128,-1,40
 168 95 168 95 138 114 c 128,-1,41
 108 133 108 133 93.5 169.5 c 128,-1,42
 79 206 79 206 79 262 c 2,43,-1
 79 373 l 2,44,45
 79 429 79 429 93.5 465.5 c 128,-1,46
 108 502 108 502 138 521 c 128,-1,47
 168 540 168 540 203.5 546.5 c 128,-1,48
 239 553 239 553 292 553 c 2,49,-1
 321 553 l 2,50,51
 429 553 429 553 481 516.5 c 128,-1,52
 533 480 533 480 533 373 c 2,53,-1
 533 262 l 2,54,55
 533 155 533 155 481 118.5 c 128,-1,56
 429 82 429 82 321 82 c 2,57,-1
 292 82 l 2,38,39
292 134 m 2,58,-1
 321 134 l 2,59,60
 412 134 412 134 446.5 157 c 128,-1,61
 481 180 481 180 481 262 c 2,62,-1
 481 373 l 2,63,64
 481 455 481 455 446.5 478 c 128,-1,65
 412 501 412 501 321 501 c 2,66,-1
 292 501 l 2,67,68
 200 501 200 501 165.5 478 c 128,-1,69
 131 455 131 455 131 373 c 2,70,-1
 131 262 l 2,71,72
 131 180 131 180 165.5 157 c 128,-1,73
 200 134 200 134 292 134 c 2,58,-1
EndSplineSet
EndChar

StartChar: ordfeminine
Encoding: 170 170 107
Width: 380
GlyphClass: 2
Flags: W
LayerCount: 2
Fore
SplineSet
65 182 m 0,0,1
 65 204 65 204 91 204 c 2,2,-1
 287 204 l 2,3,4
 315 204 315 204 315 180 c 0,5,6
 315 159 315 159 287 159 c 2,7,-1
 91 159 l 2,8,9
 65 159 65 159 65 182 c 0,0,1
249 349 m 1,10,-1
 192 349 l 2,11,12
 157 349 157 349 144 341.5 c 128,-1,13
 131 334 131 334 131 309 c 0,14,15
 131 300 131 300 136.5 292.5 c 128,-1,16
 142 285 142 285 150 285 c 2,17,-1
 187 285 l 2,18,19
 246 285 246 285 249 349 c 1,10,-1
270 241 m 0,20,21
 249 241 249 241 249 258 c 2,22,-1
 249 270 l 1,23,24
 231 244 231 244 187 244 c 2,25,-1
 150 244 l 2,26,27
 124 244 124 244 107 264.5 c 128,-1,28
 90 285 90 285 90 311 c 0,29,30
 90 356 90 356 115 373 c 128,-1,31
 140 390 140 390 192 390 c 2,32,-1
 249 390 l 1,33,-1
 249 404 l 2,34,35
 249 416 249 416 244.5 420.5 c 128,-1,36
 240 425 240 425 229 425 c 2,37,-1
 150 425 l 2,38,39
 138 425 138 425 134.5 420.5 c 128,-1,40
 131 416 131 416 131 407.5 c 128,-1,41
 131 399 131 399 129 396 c 0,42,43
 122 387 122 387 111 387 c 0,44,45
 90 387 90 387 90 404 c 0,46,47
 90 430 90 430 106 448 c 128,-1,48
 122 466 122 466 147 466 c 2,49,-1
 232 466 l 2,50,51
 290 466 290 466 290 397 c 2,52,-1
 290 258 l 1,53,54
 288 241 288 241 270 241 c 0,20,21
EndSplineSet
EndChar

StartChar: guillemotleft
Encoding: 171 171 108
Width: 503
GlyphClass: 2
Flags: W
LayerCount: 2
Fore
SplineSet
208 358 m 2,0,-1
 390 527 l 2,1,2
 398 535 398 535 413 535 c 0,3,4
 433 535 433 535 433 515 c 0,5,6
 433 498 433 498 419 483 c 1,7,-1
 264 333 l 1,8,-1
 419 182 l 2,9,10
 433 167 433 167 433 150 c 0,11,12
 433 130 433 130 413 130 c 0,13,14
 397 130 397 130 390 137 c 2,15,-1
 208 306 l 1,16,17
 190 320 190 320 190 333 c 0,18,19
 190 342 190 342 208 358 c 2,0,-1
54 358 m 2,20,-1
 236 527 l 2,21,22
 244 535 244 535 259 535 c 0,23,24
 279 535 279 535 279 515 c 0,25,26
 279 498 279 498 265 483 c 1,27,-1
 110 333 l 1,28,-1
 265 182 l 2,29,30
 279 167 279 167 279 150 c 0,31,32
 279 130 279 130 259 130 c 0,33,34
 243 130 243 130 236 137 c 2,35,-1
 54 306 l 1,36,37
 36 320 36 320 36 333 c 0,38,39
 36 342 36 342 54 358 c 2,20,-1
EndSplineSet
EndChar

StartChar: logicalnot
Encoding: 172 172 109
Width: 522
GlyphClass: 2
Flags: W
LayerCount: 2
Fore
SplineSet
443 141 m 2,0,1
 443 108 443 108 415 108 c 0,2,3
 390 108 390 108 390 141 c 2,4,-1
 390 204 l 1,5,-1
 111 204 l 2,6,7
 80 204 80 204 80 231 c 0,8,9
 80 257 80 257 111 257 c 2,10,-1
 409 257 l 2,11,12
 443 257 443 257 443 225 c 2,13,-1
 443 141 l 2,0,1
EndSplineSet
EndChar

StartChar: uni00AD
Encoding: 173 173 110
Width: 456
GlyphClass: 2
Flags: W
LayerCount: 2
Fore
SplineSet
73 231 m 0,0,1
 73 257 73 257 104 257 c 2,2,-1
 349 257 l 2,3,4
 383 257 383 257 383 229 c 0,5,6
 383 218 383 218 373.5 211 c 128,-1,7
 364 204 364 204 349 204 c 2,8,-1
 104 204 l 2,9,10
 73 204 73 204 73 231 c 0,0,1
EndSplineSet
EndChar

StartChar: registered
Encoding: 174 174 111
Width: 612
GlyphClass: 2
Flags: W
LayerCount: 2
Fore
SplineSet
292 134 m 2,0,-1
 321 134 l 2,1,2
 412 134 412 134 446.5 157 c 128,-1,3
 481 180 481 180 481 262 c 2,4,-1
 481 373 l 2,5,6
 481 455 481 455 446.5 478 c 128,-1,7
 412 501 412 501 321 501 c 2,8,-1
 292 501 l 2,9,10
 200 501 200 501 165.5 478 c 128,-1,11
 131 455 131 455 131 373 c 2,12,-1
 131 262 l 2,13,14
 131 180 131 180 165.5 157 c 128,-1,15
 200 134 200 134 292 134 c 2,0,-1
292 82 m 2,16,17
 239 82 239 82 203.5 88.5 c 128,-1,18
 168 95 168 95 138 114 c 128,-1,19
 108 133 108 133 93.5 169.5 c 128,-1,20
 79 206 79 206 79 262 c 2,21,-1
 79 373 l 2,22,23
 79 429 79 429 93.5 465.5 c 128,-1,24
 108 502 108 502 138 521 c 128,-1,25
 168 540 168 540 203.5 546.5 c 128,-1,26
 239 553 239 553 292 553 c 2,27,-1
 321 553 l 2,28,29
 429 553 429 553 481 516.5 c 128,-1,30
 533 480 533 480 533 373 c 2,31,-1
 533 262 l 2,32,33
 533 155 533 155 481 118.5 c 128,-1,34
 429 82 429 82 321 82 c 2,35,-1
 292 82 l 2,16,17
417 217 m 0,36,37
 417 211 417 211 410.5 207 c 128,-1,38
 404 203 404 203 397 203 c 0,39,40
 388 203 388 203 382 207.5 c 128,-1,41
 376 212 376 212 376 216 c 0,42,43
 373 228 373 228 355 256 c 128,-1,44
 337 284 337 284 314 298 c 1,45,-1
 243 298 l 1,46,-1
 243 217 l 2,47,48
 243 203 243 203 222 203 c 0,49,50
 214 203 214 203 208 207 c 128,-1,51
 202 211 202 211 202 217 c 2,52,-1
 202 411 l 2,53,54
 202 417 202 417 208 421.5 c 128,-1,55
 214 426 214 426 221 426 c 2,56,-1
 305 426 l 2,57,58
 414 426 414 426 414 361 c 0,59,60
 414 341 414 341 401 324.5 c 128,-1,61
 388 308 388 308 366 301 c 1,62,63
 380 289 380 289 398.5 259.5 c 128,-1,64
 417 230 417 230 417 217 c 0,36,37
305 339 m 2,65,66
 344 339 344 339 358.5 343 c 128,-1,67
 373 347 373 347 373 361 c 0,68,69
 373 376 373 376 359 380.5 c 128,-1,70
 345 385 345 385 305 385 c 2,71,-1
 243 385 l 1,72,-1
 243 339 l 1,73,-1
 305 339 l 2,65,66
EndSplineSet
EndChar

StartChar: macron
Encoding: 175 175 112
Width: 429
GlyphClass: 2
Flags: W
LayerCount: 2
Fore
SplineSet
60 700 m 0,0,1
 60 726 60 726 91 726 c 2,2,-1
 336 726 l 2,3,4
 370 726 370 726 370 698 c 0,5,6
 370 687 370 687 360.5 680 c 128,-1,7
 351 673 351 673 336 673 c 2,8,-1
 91 673 l 2,9,10
 60 673 60 673 60 700 c 0,0,1
EndSplineSet
EndChar

StartChar: degree
Encoding: 176 176 113
Width: 403
GlyphClass: 2
Flags: W
LayerCount: 2
Fore
SplineSet
104 535 m 128,-1,1
 104 495 104 495 132.5 466 c 128,-1,2
 161 437 161 437 201 437 c 0,3,4
 242 437 242 437 270.5 465.5 c 128,-1,5
 299 494 299 494 299 535 c 0,6,7
 299 575 299 575 270 603.5 c 128,-1,8
 241 632 241 632 201 632 c 128,-1,9
 161 632 161 632 132.5 603.5 c 128,-1,0
 104 575 104 575 104 535 c 128,-1,1
201 683 m 128,-1,11
 262 683 262 683 306 639.5 c 128,-1,12
 350 596 350 596 350 535 c 128,-1,13
 350 474 350 474 306 430 c 128,-1,14
 262 386 262 386 201 386 c 128,-1,15
 140 386 140 386 96.5 430 c 128,-1,16
 53 474 53 474 53 535 c 128,-1,17
 53 596 53 596 96.5 639.5 c 128,-1,10
 140 683 140 683 201 683 c 128,-1,11
EndSplineSet
EndChar

StartChar: plusminus
Encoding: 177 177 114
Width: 579
GlyphClass: 2
Flags: W
LayerCount: 2
Fore
SplineSet
511 25 m 0,0,1
 511 14 511 14 501.5 7 c 128,-1,2
 492 0 492 0 477 0 c 2,3,-1
 99 0 l 2,4,5
 68 0 68 0 68 28 c 0,6,7
 68 53 68 53 99 53 c 2,8,-1
 477 53 l 2,9,10
 511 53 511 53 511 25 c 0,0,1
289 111 m 128,-1,12
 263 111 263 111 263 143 c 2,13,-1
 263 265 l 1,14,-1
 99 265 l 2,15,16
 68 265 68 265 68 293 c 0,17,18
 68 318 68 318 99 318 c 2,19,-1
 263 318 l 1,20,-1
 263 440 l 2,21,22
 263 473 263 473 290 473 c 0,23,24
 315 473 315 473 315 440 c 2,25,-1
 315 318 l 1,26,-1
 477 318 l 2,27,28
 511 318 511 318 511 291 c 0,29,30
 511 265 511 265 477 265 c 2,31,-1
 315 265 l 1,32,-1
 315 143 l 2,33,11
 315 111 315 111 289 111 c 128,-1,12
EndSplineSet
EndChar

StartChar: twosuperior
Encoding: 178 178 115
Width: 325
GlyphClass: 2
Flags: W
LayerCount: 2
Fore
SplineSet
280 477 m 0,0,1
 280 471 280 471 271.5 463.5 c 128,-1,2
 263 456 263 456 253 456 c 2,3,-1
 45 456 l 1,4,-1
 45 483 l 2,5,6
 45 519 45 519 65 547.5 c 128,-1,7
 85 576 85 576 113 593 c 128,-1,8
 141 610 141 610 169 624 c 128,-1,9
 197 638 197 638 217 652.5 c 128,-1,10
 237 667 237 667 237 682 c 0,11,12
 237 714 237 714 221 721.5 c 128,-1,13
 205 729 205 729 155 729 c 2,14,-1
 129 729 l 2,15,16
 91 729 91 729 91 703 c 0,17,18
 91 693 91 693 84 686.5 c 128,-1,19
 77 680 77 680 68 680 c 0,20,21
 60 680 60 680 52.5 686.5 c 128,-1,22
 45 693 45 693 45 703 c 0,23,24
 45 733 45 733 69 752.5 c 128,-1,25
 93 772 93 772 125 772 c 2,26,-1
 155 772 l 2,27,28
 186 772 186 772 205 769.5 c 128,-1,29
 224 767 224 767 243 758.5 c 128,-1,30
 262 750 262 750 271 731 c 128,-1,31
 280 712 280 712 280 682 c 0,32,33
 280 654 280 654 251.5 628.5 c 128,-1,34
 223 603 223 603 189 587.5 c 128,-1,35
 155 572 155 572 125 548.5 c 128,-1,36
 95 525 95 525 92 499 c 1,37,-1
 253 499 l 1,38,39
 264 498 264 498 272 491.5 c 128,-1,40
 280 485 280 485 280 477 c 0,0,1
EndSplineSet
EndChar

StartChar: threesuperior
Encoding: 179 179 116
Width: 295
GlyphClass: 2
Flags: W
LayerCount: 2
Fore
SplineSet
138 729 m 2,0,1
 115 729 115 729 96.5 721 c 128,-1,2
 78 713 78 713 78 701 c 0,3,4
 78 683 78 683 54 683 c 0,5,6
 32 683 32 683 32 703 c 0,7,8
 32 727 32 727 60.5 749.5 c 128,-1,9
 89 772 89 772 134 772 c 2,10,-1
 146 772 l 2,11,12
 205 772 205 772 230 751.5 c 128,-1,13
 255 731 255 731 255 684 c 0,14,15
 255 643 255 643 196 618 c 1,16,17
 219 608 219 608 237 587.5 c 128,-1,18
 255 567 255 567 255 540 c 0,19,20
 255 496 255 496 230 476 c 128,-1,21
 205 456 205 456 146 456 c 2,22,-1
 134 456 l 2,23,24
 89 456 89 456 60.5 478.5 c 128,-1,25
 32 501 32 501 32 525 c 0,26,27
 32 545 32 545 54 545 c 0,28,29
 78 545 78 545 78 527 c 0,30,31
 78 515 78 515 96.5 507 c 128,-1,32
 115 499 115 499 138 499 c 2,33,-1
 150 499 l 2,34,35
 190 499 190 499 201.5 509 c 128,-1,36
 213 519 213 519 213 541 c 0,37,38
 213 562 213 562 184.5 579 c 128,-1,39
 156 596 156 596 126 596 c 0,40,41
 114 596 114 596 108.5 603 c 128,-1,42
 103 610 103 610 103 618 c 0,43,44
 103 627 103 627 109.5 633 c 128,-1,45
 116 639 116 639 126 639 c 0,46,47
 156 639 156 639 184.5 653 c 128,-1,48
 213 667 213 667 213 687 c 0,49,50
 213 701 213 701 210 709 c 128,-1,51
 207 717 207 717 192.5 723 c 128,-1,52
 178 729 178 729 150 729 c 2,53,-1
 138 729 l 2,0,1
EndSplineSet
EndChar

StartChar: acute
Encoding: 180 180 117
Width: 212
GlyphClass: 2
Flags: W
LayerCount: 2
Fore
SplineSet
175 635 m 2,0,-1
 79 520 l 2,1,2
 66 505 66 505 54 505 c 0,3,4
 46 505 46 505 37.5 512.5 c 128,-1,5
 29 520 29 520 29 530 c 0,6,7
 29 542 29 542 38 553 c 2,8,-1
 134 668 l 1,9,10
 148 683 148 683 159 683 c 0,11,12
 168 683 168 683 176 675.5 c 128,-1,13
 184 668 184 668 184 657 c 128,-1,14
 184 646 184 646 175 635 c 2,0,-1
EndSplineSet
EndChar

StartChar: paragraph
Encoding: 182 182 119
Width: 467
GlyphClass: 2
Flags: W
LayerCount: 2
Fore
SplineSet
352 -12 m 0,0,1
 325 -12 325 -12 325 20 c 2,2,-1
 325 589 l 1,3,-1
 294 589 l 1,4,-1
 294 20 l 2,5,6
 294 -12 294 -12 269 -12 c 0,7,8
 242 -12 242 -12 242 20 c 2,9,-1
 242 332 l 1,10,-1
 205 332 l 2,11,12
 125 332 125 332 80 371.5 c 128,-1,13
 35 411 35 411 35 486 c 0,14,15
 35 575 35 575 88.5 608 c 128,-1,16
 142 641 142 641 247 641 c 2,17,-1
 377 641 l 1,18,-1
 377 20 l 2,19,20
 377 -12 377 -12 352 -12 c 0,0,1
EndSplineSet
EndChar

StartChar: periodcentered
Encoding: 183 183 120
Width: 242
GlyphClass: 2
Flags: W
LayerCount: 2
Fore
SplineSet
121 428 m 0,0,1
 137 428 137 428 154.5 416 c 128,-1,2
 172 404 172 404 172 387 c 128,-1,3
 172 370 172 370 154.5 358 c 128,-1,4
 137 346 137 346 121 346 c 0,5,6
 104 346 104 346 87 358 c 128,-1,7
 70 370 70 370 70 387 c 128,-1,8
 70 404 70 404 87 416 c 128,-1,9
 104 428 104 428 121 428 c 0,0,1
EndSplineSet
EndChar

StartChar: cedilla
Encoding: 184 184 121
Width: 242
GlyphClass: 2
Flags: W
LayerCount: 2
Fore
SplineSet
143 10 m 1,0,1
 143 -6 143 -6 154 -18.5 c 128,-1,2
 165 -31 165 -31 177.5 -38 c 128,-1,3
 190 -45 190 -45 201 -59.5 c 128,-1,4
 212 -74 212 -74 212 -94 c 0,5,6
 212 -130 212 -130 184 -152.5 c 128,-1,7
 156 -175 156 -175 116 -175 c 0,8,9
 91 -175 91 -175 64 -163 c 128,-1,10
 37 -151 37 -151 37 -125 c 0,11,12
 37 -107 37 -107 52 -107 c 0,13,14
 58 -107 58 -107 81 -116 c 128,-1,15
 104 -125 104 -125 118 -125 c 0,16,17
 160 -125 160 -125 160 -99 c 0,18,19
 160 -89 160 -89 149 -78.5 c 128,-1,20
 138 -68 138 -68 125.5 -59 c 128,-1,21
 113 -50 113 -50 102 -32 c 128,-1,22
 91 -14 91 -14 91 10 c 1,23,-1
 143 10 l 1,0,1
EndSplineSet
EndChar

StartChar: onesuperior
Encoding: 185 185 122
Width: 154
GlyphClass: 2
Flags: W
LayerCount: 2
Fore
SplineSet
37 685 m 1,0,1
 27 673 27 673 13 673 c 0,2,3
 4 673 4 673 -1.5 679 c 128,-1,4
 -7 685 -7 685 -7 692 c 0,5,6
 -7 704 -7 704 5 714 c 1,7,-1
 53 764 l 1,8,9
 66 775 66 775 76 775 c 0,10,11
 84 775 84 775 91.5 769.5 c 128,-1,12
 99 764 99 764 99 751 c 2,13,-1
 99 480 l 2,14,15
 99 453 99 453 77 453 c 128,-1,16
 55 453 55 453 55 480 c 2,17,-1
 55 703 l 1,18,-1
 37 685 l 1,0,1
EndSplineSet
EndChar

StartChar: ordmasculine
Encoding: 186 186 123
Width: 380
GlyphClass: 2
Flags: W
LayerCount: 2
Fore
SplineSet
185 285 m 2,0,-1
 194 285 l 2,1,2
 228 285 228 285 238.5 293 c 128,-1,3
 249 301 249 301 249 333 c 2,4,-1
 249 377 l 2,5,6
 249 409 249 409 238.5 417 c 128,-1,7
 228 425 228 425 194 425 c 2,8,-1
 185 425 l 2,9,10
 151 425 151 425 141 417 c 128,-1,11
 131 409 131 409 131 377 c 2,12,-1
 131 333 l 2,13,14
 131 301 131 301 141 293 c 128,-1,15
 151 285 151 285 185 285 c 2,0,-1
185 244 m 2,16,17
 131 244 131 244 110.5 262.5 c 128,-1,18
 90 281 90 281 90 333 c 2,19,-1
 90 377 l 2,20,21
 90 429 90 429 111 447.5 c 128,-1,22
 132 466 132 466 185 466 c 2,23,-1
 194 466 l 2,24,25
 248 466 248 466 269 447.5 c 128,-1,26
 290 429 290 429 290 377 c 2,27,-1
 290 333 l 2,28,29
 290 281 290 281 269 262.5 c 128,-1,30
 248 244 248 244 194 244 c 2,31,-1
 185 244 l 2,16,17
65 182 m 0,32,33
 65 204 65 204 91 204 c 2,34,-1
 287 204 l 2,35,36
 315 204 315 204 315 180 c 0,37,38
 315 159 315 159 287 159 c 2,39,-1
 91 159 l 2,40,41
 65 159 65 159 65 182 c 0,32,33
EndSplineSet
EndChar

StartChar: guillemotright
Encoding: 187 187 124
Width: 503
GlyphClass: 2
Flags: W
LayerCount: 2
Fore
SplineSet
449 358 m 2,0,1
 467 342 467 342 467 333 c 0,2,3
 467 320 467 320 449 306 c 1,4,-1
 267 137 l 2,5,6
 260 130 260 130 244 130 c 0,7,8
 224 130 224 130 224 150 c 0,9,10
 224 167 224 167 238 182 c 2,11,-1
 393 333 l 1,12,-1
 238 483 l 1,13,14
 224 498 224 498 224 515 c 0,15,16
 224 535 224 535 244 535 c 0,17,18
 259 535 259 535 267 527 c 2,19,-1
 449 358 l 2,0,1
295 358 m 2,20,21
 313 342 313 342 313 333 c 0,22,23
 313 320 313 320 295 306 c 1,24,-1
 113 137 l 2,25,26
 106 130 106 130 90 130 c 0,27,28
 70 130 70 130 70 150 c 0,29,30
 70 167 70 167 84 182 c 2,31,-1
 239 333 l 1,32,-1
 84 483 l 1,33,34
 70 498 70 498 70 515 c 0,35,36
 70 535 70 535 90 535 c 0,37,38
 105 535 105 535 113 527 c 2,39,-1
 295 358 l 2,20,21
EndSplineSet
EndChar

StartChar: onequarter
Encoding: 188 188 125
Width: 584
GlyphClass: 2
Flags: W
LayerCount: 2
Fore
SplineSet
133 551 m 1,0,1
 123 539 123 539 109 539 c 0,2,3
 100 539 100 539 94.5 545 c 128,-1,4
 89 551 89 551 89 558 c 0,5,6
 89 570 89 570 101 580 c 1,7,-1
 149 630 l 1,8,9
 162 641 162 641 172 641 c 0,10,11
 180 641 180 641 187.5 635.5 c 128,-1,12
 195 630 195 630 195 617 c 2,13,-1
 195 346 l 2,14,15
 195 319 195 319 173 319 c 128,-1,16
 151 319 151 319 151 346 c 2,17,-1
 151 569 l 1,18,-1
 133 551 l 1,0,1
509 519 m 0,19,20
 509 507 509 507 497 495 c 2,21,-1
 88 85 l 2,22,23
 75 73 75 73 63 73 c 0,24,25
 43 73 43 73 43 93 c 0,26,27
 43 105 43 105 55 118 c 2,28,-1
 465 527 l 2,29,30
 477 539 477 539 489 539 c 0,31,32
 509 539 509 539 509 519 c 0,19,20
470 95 m 1,33,-1
 470 18 l 2,34,35
 470 -9 470 -9 448 -9 c 128,-1,36
 426 -9 426 -9 426 18 c 2,37,-1
 426 95 l 1,38,-1
 294 95 l 1,39,-1
 294 147 l 1,40,-1
 416 310 l 1,41,-1
 470 310 l 1,42,-1
 470 138 l 1,43,-1
 514 138 l 2,44,45
 540 138 540 138 540 117 c 0,46,47
 540 95 540 95 514 95 c 2,48,-1
 470 95 l 1,33,-1
426 138 m 1,49,-1
 426 256 l 1,50,-1
 338 138 l 1,51,-1
 426 138 l 1,49,-1
EndSplineSet
EndChar

StartChar: onehalf
Encoding: 189 189 126
Width: 612
GlyphClass: 2
Flags: W
LayerCount: 2
Fore
SplineSet
506 519 m 0,0,1
 506 507 506 507 494 495 c 2,2,-1
 85 85 l 2,3,4
 72 73 72 73 60 73 c 0,5,6
 40 73 40 73 40 93 c 0,7,8
 40 105 40 105 52 118 c 2,9,-1
 462 527 l 2,10,11
 474 539 474 539 486 539 c 0,12,13
 506 539 506 539 506 519 c 0,0,1
559 15 m 0,14,15
 559 9 559 9 550.5 1.5 c 128,-1,16
 542 -6 542 -6 532 -6 c 2,17,-1
 324 -6 l 1,18,-1
 324 21 l 2,19,20
 324 57 324 57 344 85.5 c 128,-1,21
 364 114 364 114 392 131 c 128,-1,22
 420 148 420 148 448 162 c 128,-1,23
 476 176 476 176 496 190.5 c 128,-1,24
 516 205 516 205 516 220 c 0,25,26
 516 252 516 252 500 259.5 c 128,-1,27
 484 267 484 267 434 267 c 2,28,-1
 408 267 l 2,29,30
 370 267 370 267 370 241 c 0,31,32
 370 231 370 231 363 224.5 c 128,-1,33
 356 218 356 218 347 218 c 0,34,35
 339 218 339 218 331.5 224.5 c 128,-1,36
 324 231 324 231 324 241 c 0,37,38
 324 271 324 271 348 290.5 c 128,-1,39
 372 310 372 310 404 310 c 2,40,-1
 434 310 l 2,41,42
 465 310 465 310 484 307.5 c 128,-1,43
 503 305 503 305 522 296.5 c 128,-1,44
 541 288 541 288 550 269 c 128,-1,45
 559 250 559 250 559 220 c 0,46,47
 559 192 559 192 530.5 166.5 c 128,-1,48
 502 141 502 141 468 125.5 c 128,-1,49
 434 110 434 110 404 86.5 c 128,-1,50
 374 63 374 63 371 37 c 1,51,-1
 532 37 l 1,52,53
 543 36 543 36 551 29.5 c 128,-1,54
 559 23 559 23 559 15 c 0,14,15
141 551 m 1,55,56
 131 539 131 539 117 539 c 0,57,58
 108 539 108 539 102.5 545 c 128,-1,59
 97 551 97 551 97 558 c 0,60,61
 97 570 97 570 109 580 c 1,62,-1
 157 630 l 1,63,64
 170 641 170 641 180 641 c 0,65,66
 188 641 188 641 195.5 635.5 c 128,-1,67
 203 630 203 630 203 617 c 2,68,-1
 203 346 l 2,69,70
 203 319 203 319 181 319 c 128,-1,71
 159 319 159 319 159 346 c 2,72,-1
 159 569 l 1,73,-1
 141 551 l 1,55,56
EndSplineSet
EndChar

StartChar: threequarters
Encoding: 190 190 127
Width: 631
GlyphClass: 2
Flags: W
LayerCount: 2
Fore
SplineSet
516 95 m 1,0,-1
 516 18 l 2,1,2
 516 -9 516 -9 494 -9 c 128,-1,3
 472 -9 472 -9 472 18 c 2,4,-1
 472 95 l 1,5,-1
 340 95 l 1,6,-1
 340 147 l 1,7,-1
 462 310 l 1,8,-1
 516 310 l 1,9,-1
 516 138 l 1,10,-1
 560 138 l 2,11,12
 586 138 586 138 586 117 c 0,13,14
 586 95 586 95 560 95 c 2,15,-1
 516 95 l 1,0,-1
472 138 m 1,16,-1
 472 256 l 1,17,-1
 384 138 l 1,18,-1
 472 138 l 1,16,-1
560 519 m 0,19,20
 560 507 560 507 548 495 c 2,21,-1
 139 85 l 2,22,23
 126 73 126 73 114 73 c 0,24,25
 94 73 94 73 94 93 c 0,26,27
 94 105 94 105 106 118 c 2,28,-1
 516 527 l 2,29,30
 528 539 528 539 540 539 c 0,31,32
 560 539 560 539 560 519 c 0,19,20
169 598 m 2,33,34
 146 598 146 598 127.5 590 c 128,-1,35
 109 582 109 582 109 570 c 0,36,37
 109 552 109 552 85 552 c 0,38,39
 63 552 63 552 63 572 c 0,40,41
 63 596 63 596 91.5 618.5 c 128,-1,42
 120 641 120 641 165 641 c 2,43,-1
 177 641 l 2,44,45
 236 641 236 641 261 620.5 c 128,-1,46
 286 600 286 600 286 553 c 0,47,48
 286 512 286 512 227 487 c 1,49,50
 250 477 250 477 268 456.5 c 128,-1,51
 286 436 286 436 286 409 c 0,52,53
 286 365 286 365 261 345 c 128,-1,54
 236 325 236 325 177 325 c 2,55,-1
 165 325 l 2,56,57
 120 325 120 325 91.5 347.5 c 128,-1,58
 63 370 63 370 63 394 c 0,59,60
 63 414 63 414 85 414 c 0,61,62
 109 414 109 414 109 396 c 0,63,64
 109 384 109 384 127.5 376 c 128,-1,65
 146 368 146 368 169 368 c 2,66,-1
 181 368 l 2,67,68
 221 368 221 368 232.5 378 c 128,-1,69
 244 388 244 388 244 410 c 0,70,71
 244 431 244 431 215.5 448 c 128,-1,72
 187 465 187 465 157 465 c 0,73,74
 145 465 145 465 139.5 472 c 128,-1,75
 134 479 134 479 134 487 c 0,76,77
 134 496 134 496 140.5 502 c 128,-1,78
 147 508 147 508 157 508 c 0,79,80
 187 508 187 508 215.5 522 c 128,-1,81
 244 536 244 536 244 556 c 0,82,83
 244 570 244 570 241 578 c 128,-1,84
 238 586 238 586 223.5 592 c 128,-1,85
 209 598 209 598 181 598 c 2,86,-1
 169 598 l 2,33,34
EndSplineSet
EndChar

StartChar: questiondown
Encoding: 191 191 128
Width: 529
GlyphClass: 2
Flags: W
LayerCount: 2
Fore
SplineSet
282 409 m 0,0,1
 265 409 265 409 247.5 421 c 128,-1,2
 230 433 230 433 230 450 c 128,-1,3
 230 467 230 467 247 479 c 128,-1,4
 264 491 264 491 282 491 c 0,5,6
 298 491 298 491 315.5 479 c 128,-1,7
 333 467 333 467 333 450 c 128,-1,8
 333 433 333 433 315.5 421 c 128,-1,9
 298 409 298 409 282 409 c 0,0,1
255 285 m 2,10,11
 255 318 255 318 282 318 c 0,12,13
 307 318 307 318 307 285 c 2,14,-1
 307 141 l 1,15,-1
 150 98 l 2,16,17
 124 91 124 91 107 62.5 c 128,-1,18
 90 34 90 34 90 -5 c 0,19,20
 90 -47 90 -47 113.5 -82.5 c 128,-1,21
 137 -118 137 -118 187 -118 c 2,22,-1
 281 -118 l 2,23,24
 329 -118 329 -118 354.5 -114.5 c 128,-1,25
 380 -111 380 -111 402 -99 c 128,-1,26
 424 -87 424 -87 432.5 -61 c 128,-1,27
 441 -35 441 -35 441 8 c 0,28,29
 441 41 441 41 467 41 c 0,30,31
 494 41 494 41 494 8 c 0,32,33
 494 -48 494 -48 479.5 -84.5 c 128,-1,34
 465 -121 465 -121 434.5 -139 c 128,-1,35
 404 -157 404 -157 369 -163.5 c 128,-1,36
 334 -170 334 -170 281 -170 c 2,37,-1
 205 -170 l 2,38,39
 117 -170 117 -170 77.5 -121.5 c 128,-1,40
 38 -73 38 -73 38 -5 c 0,41,42
 38 62 38 62 67 99 c 128,-1,43
 96 136 96 136 166 155 c 2,44,-1
 255 180 l 1,45,-1
 255 285 l 2,10,11
EndSplineSet
EndChar

StartChar: AE
Encoding: 198 198 135
Width: 867
GlyphClass: 2
Flags: W
LayerCount: 2
Fore
SplineSet
452 332 m 1,0,-1
 452 52 l 1,1,-1
 785 52 l 2,2,3
 819 52 819 52 819 24 c 0,4,5
 819 0 819 0 785 0 c 2,6,-1
 424 0 l 2,7,8
 400 0 400 0 400 36 c 2,9,-1
 400 199 l 1,10,-1
 185 199 l 1,11,-1
 62 7 l 2,12,13
 47 -16 47 -16 29 -16 c 0,14,15
 9 -16 9 -16 9 2 c 0,16,17
 9 12 9 12 17 25 c 2,18,-1
 405 631 l 2,19,20
 412 641 412 641 424 641 c 2,21,-1
 785 641 l 2,22,23
 819 641 819 641 819 613 c 0,24,25
 819 589 819 589 785 589 c 2,26,-1
 452 589 l 1,27,-1
 452 384 l 1,28,-1
 666 384 l 2,29,30
 702 384 702 384 702 356 c 0,31,32
 702 332 702 332 666 332 c 2,33,-1
 452 332 l 1,0,-1
400 251 m 1,34,-1
 400 533 l 1,35,-1
 219 251 l 1,36,-1
 400 251 l 1,34,-1
EndSplineSet
EndChar

StartChar: Ccedilla
Encoding: 199 199 136
Width: 590
GlyphClass: 2
Flags: W
LayerCount: 2
Fore
SplineSet
283 0 m 1,0,1
 173 1 173 1 122 37.5 c 128,-1,2
 71 74 71 74 71 180 c 2,3,-1
 71 466 l 2,4,5
 71 574 71 574 124 610 c 128,-1,6
 177 646 177 646 288 646 c 2,7,-1
 435 646 l 2,8,9
 467 646 467 646 488.5 636.5 c 128,-1,10
 510 627 510 627 519.5 609.5 c 128,-1,11
 529 592 529 592 532 575 c 128,-1,12
 535 558 535 558 535 534 c 0,13,14
 535 499 535 499 509 499 c 128,-1,15
 483 499 483 499 483 532 c 0,16,17
 483 567 483 567 471 580.5 c 128,-1,18
 459 594 459 594 428 594 c 2,19,-1
 288 594 l 2,20,21
 240 594 240 594 213 590.5 c 128,-1,22
 186 587 186 587 163 574 c 128,-1,23
 140 561 140 561 131.5 535 c 128,-1,24
 123 509 123 509 123 466 c 2,25,-1
 123 180 l 2,26,27
 123 97 123 97 159 74.5 c 128,-1,28
 195 52 195 52 294 52 c 2,29,-1
 428 52 l 2,30,31
 460 52 460 52 471.5 66 c 128,-1,32
 483 80 483 80 483 114 c 0,33,34
 483 147 483 147 509 147 c 128,-1,35
 535 147 535 147 535 111 c 0,36,37
 535 88 535 88 532 71 c 128,-1,38
 529 54 529 54 519.5 36.5 c 128,-1,39
 510 19 510 19 488.5 9.5 c 128,-1,40
 467 0 467 0 435 0 c 2,41,-1
 336 0 l 1,42,43
 339 -13 339 -13 350.5 -23.5 c 128,-1,44
 362 -34 362 -34 373.5 -40.5 c 128,-1,45
 385 -47 385 -47 394.5 -61 c 128,-1,46
 404 -75 404 -75 404 -94 c 0,47,48
 404 -130 404 -130 376 -152.5 c 128,-1,49
 348 -175 348 -175 308 -175 c 0,50,51
 283 -175 283 -175 256 -163 c 128,-1,52
 229 -151 229 -151 229 -125 c 0,53,54
 229 -107 229 -107 244 -107 c 0,55,56
 250 -107 250 -107 273 -116 c 128,-1,57
 296 -125 296 -125 310 -125 c 0,58,59
 352 -125 352 -125 352 -99 c 0,60,61
 352 -88 352 -88 336 -75.5 c 128,-1,62
 320 -63 320 -63 303 -44.5 c 128,-1,63
 286 -26 286 -26 283 0 c 1,0,1
EndSplineSet
EndChar

StartChar: Eth
Encoding: 208 208 145
Width: 620
GlyphClass: 2
Flags: W
LayerCount: 2
Fore
SplineSet
496 180 m 2,0,-1
 496 456 l 2,1,2
 496 538 496 538 461 561 c 128,-1,3
 426 584 426 584 332 584 c 2,4,-1
 136 584 l 1,5,-1
 136 351 l 1,6,-1
 240 351 l 2,7,8
 274 351 274 351 274 324 c 0,9,10
 274 298 274 298 240 298 c 2,11,-1
 136 298 l 1,12,-1
 136 52 l 1,13,-1
 326 52 l 2,14,15
 424 52 424 52 460 74.5 c 128,-1,16
 496 97 496 97 496 180 c 2,0,-1
548 456 m 2,17,-1
 548 180 l 2,18,19
 548 72 548 72 494.5 36 c 128,-1,20
 441 0 441 0 326 0 c 2,21,-1
 108 0 l 2,22,23
 84 0 84 0 84 36 c 2,24,-1
 84 298 l 1,25,26
 52 298 52 298 52 326 c 0,27,28
 52 351 52 351 84 351 c 1,29,-1
 84 600 l 2,30,31
 84 636 84 636 108 636 c 2,32,-1
 332 636 l 2,33,34
 386 636 386 636 422 629.5 c 128,-1,35
 458 623 458 623 488.5 604 c 128,-1,36
 519 585 519 585 533.5 548.5 c 128,-1,37
 548 512 548 512 548 456 c 2,17,-1
EndSplineSet
EndChar

StartChar: multiply
Encoding: 215 215 152
Width: 493
GlyphClass: 2
Flags: W
LayerCount: 2
Fore
SplineSet
71 382 m 0,0,1
 71 391 71 391 78 398.5 c 128,-1,2
 85 406 85 406 95 406 c 0,3,4
 107 406 107 406 119 394 c 2,5,-1
 246 266 l 1,6,-1
 374 393 l 2,7,8
 386 405 386 405 398 405 c 0,9,10
 407 405 407 405 414.5 398 c 128,-1,11
 422 391 422 391 422 381 c 0,12,13
 422 369 422 369 410 357 c 2,14,-1
 282 230 l 1,15,-1
 409 102 l 1,16,17
 422 91 422 91 422 78 c 0,18,19
 422 69 422 69 414.5 61.5 c 128,-1,20
 407 54 407 54 397 54 c 0,21,22
 385 54 385 54 373 66 c 2,23,-1
 246 194 l 1,24,-1
 118 67 l 1,25,26
 107 54 107 54 94 54 c 0,27,28
 85 54 85 54 77.5 61.5 c 128,-1,29
 70 69 70 69 70 79 c 0,30,31
 70 91 70 91 82 103 c 2,32,-1
 210 230 l 1,33,-1
 83 358 l 2,34,35
 71 370 71 370 71 382 c 0,0,1
EndSplineSet
EndChar

StartChar: Oslash
Encoding: 216 216 153
Width: 594
GlyphClass: 2
Flags: W
AnchorPoint: "Anchor-1" 298 0 basechar 0
AnchorPoint: "Anchor-0" 297 678 basechar 0
LayerCount: 2
Fore
SplineSet
297 593 m 0,0,1
 211 593 211 593 164 543 c 128,-1,2
 117 493 117 493 117 404 c 2,3,-1
 117 222 l 2,4,5
 117 152 117 152 145 108 c 1,6,-1
 415 558 l 1,7,8
 368 593 368 593 297 593 c 0,0,1
475 638 m 0,9,10
 482 638 482 638 491.5 632 c 128,-1,11
 501 626 501 626 501 613 c 0,12,13
 501 605 501 605 495 593 c 1,14,-1
 478 566 l 1,15,16
 529 504 529 504 529 408 c 2,17,-1
 529 228 l 2,18,19
 529 118 529 118 464 54.5 c 128,-1,20
 399 -9 399 -9 297 -9 c 0,21,22
 212 -9 212 -9 156 33 c 1,23,-1
 146 17 l 1,24,25
 136 -2 136 -2 120 -2 c 0,26,27
 113 -2 113 -2 104 4 c 128,-1,28
 95 10 95 10 95 22 c 0,29,30
 95 31 95 31 101 43 c 1,31,-1
 116 68 l 1,32,33
 65 130 65 130 65 228 c 2,34,-1
 65 408 l 2,35,36
 65 519 65 519 130 582 c 128,-1,37
 195 645 195 645 297 645 c 0,38,39
 384 645 384 645 440 602 c 1,40,-1
 450 619 l 1,41,42
 459 638 459 638 475 638 c 0,9,10
477 414 m 2,43,44
 477 482 477 482 450 526 c 1,45,-1
 180 77 l 1,46,47
 226 43 226 43 297 43 c 0,48,49
 383 43 383 43 430 92.5 c 128,-1,50
 477 142 477 142 477 232 c 2,51,-1
 477 414 l 2,43,44
EndSplineSet
EndChar

StartChar: Thorn
Encoding: 222 222 159
Width: 520
GlyphClass: 2
Flags: W
LayerCount: 2
Fore
SplineSet
136 466 m 1,0,-1
 311 466 l 2,1,2
 393 466 393 466 439 427 c 128,-1,3
 485 388 485 388 485 313 c 128,-1,4
 485 238 485 238 438.5 198.5 c 128,-1,5
 392 159 392 159 310 159 c 2,6,-1
 136 159 l 1,7,-1
 136 25 l 2,8,9
 136 -7 136 -7 109 -7 c 0,10,11
 84 -7 84 -7 84 25 c 2,12,-1
 84 573 l 2,13,14
 84 606 84 606 110 606 c 128,-1,15
 136 606 136 606 136 573 c 2,16,-1
 136 466 l 1,0,-1
266 414 m 2,17,-1
 136 414 l 1,18,-1
 136 208 l 1,19,-1
 265 208 l 2,20,21
 359 208 359 208 395.5 227.5 c 128,-1,22
 432 247 432 247 432 311 c 0,23,24
 432 373 432 373 395.5 393.5 c 128,-1,25
 359 414 359 414 266 414 c 2,17,-1
EndSplineSet
EndChar

StartChar: germandbls
Encoding: 223 223 160
Width: 464
GlyphClass: 2
Flags: W
LayerCount: 2
Fore
SplineSet
163 353 m 1,0,-1
 163 404 l 1,1,2
 207 404 207 404 237.5 415.5 c 128,-1,3
 268 427 268 427 281.5 446 c 128,-1,4
 295 465 295 465 300.5 483 c 128,-1,5
 306 501 306 501 306 522 c 0,6,7
 306 550 306 550 284.5 567 c 128,-1,8
 263 584 263 584 225 584 c 0,9,10
 167 584 167 584 141 561.5 c 128,-1,11
 115 539 115 539 115 461 c 2,12,-1
 115 29 l 2,13,14
 115 -7 115 -7 87 -7 c 0,15,16
 63 -7 63 -7 63 29 c 2,17,-1
 63 410 l 1,18,19
 32 412 32 412 32 437 c 0,20,21
 32 459 32 459 63 461 c 1,22,23
 64 515 64 515 78 551.5 c 128,-1,24
 92 588 92 588 117 605.5 c 128,-1,25
 142 623 142 623 167 629.5 c 128,-1,26
 192 636 192 636 225 636 c 0,27,28
 289 636 289 636 323.5 601.5 c 128,-1,29
 358 567 358 567 358 520 c 0,30,31
 358 431 358 431 284 383 c 1,32,33
 426 342 426 342 426 196 c 0,34,35
 426 79 426 79 381.5 29.5 c 128,-1,36
 337 -20 337 -20 275 -20 c 0,37,38
 231 -20 231 -20 191.5 9 c 128,-1,39
 152 38 152 38 152 91 c 0,40,41
 152 127 152 127 180 127 c 128,-1,42
 208 127 208 127 208 93 c 0,43,44
 208 60 208 60 231 46 c 128,-1,45
 254 32 254 32 284 32 c 0,46,47
 320 32 320 32 347 67.5 c 128,-1,48
 374 103 374 103 374 197 c 0,49,50
 374 223 374 223 365 248 c 128,-1,51
 356 273 356 273 334.5 298 c 128,-1,52
 313 323 313 323 269 338 c 128,-1,53
 225 353 225 353 163 353 c 1,0,-1
EndSplineSet
EndChar

StartChar: ae
Encoding: 230 230 167
Width: 944
GlyphClass: 2
Flags: W
LayerCount: 2
Fore
SplineSet
283 243 m 2,0,1
 232 243 232 243 204.5 239.5 c 128,-1,2
 177 236 177 236 153 223.5 c 128,-1,3
 129 211 129 211 120.5 186 c 128,-1,4
 112 161 112 161 112 118 c 0,5,6
 112 92 112 92 129 72 c 128,-1,7
 146 52 146 52 167 52 c 2,8,-1
 260 52 l 2,9,10
 344 52 344 52 387 97.5 c 128,-1,11
 430 143 430 143 430 228 c 2,12,-1
 430 243 l 1,13,-1
 283 243 l 2,0,1
662 409 m 2,14,-1
 654 409 l 2,15,16
 558 409 558 409 521 388 c 128,-1,17
 484 367 484 367 483 295 c 1,18,-1
 832 295 l 1,19,20
 831 367 831 367 794 388 c 128,-1,21
 757 409 757 409 662 409 c 2,14,-1
884 285 m 2,22,-1
 884 243 l 1,23,-1
 483 243 l 1,24,-1
 483 177 l 2,25,26
 483 134 483 134 491.5 109 c 128,-1,27
 500 84 500 84 524 71.5 c 128,-1,28
 548 59 548 59 575.5 55.5 c 128,-1,29
 603 52 603 52 654 52 c 2,30,-1
 777 52 l 2,31,32
 809 52 809 52 820.5 66 c 128,-1,33
 832 80 832 80 832 114 c 0,34,35
 832 147 832 147 858 147 c 128,-1,36
 884 147 884 147 884 111 c 0,37,38
 884 88 884 88 881 71 c 128,-1,39
 878 54 878 54 868.5 36.5 c 128,-1,40
 859 19 859 19 837.5 9.5 c 128,-1,41
 816 0 816 0 784 0 c 2,42,-1
 654 0 l 2,43,44
 571 0 571 0 521.5 16.5 c 128,-1,45
 472 33 472 33 449 78 c 1,46,47
 422 42 422 42 366 21 c 128,-1,48
 310 0 310 0 260 0 c 2,49,-1
 167 0 l 2,50,51
 120 0 120 0 90 33.5 c 128,-1,52
 60 67 60 67 60 123 c 0,53,54
 60 224 60 224 114.5 259.5 c 128,-1,55
 169 295 169 295 283 295 c 2,56,-1
 430 295 l 1,57,-1
 430 352 l 2,58,59
 430 383 430 383 418.5 396 c 128,-1,60
 407 409 407 409 375 409 c 2,61,-1
 234 409 l 2,62,63
 112 409 112 409 112 349 c 0,64,65
 112 314 112 314 85 314 c 0,66,67
 60 314 60 314 60 349 c 0,68,69
 60 407 60 407 106 434 c 128,-1,70
 152 461 152 461 227 461 c 2,71,-1
 382 461 l 2,72,73
 453 461 453 461 472 414 c 1,74,75
 518 461 518 461 654 461 c 2,76,-1
 662 461 l 2,77,78
 777 461 777 461 830.5 425.5 c 128,-1,79
 884 390 884 390 884 285 c 2,22,-1
EndSplineSet
EndChar

StartChar: ccedilla
Encoding: 231 231 168
Width: 584
GlyphClass: 2
Flags: W
LayerCount: 2
Fore
SplineSet
268 0 m 1,0,1
 162 2 162 2 112 38.5 c 128,-1,2
 62 75 62 75 62 176 c 2,3,-1
 62 285 l 2,4,5
 62 390 62 390 116 425.5 c 128,-1,6
 170 461 170 461 285 461 c 2,7,-1
 426 461 l 2,8,9
 458 461 458 461 479.5 451.5 c 128,-1,10
 501 442 501 442 510.5 424 c 128,-1,11
 520 406 520 406 523 389 c 128,-1,12
 526 372 526 372 526 349 c 0,13,14
 526 314 526 314 500 314 c 128,-1,15
 474 314 474 314 474 347 c 0,16,17
 474 382 474 382 462 395.5 c 128,-1,18
 450 409 450 409 419 409 c 2,19,-1
 285 409 l 2,20,21
 234 409 234 409 206.5 405.5 c 128,-1,22
 179 402 179 402 155 389.5 c 128,-1,23
 131 377 131 377 122.5 352 c 128,-1,24
 114 327 114 327 114 284 c 2,25,-1
 114 177 l 2,26,27
 114 134 114 134 122.5 109 c 128,-1,28
 131 84 131 84 155 71.5 c 128,-1,29
 179 59 179 59 206.5 55.5 c 128,-1,30
 234 52 234 52 285 52 c 2,31,-1
 419 52 l 2,32,33
 451 52 451 52 462.5 66 c 128,-1,34
 474 80 474 80 474 114 c 0,35,36
 474 147 474 147 500 147 c 128,-1,37
 526 147 526 147 526 111 c 0,38,39
 526 88 526 88 523 71 c 128,-1,40
 520 54 520 54 510.5 36.5 c 128,-1,41
 501 19 501 19 479.5 9.5 c 128,-1,42
 458 0 458 0 426 0 c 2,43,-1
 321 0 l 1,44,45
 324 -13 324 -13 335.5 -23.5 c 128,-1,46
 347 -34 347 -34 358.5 -40.5 c 128,-1,47
 370 -47 370 -47 379.5 -61 c 128,-1,48
 389 -75 389 -75 389 -94 c 0,49,50
 389 -130 389 -130 361 -152.5 c 128,-1,51
 333 -175 333 -175 293 -175 c 0,52,53
 268 -175 268 -175 241 -163 c 128,-1,54
 214 -151 214 -151 214 -125 c 0,55,56
 214 -107 214 -107 229 -107 c 0,57,58
 235 -107 235 -107 258 -116 c 128,-1,59
 281 -125 281 -125 295 -125 c 0,60,61
 337 -125 337 -125 337 -99 c 0,62,63
 337 -88 337 -88 321 -75.5 c 128,-1,64
 305 -63 305 -63 288 -44.5 c 128,-1,65
 271 -26 271 -26 268 0 c 1,0,1
EndSplineSet
EndChar

StartChar: eth
Encoding: 240 240 177
Width: 566
GlyphClass: 2
Flags: W
LayerCount: 2
Fore
SplineSet
153 583 m 0,0,1
 122 583 122 583 122 608 c 0,2,3
 122 636 122 636 153 636 c 0,4,5
 224 636 224 636 288 610 c 1,6,-1
 321 642 l 1,7,8
 335 654 335 654 347 654 c 0,9,10
 356 654 356 654 364.5 647 c 128,-1,11
 373 640 373 640 373 630 c 0,12,13
 373 618 373 618 360 605 c 2,14,-1
 339 585 l 1,15,16
 511 479 511 479 511 222 c 0,17,18
 511 124 511 124 453 54 c 128,-1,19
 395 -16 395 -16 295 -16 c 0,20,21
 185 -16 185 -16 116 47 c 128,-1,22
 47 110 47 110 47 220 c 0,23,24
 47 331 47 331 116 393.5 c 128,-1,25
 185 456 185 456 295 456 c 0,26,27
 371 456 371 456 421 417 c 1,28,29
 380 504 380 504 299 546 c 1,30,-1
 249 499 l 2,31,32
 237 487 237 487 225 487 c 0,33,34
 216 487 216 487 206.5 494.5 c 128,-1,35
 197 502 197 502 197 512 c 128,-1,36
 197 522 197 522 211 536 c 2,37,-1
 245 568 l 1,38,39
 201 583 201 583 153 583 c 0,0,1
459 221 m 0,40,41
 459 297 459 297 418 350.5 c 128,-1,42
 377 404 377 404 295 404 c 0,43,44
 205 404 205 404 152 352.5 c 128,-1,45
 99 301 99 301 99 220 c 128,-1,46
 99 139 99 139 152 87.5 c 128,-1,47
 205 36 205 36 295 36 c 0,48,49
 375 36 375 36 417 94 c 128,-1,50
 459 152 459 152 459 221 c 0,40,41
EndSplineSet
EndChar

StartChar: divide
Encoding: 247 247 184
Width: 439
GlyphClass: 2
Flags: W
LayerCount: 2
Fore
SplineSet
64 231 m 0,0,1
 64 257 64 257 95 257 c 2,2,-1
 340 257 l 2,3,4
 374 257 374 257 374 229 c 0,5,6
 374 218 374 218 364.5 211 c 128,-1,7
 355 204 355 204 340 204 c 2,8,-1
 95 204 l 2,9,10
 64 204 64 204 64 231 c 0,0,1
215 169 m 0,11,12
 231 169 231 169 248.5 157 c 128,-1,13
 266 145 266 145 266 128 c 128,-1,14
 266 111 266 111 248.5 99 c 128,-1,15
 231 87 231 87 215 87 c 0,16,17
 198 87 198 87 181 99 c 128,-1,18
 164 111 164 111 164 128 c 128,-1,19
 164 145 164 145 181 157 c 128,-1,20
 198 169 198 169 215 169 c 0,11,12
215 374 m 0,21,22
 231 374 231 374 248.5 362 c 128,-1,23
 266 350 266 350 266 333 c 128,-1,24
 266 316 266 316 248.5 304 c 128,-1,25
 231 292 231 292 215 292 c 0,26,27
 198 292 198 292 181 304 c 128,-1,28
 164 316 164 316 164 333 c 128,-1,29
 164 350 164 350 181 362 c 128,-1,30
 198 374 198 374 215 374 c 0,21,22
EndSplineSet
EndChar

StartChar: oslash
Encoding: 248 248 185
Width: 598
GlyphClass: 2
Flags: W
AnchorPoint: "Anchor-1" 296 0 basechar 0
AnchorPoint: "Anchor-0" 296 510 basechar 0
LayerCount: 2
Fore
SplineSet
492 469 m 0,0,1
 502 469 502 469 510 462 c 128,-1,2
 518 455 518 455 518 444 c 0,3,4
 518 436 518 436 508 421 c 1,5,-1
 499 411 l 1,6,7
 536 369 536 369 536 285 c 2,8,-1
 536 176 l 2,9,10
 536 71 536 71 482.5 35.5 c 128,-1,11
 429 0 429 0 314 0 c 2,12,-1
 285 0 l 2,13,14
 189 0 189 0 143 19 c 1,15,-1
 132 7 l 2,16,17
 119 -8 119 -8 107 -8 c 0,18,19
 98 -8 98 -8 89.5 -0.5 c 128,-1,20
 81 7 81 7 81 17 c 0,21,22
 81 26 81 26 92 40 c 1,23,-1
 100 49 l 1,24,25
 62 92 62 92 62 176 c 2,26,-1
 62 285 l 2,27,28
 62 390 62 390 116 425.5 c 128,-1,29
 170 461 170 461 285 461 c 2,30,-1
 314 461 l 2,31,32
 413 461 413 461 457 440 c 1,33,-1
 467 454 l 1,34,35
 479 469 479 469 492 469 c 0,0,1
285 52 m 2,36,-1
 314 52 l 2,37,38
 412 52 412 52 448 74.5 c 128,-1,39
 484 97 484 97 484 180 c 2,40,-1
 484 291 l 2,41,42
 484 352 484 352 465 380 c 1,43,-1
 178 61 l 1,44,45
 211 52 211 52 285 52 c 2,36,-1
114 170 m 2,46,47
 114 109 114 109 134 80 c 1,48,-1
 421 400 l 1,49,50
 388 409 388 409 314 409 c 2,51,-1
 285 409 l 2,52,53
 186 409 186 409 150 386.5 c 128,-1,54
 114 364 114 364 114 281 c 2,55,-1
 114 170 l 2,46,47
EndSplineSet
EndChar

StartChar: thorn
Encoding: 254 254 191
Width: 611
GlyphClass: 2
Flags: W
LayerCount: 2
Fore
SplineSet
497 284 m 2,0,1
 497 327 497 327 488.5 352 c 128,-1,2
 480 377 480 377 456.5 389.5 c 128,-1,3
 433 402 433 402 405.5 405.5 c 128,-1,4
 378 409 378 409 327 409 c 2,5,-1
 298 409 l 2,6,7
 127 409 127 409 127 232 c 2,8,-1
 127 52 l 1,9,-1
 328 52 l 2,10,11
 426 52 426 52 461.5 74 c 128,-1,12
 497 96 497 96 497 177 c 2,13,-1
 497 284 l 2,0,1
549 176 m 2,14,15
 549 71 549 71 495.5 35.5 c 128,-1,16
 442 0 442 0 328 0 c 2,17,-1
 127 0 l 1,18,-1
 127 -147 l 2,19,20
 127 -182 127 -182 99 -182 c 0,21,22
 75 -182 75 -182 75 -147 c 2,23,-1
 75 608 l 2,24,25
 75 643 75 643 101 643 c 128,-1,26
 127 643 127 643 127 608 c 2,27,-1
 127 398 l 1,28,29
 186 461 186 461 298 461 c 2,30,-1
 327 461 l 2,31,32
 442 461 442 461 495.5 425.5 c 128,-1,33
 549 390 549 390 549 285 c 2,34,-1
 549 176 l 2,14,15
EndSplineSet
EndChar

StartChar: Amacron
Encoding: 256 256 193
Width: 570
GlyphClass: 2
Flags: W
LayerCount: 2
Fore
SplineSet
130 734 m 0,0,1
 130 760 130 760 161 760 c 2,2,-1
 406 760 l 2,3,4
 440 760 440 760 440 732 c 0,5,6
 440 721 440 721 430.5 714 c 128,-1,7
 421 707 421 707 406 707 c 2,8,-1
 161 707 l 2,9,10
 130 707 130 707 130 734 c 0,0,1
316 636 m 1,11,-1
 543 25 l 2,12,13
 546 16 546 16 546 9 c 0,14,15
 546 -4 546 -4 537 -10 c 128,-1,16
 528 -16 528 -16 520 -16 c 0,17,18
 503 -16 503 -16 493 7 c 1,19,-1
 422 199 l 1,20,-1
 148 199 l 1,21,-1
 77 7 l 1,22,23
 67 -16 67 -16 50 -16 c 0,24,25
 42 -16 42 -16 33 -10 c 128,-1,26
 24 -4 24 -4 24 9 c 0,27,28
 24 16 24 16 27 25 c 2,29,-1
 254 636 l 1,30,-1
 316 636 l 1,11,-1
284 560 m 1,31,-1
 168 251 l 1,32,-1
 402 251 l 1,33,-1
 284 560 l 1,31,-1
EndSplineSet
EndChar

StartChar: amacron
Encoding: 257 257 194
Width: 554
GlyphClass: 2
Flags: W
LayerCount: 2
Fore
SplineSet
116 549 m 0,0,1
 116 575 116 575 147 575 c 2,2,-1
 392 575 l 2,3,4
 426 575 426 575 426 547 c 0,5,6
 426 536 426 536 416.5 529 c 128,-1,7
 407 522 407 522 392 522 c 2,8,-1
 147 522 l 2,9,10
 116 522 116 522 116 549 c 0,0,1
283 243 m 2,11,12
 232 243 232 243 204.5 239.5 c 128,-1,13
 177 236 177 236 153 223.5 c 128,-1,14
 129 211 129 211 120.5 186 c 128,-1,15
 112 161 112 161 112 118 c 0,16,17
 112 92 112 92 129 72 c 128,-1,18
 146 52 146 52 167 52 c 2,19,-1
 260 52 l 2,20,21
 344 52 344 52 387 97.5 c 128,-1,22
 430 143 430 143 430 228 c 2,23,-1
 430 243 l 1,24,-1
 283 243 l 2,11,12
283 295 m 2,25,-1
 430 295 l 1,26,-1
 430 352 l 2,27,28
 430 383 430 383 418.5 396 c 128,-1,29
 407 409 407 409 375 409 c 2,30,-1
 234 409 l 2,31,32
 112 409 112 409 112 349 c 0,33,34
 112 314 112 314 85 314 c 0,35,36
 60 314 60 314 60 349 c 0,37,38
 60 407 60 407 106 434 c 128,-1,39
 152 461 152 461 227 461 c 2,40,-1
 382 461 l 2,41,42
 440 461 440 461 461 433 c 128,-1,43
 482 405 482 405 482 335 c 2,44,-1
 482 27 l 2,45,46
 482 -7 482 -7 456 -7 c 128,-1,47
 430 -7 430 -7 430 28 c 2,48,-1
 430 63 l 1,49,50
 373 0 373 0 260 0 c 2,51,-1
 167 0 l 2,52,53
 120 0 120 0 90 33.5 c 128,-1,54
 60 67 60 67 60 123 c 0,55,56
 60 224 60 224 114.5 259.5 c 128,-1,57
 169 295 169 295 283 295 c 2,25,-1
EndSplineSet
EndChar

StartChar: Abreve
Encoding: 258 258 195
Width: 570
GlyphClass: 2
Flags: W
LayerCount: 2
Fore
SplineSet
316 636 m 1,0,-1
 543 25 l 2,1,2
 546 16 546 16 546 9 c 0,3,4
 546 -4 546 -4 537 -10 c 128,-1,5
 528 -16 528 -16 520 -16 c 0,6,7
 503 -16 503 -16 493 7 c 1,8,-1
 422 199 l 1,9,-1
 148 199 l 1,10,-1
 77 7 l 1,11,12
 67 -16 67 -16 50 -16 c 0,13,14
 42 -16 42 -16 33 -10 c 128,-1,15
 24 -4 24 -4 24 9 c 0,16,17
 24 16 24 16 27 25 c 2,18,-1
 254 636 l 1,19,-1
 316 636 l 1,0,-1
284 560 m 1,20,-1
 168 251 l 1,21,-1
 402 251 l 1,22,-1
 284 560 l 1,20,-1
284 688 m 0,23,24
 238 688 238 688 201 723.5 c 128,-1,25
 164 759 164 759 164 819 c 1,26,-1
 217 819 l 1,27,28
 217 776 217 776 237.5 759 c 128,-1,29
 258 742 258 742 284 742 c 128,-1,30
 310 742 310 742 330.5 759 c 128,-1,31
 351 776 351 776 351 819 c 1,32,-1
 404 819 l 1,33,34
 404 758 404 758 366.5 723 c 128,-1,35
 329 688 329 688 284 688 c 0,23,24
EndSplineSet
EndChar

StartChar: abreve
Encoding: 259 259 196
Width: 554
GlyphClass: 2
Flags: W
LayerCount: 2
Fore
SplineSet
272 522 m 0,0,1
 226 522 226 522 189 557.5 c 128,-1,2
 152 593 152 593 152 653 c 1,3,-1
 205 653 l 1,4,5
 205 610 205 610 225.5 593 c 128,-1,6
 246 576 246 576 272 576 c 128,-1,7
 298 576 298 576 318.5 593 c 128,-1,8
 339 610 339 610 339 653 c 1,9,-1
 392 653 l 1,10,11
 392 592 392 592 354.5 557 c 128,-1,12
 317 522 317 522 272 522 c 0,0,1
283 243 m 2,13,14
 232 243 232 243 204.5 239.5 c 128,-1,15
 177 236 177 236 153 223.5 c 128,-1,16
 129 211 129 211 120.5 186 c 128,-1,17
 112 161 112 161 112 118 c 0,18,19
 112 92 112 92 129 72 c 128,-1,20
 146 52 146 52 167 52 c 2,21,-1
 260 52 l 2,22,23
 344 52 344 52 387 97.5 c 128,-1,24
 430 143 430 143 430 228 c 2,25,-1
 430 243 l 1,26,-1
 283 243 l 2,13,14
283 295 m 2,27,-1
 430 295 l 1,28,-1
 430 352 l 2,29,30
 430 383 430 383 418.5 396 c 128,-1,31
 407 409 407 409 375 409 c 2,32,-1
 234 409 l 2,33,34
 112 409 112 409 112 349 c 0,35,36
 112 314 112 314 85 314 c 0,37,38
 60 314 60 314 60 349 c 0,39,40
 60 407 60 407 106 434 c 128,-1,41
 152 461 152 461 227 461 c 2,42,-1
 382 461 l 2,43,44
 440 461 440 461 461 433 c 128,-1,45
 482 405 482 405 482 335 c 2,46,-1
 482 27 l 2,47,48
 482 -7 482 -7 456 -7 c 128,-1,49
 430 -7 430 -7 430 28 c 2,50,-1
 430 63 l 1,51,52
 373 0 373 0 260 0 c 2,53,-1
 167 0 l 2,54,55
 120 0 120 0 90 33.5 c 128,-1,56
 60 67 60 67 60 123 c 0,57,58
 60 224 60 224 114.5 259.5 c 128,-1,59
 169 295 169 295 283 295 c 2,27,-1
EndSplineSet
EndChar

StartChar: Aogonek
Encoding: 260 260 197
Width: 569
GlyphClass: 2
Flags: W
LayerCount: 2
Fore
SplineSet
284 560 m 1,0,-1
 168 251 l 1,1,-1
 402 251 l 1,2,-1
 284 560 l 1,0,-1
50 -16 m 0,3,4
 42 -16 42 -16 33 -10 c 128,-1,5
 24 -4 24 -4 24 9 c 0,6,7
 24 16 24 16 27 25 c 2,8,-1
 258 646 l 1,9,-1
 312 646 l 1,10,-1
 543 25 l 2,11,12
 546 16 546 16 546 9 c 0,13,14
 546 -1 546 -1 535 -12 c 0,15,16
 515 -31 515 -31 500 -60 c 128,-1,17
 485 -89 485 -89 485 -101 c 0,18,19
 485 -155 485 -155 527 -155 c 0,20,21
 543 -155 543 -155 565 -146.5 c 128,-1,22
 587 -138 587 -138 593 -138 c 0,23,24
 608 -138 608 -138 608 -155 c 0,25,26
 608 -181 608 -181 581 -193 c 128,-1,27
 554 -205 554 -205 529 -205 c 0,28,29
 488 -205 488 -205 460.5 -176 c 128,-1,30
 433 -147 433 -147 433 -101 c 0,31,32
 433 -58 433 -58 491 13 c 1,33,-1
 422 199 l 1,34,-1
 148 199 l 1,35,-1
 77 7 l 1,36,37
 67 -16 67 -16 50 -16 c 0,3,4
EndSplineSet
EndChar

StartChar: aogonek
Encoding: 261 261 198
Width: 554
GlyphClass: 2
Flags: W
LayerCount: 2
Fore
SplineSet
283 295 m 2,0,-1
 430 295 l 1,1,-1
 430 352 l 2,2,3
 430 383 430 383 418.5 396 c 128,-1,4
 407 409 407 409 375 409 c 2,5,-1
 234 409 l 2,6,7
 112 409 112 409 112 349 c 0,8,9
 112 314 112 314 85 314 c 0,10,11
 60 314 60 314 60 349 c 0,12,13
 60 407 60 407 106 434 c 128,-1,14
 152 461 152 461 227 461 c 2,15,-1
 382 461 l 2,16,17
 440 461 440 461 461 433 c 128,-1,18
 482 405 482 405 482 335 c 2,19,-1
 482 27 l 2,20,21
 482 4 482 4 469 -4 c 0,22,23
 446 -18 446 -18 429 -51 c 128,-1,24
 412 -84 412 -84 412 -100 c 0,25,26
 412 -154 412 -154 454 -154 c 0,27,28
 470 -154 470 -154 492 -145.5 c 128,-1,29
 514 -137 514 -137 520 -137 c 0,30,31
 535 -137 535 -137 535 -154 c 0,32,33
 535 -180 535 -180 508 -192 c 128,-1,34
 481 -204 481 -204 456 -204 c 0,35,36
 415 -204 415 -204 387.5 -175 c 128,-1,37
 360 -146 360 -146 360 -100 c 0,38,39
 360 -76 360 -76 382.5 -38 c 128,-1,40
 405 0 405 0 430 29 c 1,41,-1
 430 63 l 1,42,43
 373 0 373 0 260 0 c 2,44,-1
 167 0 l 2,45,46
 120 0 120 0 90 33.5 c 128,-1,47
 60 67 60 67 60 123 c 0,48,49
 60 224 60 224 114.5 259.5 c 128,-1,50
 169 295 169 295 283 295 c 2,0,-1
283 243 m 2,51,52
 232 243 232 243 204.5 239.5 c 128,-1,53
 177 236 177 236 153 223.5 c 128,-1,54
 129 211 129 211 120.5 186 c 128,-1,55
 112 161 112 161 112 118 c 0,56,57
 112 92 112 92 129 72 c 128,-1,58
 146 52 146 52 167 52 c 2,59,-1
 260 52 l 2,60,61
 344 52 344 52 387 97.5 c 128,-1,62
 430 143 430 143 430 228 c 2,63,-1
 430 243 l 1,64,-1
 283 243 l 2,51,52
EndSplineSet
EndChar

StartChar: Cacute
Encoding: 262 262 199
Width: 592
GlyphClass: 2
Flags: W
LayerCount: 2
Fore
SplineSet
436 0 m 2,0,-1
 295 0 l 2,1,2
 179 0 179 0 125.5 36 c 128,-1,3
 72 72 72 72 72 180 c 2,4,-1
 72 456 l 2,5,6
 72 564 72 564 125 600 c 128,-1,7
 178 636 178 636 289 636 c 2,8,-1
 436 636 l 2,9,10
 468 636 468 636 489.5 626.5 c 128,-1,11
 511 617 511 617 520.5 599.5 c 128,-1,12
 530 582 530 582 533 565 c 128,-1,13
 536 548 536 548 536 524 c 0,14,15
 536 489 536 489 510 489 c 128,-1,16
 484 489 484 489 484 522 c 0,17,18
 484 557 484 557 472 570.5 c 128,-1,19
 460 584 460 584 429 584 c 2,20,-1
 289 584 l 2,21,22
 241 584 241 584 214 580.5 c 128,-1,23
 187 577 187 577 164 564 c 128,-1,24
 141 551 141 551 132.5 525 c 128,-1,25
 124 499 124 499 124 456 c 2,26,-1
 124 180 l 2,27,28
 124 97 124 97 160 74.5 c 128,-1,29
 196 52 196 52 295 52 c 2,30,-1
 429 52 l 2,31,32
 461 52 461 52 472.5 66 c 128,-1,33
 484 80 484 80 484 114 c 0,34,35
 484 147 484 147 510 147 c 128,-1,36
 536 147 536 147 536 111 c 0,37,38
 536 88 536 88 533 71 c 128,-1,39
 530 54 530 54 520.5 36.5 c 128,-1,40
 511 19 511 19 489.5 9.5 c 128,-1,41
 468 0 468 0 436 0 c 2,0,-1
406 771 m 1,42,-1
 336 702 l 2,43,44
 324 689 324 689 312 689 c 0,45,46
 302 689 302 689 294 696.5 c 128,-1,47
 286 704 286 704 286 713 c 0,48,49
 286 724 286 724 299 739 c 1,50,-1
 368 807 l 2,51,52
 380 820 380 820 393 820 c 0,53,54
 404 820 404 820 411 811.5 c 128,-1,55
 418 803 418 803 418 795 c 0,56,57
 418 785 418 785 406 771 c 1,42,-1
EndSplineSet
EndChar

StartChar: cacute
Encoding: 263 263 200
Width: 584
GlyphClass: 2
Flags: W
LayerCount: 2
Fore
SplineSet
426 0 m 2,0,-1
 285 0 l 2,1,2
 170 0 170 0 116 35.5 c 128,-1,3
 62 71 62 71 62 176 c 2,4,-1
 62 285 l 2,5,6
 62 390 62 390 116 425.5 c 128,-1,7
 170 461 170 461 285 461 c 2,8,-1
 426 461 l 2,9,10
 458 461 458 461 479.5 451.5 c 128,-1,11
 501 442 501 442 510.5 424 c 128,-1,12
 520 406 520 406 523 389 c 128,-1,13
 526 372 526 372 526 349 c 0,14,15
 526 314 526 314 500 314 c 128,-1,16
 474 314 474 314 474 347 c 0,17,18
 474 382 474 382 462 395.5 c 128,-1,19
 450 409 450 409 419 409 c 2,20,-1
 285 409 l 2,21,22
 234 409 234 409 206.5 405.5 c 128,-1,23
 179 402 179 402 155 389.5 c 128,-1,24
 131 377 131 377 122.5 352 c 128,-1,25
 114 327 114 327 114 284 c 2,26,-1
 114 177 l 2,27,28
 114 134 114 134 122.5 109 c 128,-1,29
 131 84 131 84 155 71.5 c 128,-1,30
 179 59 179 59 206.5 55.5 c 128,-1,31
 234 52 234 52 285 52 c 2,32,-1
 419 52 l 2,33,34
 451 52 451 52 462.5 66 c 128,-1,35
 474 80 474 80 474 114 c 0,36,37
 474 147 474 147 500 147 c 128,-1,38
 526 147 526 147 526 111 c 0,39,40
 526 88 526 88 523 71 c 128,-1,41
 520 54 520 54 510.5 36.5 c 128,-1,42
 501 19 501 19 479.5 9.5 c 128,-1,43
 458 0 458 0 426 0 c 2,0,-1
404 635 m 2,44,-1
 308 520 l 1,45,46
 294 505 294 505 283 505 c 0,47,48
 275 505 275 505 266.5 512.5 c 128,-1,49
 258 520 258 520 258 530 c 0,50,51
 258 542 258 542 267 553 c 2,52,-1
 363 668 l 2,53,54
 376 683 376 683 388 683 c 0,55,56
 397 683 397 683 405 675.5 c 128,-1,57
 413 668 413 668 413 657 c 128,-1,58
 413 646 413 646 404 635 c 2,44,-1
EndSplineSet
EndChar

StartChar: Ccircumflex
Encoding: 264 264 201
Width: 592
GlyphClass: 2
Flags: W
LayerCount: 2
Fore
SplineSet
175 687 m 2,0,-1
 280 819 l 1,1,-1
 339 819 l 1,2,-1
 446 687 l 2,3,4
 452 679 452 679 452 669 c 0,5,6
 452 646 452 646 429 646 c 0,7,8
 424 646 424 646 419.5 648 c 128,-1,9
 415 650 415 650 413.5 651.5 c 128,-1,10
 412 653 412 653 407 659 c 128,-1,11
 402 665 402 665 401 666 c 2,12,-1
 310 762 l 1,13,-1
 220 666 l 2,14,15
 218 664 218 664 215 660 c 128,-1,16
 212 656 212 656 210 654.5 c 128,-1,17
 208 653 208 653 205.5 650.5 c 128,-1,18
 203 648 203 648 199.5 647 c 128,-1,19
 196 646 196 646 192 646 c 0,20,21
 169 646 169 646 169 669 c 0,22,23
 169 679 169 679 175 687 c 2,0,-1
436 0 m 2,24,-1
 295 0 l 2,25,26
 179 0 179 0 125.5 36 c 128,-1,27
 72 72 72 72 72 180 c 2,28,-1
 72 456 l 2,29,30
 72 564 72 564 125 600 c 128,-1,31
 178 636 178 636 289 636 c 2,32,-1
 436 636 l 2,33,34
 468 636 468 636 489.5 626.5 c 128,-1,35
 511 617 511 617 520.5 599.5 c 128,-1,36
 530 582 530 582 533 565 c 128,-1,37
 536 548 536 548 536 524 c 0,38,39
 536 489 536 489 510 489 c 128,-1,40
 484 489 484 489 484 522 c 0,41,42
 484 557 484 557 472 570.5 c 128,-1,43
 460 584 460 584 429 584 c 2,44,-1
 289 584 l 2,45,46
 241 584 241 584 214 580.5 c 128,-1,47
 187 577 187 577 164 564 c 128,-1,48
 141 551 141 551 132.5 525 c 128,-1,49
 124 499 124 499 124 456 c 2,50,-1
 124 180 l 2,51,52
 124 97 124 97 160 74.5 c 128,-1,53
 196 52 196 52 295 52 c 2,54,-1
 429 52 l 2,55,56
 461 52 461 52 472.5 66 c 128,-1,57
 484 80 484 80 484 114 c 0,58,59
 484 147 484 147 510 147 c 128,-1,60
 536 147 536 147 536 111 c 0,61,62
 536 88 536 88 533 71 c 128,-1,63
 530 54 530 54 520.5 36.5 c 128,-1,64
 511 19 511 19 489.5 9.5 c 128,-1,65
 468 0 468 0 436 0 c 2,24,-1
EndSplineSet
EndChar

StartChar: ccircumflex
Encoding: 265 265 202
Width: 584
GlyphClass: 2
Flags: W
LayerCount: 2
Fore
SplineSet
426 0 m 2,0,-1
 285 0 l 2,1,2
 170 0 170 0 116 35.5 c 128,-1,3
 62 71 62 71 62 176 c 2,4,-1
 62 285 l 2,5,6
 62 390 62 390 116 425.5 c 128,-1,7
 170 461 170 461 285 461 c 2,8,-1
 426 461 l 2,9,10
 458 461 458 461 479.5 451.5 c 128,-1,11
 501 442 501 442 510.5 424 c 128,-1,12
 520 406 520 406 523 389 c 128,-1,13
 526 372 526 372 526 349 c 0,14,15
 526 314 526 314 500 314 c 128,-1,16
 474 314 474 314 474 347 c 0,17,18
 474 382 474 382 462 395.5 c 128,-1,19
 450 409 450 409 419 409 c 2,20,-1
 285 409 l 2,21,22
 234 409 234 409 206.5 405.5 c 128,-1,23
 179 402 179 402 155 389.5 c 128,-1,24
 131 377 131 377 122.5 352 c 128,-1,25
 114 327 114 327 114 284 c 2,26,-1
 114 177 l 2,27,28
 114 134 114 134 122.5 109 c 128,-1,29
 131 84 131 84 155 71.5 c 128,-1,30
 179 59 179 59 206.5 55.5 c 128,-1,31
 234 52 234 52 285 52 c 2,32,-1
 419 52 l 2,33,34
 451 52 451 52 462.5 66 c 128,-1,35
 474 80 474 80 474 114 c 0,36,37
 474 147 474 147 500 147 c 128,-1,38
 526 147 526 147 526 111 c 0,39,40
 526 88 526 88 523 71 c 128,-1,41
 520 54 520 54 510.5 36.5 c 128,-1,42
 501 19 501 19 479.5 9.5 c 128,-1,43
 458 0 458 0 426 0 c 2,0,-1
153 558 m 2,44,-1
 258 690 l 1,45,-1
 317 690 l 1,46,-1
 424 558 l 2,47,48
 430 550 430 550 430 540 c 0,49,50
 430 517 430 517 407 517 c 0,51,52
 402 517 402 517 397.5 519 c 128,-1,53
 393 521 393 521 391.5 522.5 c 128,-1,54
 390 524 390 524 385 530 c 128,-1,55
 380 536 380 536 379 537 c 2,56,-1
 288 633 l 1,57,-1
 198 537 l 2,58,59
 196 535 196 535 193 531 c 128,-1,60
 190 527 190 527 188 525.5 c 128,-1,61
 186 524 186 524 183.5 521.5 c 128,-1,62
 181 519 181 519 177.5 518 c 128,-1,63
 174 517 174 517 170 517 c 0,64,65
 147 517 147 517 147 540 c 0,66,67
 147 550 147 550 153 558 c 2,44,-1
EndSplineSet
EndChar

StartChar: Cdotaccent
Encoding: 266 266 203
Width: 592
GlyphClass: 2
Flags: W
LayerCount: 2
Fore
SplineSet
436 0 m 2,0,-1
 295 0 l 2,1,2
 179 0 179 0 125.5 36 c 128,-1,3
 72 72 72 72 72 180 c 2,4,-1
 72 456 l 2,5,6
 72 564 72 564 125 600 c 128,-1,7
 178 636 178 636 289 636 c 2,8,-1
 436 636 l 2,9,10
 468 636 468 636 489.5 626.5 c 128,-1,11
 511 617 511 617 520.5 599.5 c 128,-1,12
 530 582 530 582 533 565 c 128,-1,13
 536 548 536 548 536 524 c 0,14,15
 536 489 536 489 510 489 c 128,-1,16
 484 489 484 489 484 522 c 0,17,18
 484 557 484 557 472 570.5 c 128,-1,19
 460 584 460 584 429 584 c 2,20,-1
 289 584 l 2,21,22
 241 584 241 584 214 580.5 c 128,-1,23
 187 577 187 577 164 564 c 128,-1,24
 141 551 141 551 132.5 525 c 128,-1,25
 124 499 124 499 124 456 c 2,26,-1
 124 180 l 2,27,28
 124 97 124 97 160 74.5 c 128,-1,29
 196 52 196 52 295 52 c 2,30,-1
 429 52 l 2,31,32
 461 52 461 52 472.5 66 c 128,-1,33
 484 80 484 80 484 114 c 0,34,35
 484 147 484 147 510 147 c 128,-1,36
 536 147 536 147 536 111 c 0,37,38
 536 88 536 88 533 71 c 128,-1,39
 530 54 530 54 520.5 36.5 c 128,-1,40
 511 19 511 19 489.5 9.5 c 128,-1,41
 468 0 468 0 436 0 c 2,0,-1
291 783 m 0,42,43
 307 783 307 783 324.5 771 c 128,-1,44
 342 759 342 759 342 742 c 128,-1,45
 342 725 342 725 324.5 713 c 128,-1,46
 307 701 307 701 291 701 c 0,47,48
 274 701 274 701 257 713 c 128,-1,49
 240 725 240 725 240 742 c 128,-1,50
 240 759 240 759 257 771 c 128,-1,51
 274 783 274 783 291 783 c 0,42,43
EndSplineSet
EndChar

StartChar: cdotaccent
Encoding: 267 267 204
Width: 584
GlyphClass: 2
Flags: W
LayerCount: 2
Fore
SplineSet
426 0 m 2,0,-1
 285 0 l 2,1,2
 170 0 170 0 116 35.5 c 128,-1,3
 62 71 62 71 62 176 c 2,4,-1
 62 285 l 2,5,6
 62 390 62 390 116 425.5 c 128,-1,7
 170 461 170 461 285 461 c 2,8,-1
 426 461 l 2,9,10
 458 461 458 461 479.5 451.5 c 128,-1,11
 501 442 501 442 510.5 424 c 128,-1,12
 520 406 520 406 523 389 c 128,-1,13
 526 372 526 372 526 349 c 0,14,15
 526 314 526 314 500 314 c 128,-1,16
 474 314 474 314 474 347 c 0,17,18
 474 382 474 382 462 395.5 c 128,-1,19
 450 409 450 409 419 409 c 2,20,-1
 285 409 l 2,21,22
 234 409 234 409 206.5 405.5 c 128,-1,23
 179 402 179 402 155 389.5 c 128,-1,24
 131 377 131 377 122.5 352 c 128,-1,25
 114 327 114 327 114 284 c 2,26,-1
 114 177 l 2,27,28
 114 134 114 134 122.5 109 c 128,-1,29
 131 84 131 84 155 71.5 c 128,-1,30
 179 59 179 59 206.5 55.5 c 128,-1,31
 234 52 234 52 285 52 c 2,32,-1
 419 52 l 2,33,34
 451 52 451 52 462.5 66 c 128,-1,35
 474 80 474 80 474 114 c 0,36,37
 474 147 474 147 500 147 c 128,-1,38
 526 147 526 147 526 111 c 0,39,40
 526 88 526 88 523 71 c 128,-1,41
 520 54 520 54 510.5 36.5 c 128,-1,42
 501 19 501 19 479.5 9.5 c 128,-1,43
 458 0 458 0 426 0 c 2,0,-1
285 599 m 0,44,45
 301 599 301 599 318.5 587 c 128,-1,46
 336 575 336 575 336 558 c 128,-1,47
 336 541 336 541 318.5 529 c 128,-1,48
 301 517 301 517 285 517 c 0,49,50
 268 517 268 517 251 529 c 128,-1,51
 234 541 234 541 234 558 c 128,-1,52
 234 575 234 575 251 587 c 128,-1,53
 268 599 268 599 285 599 c 0,44,45
EndSplineSet
EndChar

StartChar: Ccaron
Encoding: 268 268 205
Width: 592
GlyphClass: 2
Flags: W
LayerCount: 2
Fore
SplineSet
436 0 m 2,0,-1
 295 0 l 2,1,2
 179 0 179 0 125.5 36 c 128,-1,3
 72 72 72 72 72 180 c 2,4,-1
 72 456 l 2,5,6
 72 564 72 564 125 600 c 128,-1,7
 178 636 178 636 289 636 c 2,8,-1
 436 636 l 2,9,10
 468 636 468 636 489.5 626.5 c 128,-1,11
 511 617 511 617 520.5 599.5 c 128,-1,12
 530 582 530 582 533 565 c 128,-1,13
 536 548 536 548 536 524 c 0,14,15
 536 489 536 489 510 489 c 128,-1,16
 484 489 484 489 484 522 c 0,17,18
 484 557 484 557 472 570.5 c 128,-1,19
 460 584 460 584 429 584 c 2,20,-1
 289 584 l 2,21,22
 241 584 241 584 214 580.5 c 128,-1,23
 187 577 187 577 164 564 c 128,-1,24
 141 551 141 551 132.5 525 c 128,-1,25
 124 499 124 499 124 456 c 2,26,-1
 124 180 l 2,27,28
 124 97 124 97 160 74.5 c 128,-1,29
 196 52 196 52 295 52 c 2,30,-1
 429 52 l 2,31,32
 461 52 461 52 472.5 66 c 128,-1,33
 484 80 484 80 484 114 c 0,34,35
 484 147 484 147 510 147 c 128,-1,36
 536 147 536 147 536 111 c 0,37,38
 536 88 536 88 533 71 c 128,-1,39
 530 54 530 54 520.5 36.5 c 128,-1,40
 511 19 511 19 489.5 9.5 c 128,-1,41
 468 0 468 0 436 0 c 2,0,-1
325 678 m 1,42,-1
 269 678 l 1,43,-1
 165 787 l 2,44,45
 158 794 158 794 158 802 c 0,46,47
 158 822 158 822 181 822 c 0,48,49
 193 822 193 822 213 805 c 2,50,-1
 297 735 l 1,51,-1
 381 805 l 2,52,53
 401 822 401 822 413 822 c 0,54,55
 436 822 436 822 436 802 c 0,56,57
 436 794 436 794 429 787 c 2,58,-1
 325 678 l 1,42,-1
EndSplineSet
EndChar

StartChar: ccaron
Encoding: 269 269 206
Width: 584
GlyphClass: 2
Flags: W
LayerCount: 2
Fore
SplineSet
324 522 m 1,0,-1
 268 522 l 1,1,-1
 164 631 l 2,2,3
 157 638 157 638 157 646 c 0,4,5
 157 666 157 666 180 666 c 0,6,7
 192 666 192 666 212 649 c 2,8,-1
 296 579 l 1,9,-1
 380 649 l 2,10,11
 400 666 400 666 412 666 c 0,12,13
 435 666 435 666 435 646 c 0,14,15
 435 638 435 638 428 631 c 2,16,-1
 324 522 l 1,0,-1
426 0 m 2,17,-1
 285 0 l 2,18,19
 170 0 170 0 116 35.5 c 128,-1,20
 62 71 62 71 62 176 c 2,21,-1
 62 285 l 2,22,23
 62 390 62 390 116 425.5 c 128,-1,24
 170 461 170 461 285 461 c 2,25,-1
 426 461 l 2,26,27
 458 461 458 461 479.5 451.5 c 128,-1,28
 501 442 501 442 510.5 424 c 128,-1,29
 520 406 520 406 523 389 c 128,-1,30
 526 372 526 372 526 349 c 0,31,32
 526 314 526 314 500 314 c 128,-1,33
 474 314 474 314 474 347 c 0,34,35
 474 382 474 382 462 395.5 c 128,-1,36
 450 409 450 409 419 409 c 2,37,-1
 285 409 l 2,38,39
 234 409 234 409 206.5 405.5 c 128,-1,40
 179 402 179 402 155 389.5 c 128,-1,41
 131 377 131 377 122.5 352 c 128,-1,42
 114 327 114 327 114 284 c 2,43,-1
 114 177 l 2,44,45
 114 134 114 134 122.5 109 c 128,-1,46
 131 84 131 84 155 71.5 c 128,-1,47
 179 59 179 59 206.5 55.5 c 128,-1,48
 234 52 234 52 285 52 c 2,49,-1
 419 52 l 2,50,51
 451 52 451 52 462.5 66 c 128,-1,52
 474 80 474 80 474 114 c 0,53,54
 474 147 474 147 500 147 c 128,-1,55
 526 147 526 147 526 111 c 0,56,57
 526 88 526 88 523 71 c 128,-1,58
 520 54 520 54 510.5 36.5 c 128,-1,59
 501 19 501 19 479.5 9.5 c 128,-1,60
 458 0 458 0 426 0 c 2,17,-1
EndSplineSet
EndChar

StartChar: Dcaron
Encoding: 270 270 207
Width: 620
GlyphClass: 2
Flags: W
LayerCount: 2
Fore
SplineSet
548 456 m 2,0,-1
 548 180 l 2,1,2
 548 72 548 72 494.5 36 c 128,-1,3
 441 0 441 0 326 0 c 2,4,-1
 108 0 l 2,5,6
 84 0 84 0 84 36 c 2,7,-1
 84 600 l 2,8,9
 84 636 84 636 108 636 c 2,10,-1
 332 636 l 2,11,12
 386 636 386 636 422 629.5 c 128,-1,13
 458 623 458 623 488.5 604 c 128,-1,14
 519 585 519 585 533.5 548.5 c 128,-1,15
 548 512 548 512 548 456 c 2,0,-1
496 180 m 2,16,-1
 496 456 l 2,17,18
 496 538 496 538 461 561 c 128,-1,19
 426 584 426 584 332 584 c 2,20,-1
 136 584 l 1,21,-1
 136 52 l 1,22,-1
 326 52 l 2,23,24
 424 52 424 52 460 74.5 c 128,-1,25
 496 97 496 97 496 180 c 2,16,-1
318 675 m 1,26,-1
 262 675 l 1,27,-1
 158 784 l 2,28,29
 151 791 151 791 151 799 c 0,30,31
 151 819 151 819 174 819 c 0,32,33
 186 819 186 819 206 802 c 2,34,-1
 290 732 l 1,35,-1
 374 802 l 2,36,37
 394 819 394 819 406 819 c 0,38,39
 429 819 429 819 429 799 c 0,40,41
 429 791 429 791 422 784 c 2,42,-1
 318 675 l 1,26,-1
EndSplineSet
EndChar

StartChar: dcaron
Encoding: 271 271 208
Width: 611
GlyphClass: 2
Flags: W
LayerCount: 2
Fore
SplineSet
484 461 m 1,0,-1
 484 607 l 2,1,2
 484 643 484 643 512 643 c 0,3,4
 536 643 536 643 536 607 c 2,5,-1
 536 27 l 2,6,7
 536 -7 536 -7 510 -7 c 128,-1,8
 484 -7 484 -7 484 28 c 2,9,-1
 484 63 l 1,10,11
 425 0 425 0 313 0 c 2,12,-1
 284 0 l 2,13,14
 169 0 169 0 115.5 35.5 c 128,-1,15
 62 71 62 71 62 176 c 2,16,-1
 62 285 l 2,17,18
 62 390 62 390 115.5 425.5 c 128,-1,19
 169 461 169 461 284 461 c 2,20,-1
 484 461 l 1,0,-1
484 409 m 1,21,-1
 284 409 l 2,22,23
 233 409 233 409 205.5 405.5 c 128,-1,24
 178 402 178 402 154.5 389.5 c 128,-1,25
 131 377 131 377 122.5 352 c 128,-1,26
 114 327 114 327 114 284 c 2,27,-1
 114 177 l 2,28,29
 114 134 114 134 122.5 109 c 128,-1,30
 131 84 131 84 154.5 71.5 c 128,-1,31
 178 59 178 59 205.5 55.5 c 128,-1,32
 233 52 233 52 284 52 c 2,33,-1
 313 52 l 2,34,35
 484 52 484 52 484 228 c 2,36,-1
 484 409 l 1,21,-1
656 623 m 0,37,38
 656 613 656 613 651 604 c 2,39,-1
 610 521 l 1,40,41
 600 497 600 497 585 497 c 0,42,43
 563 497 563 497 563 522 c 0,44,45
 563 526 563 526 566 538 c 2,46,-1
 590 625 l 2,47,48
 597 648 597 648 615 648 c 0,49,50
 626 648 626 648 641 642 c 128,-1,51
 656 636 656 636 656 623 c 0,37,38
EndSplineSet
EndChar

StartChar: Dcroat
Encoding: 272 272 209
Width: 620
GlyphClass: 2
Flags: W
LayerCount: 2
Fore
SplineSet
496 180 m 2,0,-1
 496 456 l 2,1,2
 496 538 496 538 461 561 c 128,-1,3
 426 584 426 584 332 584 c 2,4,-1
 136 584 l 1,5,-1
 136 351 l 1,6,-1
 240 351 l 2,7,8
 274 351 274 351 274 324 c 0,9,10
 274 298 274 298 240 298 c 2,11,-1
 136 298 l 1,12,-1
 136 52 l 1,13,-1
 326 52 l 2,14,15
 424 52 424 52 460 74.5 c 128,-1,16
 496 97 496 97 496 180 c 2,0,-1
548 456 m 2,17,-1
 548 180 l 2,18,19
 548 72 548 72 494.5 36 c 128,-1,20
 441 0 441 0 326 0 c 2,21,-1
 108 0 l 2,22,23
 84 0 84 0 84 36 c 2,24,-1
 84 298 l 1,25,26
 52 298 52 298 52 326 c 0,27,28
 52 351 52 351 84 351 c 1,29,-1
 84 600 l 2,30,31
 84 636 84 636 108 636 c 2,32,-1
 332 636 l 2,33,34
 386 636 386 636 422 629.5 c 128,-1,35
 458 623 458 623 488.5 604 c 128,-1,36
 519 585 519 585 533.5 548.5 c 128,-1,37
 548 512 548 512 548 456 c 2,17,-1
EndSplineSet
EndChar

StartChar: dcroat
Encoding: 273 273 210
Width: 611
GlyphClass: 2
Flags: W
LayerCount: 2
Fore
SplineSet
484 409 m 1,0,-1
 284 409 l 2,1,2
 233 409 233 409 205.5 405.5 c 128,-1,3
 178 402 178 402 154.5 389.5 c 128,-1,4
 131 377 131 377 122.5 352 c 128,-1,5
 114 327 114 327 114 284 c 2,6,-1
 114 177 l 2,7,8
 114 134 114 134 122.5 109 c 128,-1,9
 131 84 131 84 154.5 71.5 c 128,-1,10
 178 59 178 59 205.5 55.5 c 128,-1,11
 233 52 233 52 284 52 c 2,12,-1
 313 52 l 2,13,14
 484 52 484 52 484 228 c 2,15,-1
 484 409 l 1,0,-1
261 539 m 0,16,17
 261 565 261 565 292 565 c 2,18,-1
 484 565 l 1,19,-1
 484 607 l 2,20,21
 484 643 484 643 512 643 c 0,22,23
 536 643 536 643 536 607 c 2,24,-1
 536 565 l 1,25,-1
 537 565 l 2,26,27
 571 565 571 565 571 537 c 0,28,29
 571 526 571 526 561.5 519 c 128,-1,30
 552 512 552 512 537 512 c 2,31,-1
 536 512 l 1,32,-1
 536 27 l 2,33,34
 536 -7 536 -7 510 -7 c 128,-1,35
 484 -7 484 -7 484 28 c 2,36,-1
 484 63 l 1,37,38
 425 0 425 0 313 0 c 2,39,-1
 284 0 l 2,40,41
 169 0 169 0 115.5 35.5 c 128,-1,42
 62 71 62 71 62 176 c 2,43,-1
 62 285 l 2,44,45
 62 390 62 390 115.5 425.5 c 128,-1,46
 169 461 169 461 284 461 c 2,47,-1
 484 461 l 1,48,-1
 484 512 l 1,49,-1
 292 512 l 2,50,51
 261 512 261 512 261 539 c 0,16,17
EndSplineSet
EndChar

StartChar: Emacron
Encoding: 274 274 211
Width: 598
GlyphClass: 2
Flags: W
LayerCount: 2
Fore
SplineSet
156 733 m 0,0,1
 156 759 156 759 187 759 c 2,2,-1
 432 759 l 2,3,4
 466 759 466 759 466 731 c 0,5,6
 466 720 466 720 456.5 713 c 128,-1,7
 447 706 447 706 432 706 c 2,8,-1
 187 706 l 2,9,10
 156 706 156 706 156 733 c 0,0,1
136 332 m 1,11,-1
 136 52 l 1,12,-1
 514 52 l 2,13,14
 548 52 548 52 548 24 c 0,15,16
 548 0 548 0 514 0 c 2,17,-1
 108 0 l 2,18,19
 84 0 84 0 84 36 c 2,20,-1
 84 600 l 2,21,22
 84 636 84 636 108 636 c 2,23,-1
 514 636 l 2,24,25
 548 636 548 636 548 608 c 0,26,27
 548 584 548 584 514 584 c 2,28,-1
 136 584 l 1,29,-1
 136 384 l 1,30,-1
 395 384 l 2,31,32
 431 384 431 384 431 356 c 0,33,34
 431 332 431 332 395 332 c 2,35,-1
 136 332 l 1,11,-1
EndSplineSet
EndChar

StartChar: emacron
Encoding: 275 275 212
Width: 592
GlyphClass: 2
Flags: W
LayerCount: 2
Fore
SplineSet
145 549 m 0,0,1
 145 575 145 575 176 575 c 2,2,-1
 421 575 l 2,3,4
 455 575 455 575 455 547 c 0,5,6
 455 536 455 536 445.5 529 c 128,-1,7
 436 522 436 522 421 522 c 2,8,-1
 176 522 l 2,9,10
 145 522 145 522 145 549 c 0,0,1
536 285 m 2,11,-1
 536 245 l 1,12,-1
 114 245 l 1,13,-1
 114 177 l 2,14,15
 114 134 114 134 122.5 109 c 128,-1,16
 131 84 131 84 155 71.5 c 128,-1,17
 179 59 179 59 206.5 55.5 c 128,-1,18
 234 52 234 52 285 52 c 2,19,-1
 419 52 l 2,20,21
 451 52 451 52 462.5 66 c 128,-1,22
 474 80 474 80 474 114 c 0,23,24
 474 147 474 147 500 147 c 128,-1,25
 526 147 526 147 526 111 c 0,26,27
 526 88 526 88 523 71 c 128,-1,28
 520 54 520 54 510.5 36.5 c 128,-1,29
 501 19 501 19 479.5 9.5 c 128,-1,30
 458 0 458 0 426 0 c 2,31,-1
 285 0 l 2,32,33
 170 0 170 0 116 35.5 c 128,-1,34
 62 71 62 71 62 176 c 2,35,-1
 62 285 l 2,36,37
 62 390 62 390 116 425.5 c 128,-1,38
 170 461 170 461 285 461 c 2,39,-1
 314 461 l 2,40,41
 429 461 429 461 482.5 425.5 c 128,-1,42
 536 390 536 390 536 285 c 2,11,-1
314 409 m 2,43,-1
 285 409 l 2,44,45
 188 409 188 409 151.5 388.5 c 128,-1,46
 115 368 115 368 114 297 c 1,47,-1
 484 297 l 1,48,49
 483 368 483 368 446.5 388.5 c 128,-1,50
 410 409 410 409 314 409 c 2,43,-1
EndSplineSet
EndChar

StartChar: Edotaccent
Encoding: 278 278 213
Width: 598
GlyphClass: 2
Flags: W
LayerCount: 2
Fore
SplineSet
311 788 m 0,0,1
 327 788 327 788 344.5 776 c 128,-1,2
 362 764 362 764 362 747 c 128,-1,3
 362 730 362 730 344.5 718 c 128,-1,4
 327 706 327 706 311 706 c 0,5,6
 294 706 294 706 277 718 c 128,-1,7
 260 730 260 730 260 747 c 128,-1,8
 260 764 260 764 277 776 c 128,-1,9
 294 788 294 788 311 788 c 0,0,1
136 332 m 1,10,-1
 136 52 l 1,11,-1
 514 52 l 2,12,13
 548 52 548 52 548 24 c 0,14,15
 548 0 548 0 514 0 c 2,16,-1
 108 0 l 2,17,18
 84 0 84 0 84 36 c 2,19,-1
 84 600 l 2,20,21
 84 636 84 636 108 636 c 2,22,-1
 514 636 l 2,23,24
 548 636 548 636 548 608 c 0,25,26
 548 584 548 584 514 584 c 2,27,-1
 136 584 l 1,28,-1
 136 384 l 1,29,-1
 395 384 l 2,30,31
 431 384 431 384 431 356 c 0,32,33
 431 332 431 332 395 332 c 2,34,-1
 136 332 l 1,10,-1
EndSplineSet
EndChar

StartChar: edotaccent
Encoding: 279 279 214
Width: 592
GlyphClass: 2
Flags: W
LayerCount: 2
Fore
SplineSet
300 604 m 0,0,1
 316 604 316 604 333.5 592 c 128,-1,2
 351 580 351 580 351 563 c 128,-1,3
 351 546 351 546 333.5 534 c 128,-1,4
 316 522 316 522 300 522 c 0,5,6
 283 522 283 522 266 534 c 128,-1,7
 249 546 249 546 249 563 c 128,-1,8
 249 580 249 580 266 592 c 128,-1,9
 283 604 283 604 300 604 c 0,0,1
536 285 m 2,10,-1
 536 245 l 1,11,-1
 114 245 l 1,12,-1
 114 177 l 2,13,14
 114 134 114 134 122.5 109 c 128,-1,15
 131 84 131 84 155 71.5 c 128,-1,16
 179 59 179 59 206.5 55.5 c 128,-1,17
 234 52 234 52 285 52 c 2,18,-1
 419 52 l 2,19,20
 451 52 451 52 462.5 66 c 128,-1,21
 474 80 474 80 474 114 c 0,22,23
 474 147 474 147 500 147 c 128,-1,24
 526 147 526 147 526 111 c 0,25,26
 526 88 526 88 523 71 c 128,-1,27
 520 54 520 54 510.5 36.5 c 128,-1,28
 501 19 501 19 479.5 9.5 c 128,-1,29
 458 0 458 0 426 0 c 2,30,-1
 285 0 l 2,31,32
 170 0 170 0 116 35.5 c 128,-1,33
 62 71 62 71 62 176 c 2,34,-1
 62 285 l 2,35,36
 62 390 62 390 116 425.5 c 128,-1,37
 170 461 170 461 285 461 c 2,38,-1
 314 461 l 2,39,40
 429 461 429 461 482.5 425.5 c 128,-1,41
 536 390 536 390 536 285 c 2,10,-1
314 409 m 2,42,-1
 285 409 l 2,43,44
 188 409 188 409 151.5 388.5 c 128,-1,45
 115 368 115 368 114 297 c 1,46,-1
 484 297 l 1,47,48
 483 368 483 368 446.5 388.5 c 128,-1,49
 410 409 410 409 314 409 c 2,42,-1
EndSplineSet
EndChar

StartChar: Eogonek
Encoding: 280 280 215
Width: 597
GlyphClass: 2
Flags: W
LayerCount: 2
Fore
SplineSet
136 332 m 1,0,-1
 136 52 l 1,1,-1
 514 52 l 2,2,3
 548 52 548 52 548 24 c 0,4,5
 548 0 548 0 514 0 c 2,6,-1
 347 0 l 1,7,8
 323 -16 323 -16 303 -50.5 c 128,-1,9
 283 -85 283 -85 283 -101 c 0,10,11
 283 -155 283 -155 325 -155 c 0,12,13
 341 -155 341 -155 363 -146.5 c 128,-1,14
 385 -138 385 -138 391 -138 c 0,15,16
 406 -138 406 -138 406 -155 c 0,17,18
 406 -181 406 -181 379 -193 c 128,-1,19
 352 -205 352 -205 327 -205 c 0,20,21
 286 -205 286 -205 258.5 -176 c 128,-1,22
 231 -147 231 -147 231 -101 c 0,23,24
 231 -64 231 -64 279 0 c 1,25,-1
 108 0 l 2,26,27
 84 0 84 0 84 36 c 2,28,-1
 84 605 l 2,29,30
 84 641 84 641 108 641 c 2,31,-1
 514 641 l 2,32,33
 548 641 548 641 548 613 c 0,34,35
 548 589 548 589 514 589 c 2,36,-1
 136 589 l 1,37,-1
 136 384 l 1,38,-1
 395 384 l 2,39,40
 431 384 431 384 431 356 c 0,41,42
 431 332 431 332 395 332 c 2,43,-1
 136 332 l 1,0,-1
EndSplineSet
EndChar

StartChar: eogonek
Encoding: 281 281 216
Width: 592
GlyphClass: 2
Flags: W
LayerCount: 2
Fore
SplineSet
314 409 m 2,0,-1
 285 409 l 2,1,2
 188 409 188 409 151.5 388.5 c 128,-1,3
 115 368 115 368 114 297 c 1,4,-1
 484 297 l 1,5,6
 483 368 483 368 446.5 388.5 c 128,-1,7
 410 409 410 409 314 409 c 2,0,-1
536 285 m 2,8,-1
 536 245 l 1,9,-1
 114 245 l 1,10,-1
 114 177 l 2,11,12
 114 134 114 134 122.5 109 c 128,-1,13
 131 84 131 84 155 71.5 c 128,-1,14
 179 59 179 59 206.5 55.5 c 128,-1,15
 234 52 234 52 285 52 c 2,16,-1
 419 52 l 2,17,18
 451 52 451 52 462.5 66 c 128,-1,19
 474 80 474 80 474 114 c 0,20,21
 474 147 474 147 500 147 c 128,-1,22
 526 147 526 147 526 111 c 0,23,24
 526 88 526 88 523 71 c 128,-1,25
 520 54 520 54 510.5 36.5 c 128,-1,26
 501 19 501 19 479.5 9.5 c 128,-1,27
 458 0 458 0 426 0 c 2,28,-1
 377 0 l 1,29,30
 353 -16 353 -16 333 -50.5 c 128,-1,31
 313 -85 313 -85 313 -101 c 0,32,33
 313 -155 313 -155 355 -155 c 0,34,35
 371 -155 371 -155 393 -146.5 c 128,-1,36
 415 -138 415 -138 421 -138 c 0,37,38
 436 -138 436 -138 436 -155 c 0,39,40
 436 -181 436 -181 409 -193 c 128,-1,41
 382 -205 382 -205 357 -205 c 0,42,43
 316 -205 316 -205 288.5 -176 c 128,-1,44
 261 -147 261 -147 261 -101 c 0,45,46
 261 -64 261 -64 309 0 c 1,47,-1
 285 0 l 2,48,49
 170 0 170 0 116 35.5 c 128,-1,50
 62 71 62 71 62 176 c 2,51,-1
 62 285 l 2,52,53
 62 390 62 390 116 425.5 c 128,-1,54
 170 461 170 461 285 461 c 2,55,-1
 314 461 l 2,56,57
 429 461 429 461 482.5 425.5 c 128,-1,58
 536 390 536 390 536 285 c 2,8,-1
EndSplineSet
EndChar

StartChar: Ecaron
Encoding: 282 282 217
Width: 598
GlyphClass: 2
Flags: W
LayerCount: 2
Fore
SplineSet
136 332 m 1,0,-1
 136 52 l 1,1,-1
 514 52 l 2,2,3
 548 52 548 52 548 24 c 0,4,5
 548 0 548 0 514 0 c 2,6,-1
 108 0 l 2,7,8
 84 0 84 0 84 36 c 2,9,-1
 84 600 l 2,10,11
 84 636 84 636 108 636 c 2,12,-1
 514 636 l 2,13,14
 548 636 548 636 548 608 c 0,15,16
 548 584 548 584 514 584 c 2,17,-1
 136 584 l 1,18,-1
 136 384 l 1,19,-1
 395 384 l 2,20,21
 431 384 431 384 431 356 c 0,22,23
 431 332 431 332 395 332 c 2,24,-1
 136 332 l 1,0,-1
326 675 m 1,25,-1
 270 675 l 1,26,-1
 166 784 l 2,27,28
 159 791 159 791 159 799 c 0,29,30
 159 819 159 819 182 819 c 0,31,32
 194 819 194 819 214 802 c 2,33,-1
 298 732 l 1,34,-1
 382 802 l 2,35,36
 402 819 402 819 414 819 c 0,37,38
 437 819 437 819 437 799 c 0,39,40
 437 791 437 791 430 784 c 2,41,-1
 326 675 l 1,25,-1
EndSplineSet
EndChar

StartChar: ecaron
Encoding: 283 283 218
Width: 592
GlyphClass: 2
Flags: W
LayerCount: 2
Fore
SplineSet
328 522 m 1,0,-1
 272 522 l 1,1,-1
 168 631 l 2,2,3
 161 638 161 638 161 646 c 0,4,5
 161 666 161 666 184 666 c 0,6,7
 196 666 196 666 216 649 c 2,8,-1
 300 579 l 1,9,-1
 384 649 l 2,10,11
 404 666 404 666 416 666 c 0,12,13
 439 666 439 666 439 646 c 0,14,15
 439 638 439 638 432 631 c 2,16,-1
 328 522 l 1,0,-1
536 285 m 2,17,-1
 536 245 l 1,18,-1
 114 245 l 1,19,-1
 114 177 l 2,20,21
 114 134 114 134 122.5 109 c 128,-1,22
 131 84 131 84 155 71.5 c 128,-1,23
 179 59 179 59 206.5 55.5 c 128,-1,24
 234 52 234 52 285 52 c 2,25,-1
 419 52 l 2,26,27
 451 52 451 52 462.5 66 c 128,-1,28
 474 80 474 80 474 114 c 0,29,30
 474 147 474 147 500 147 c 128,-1,31
 526 147 526 147 526 111 c 0,32,33
 526 88 526 88 523 71 c 128,-1,34
 520 54 520 54 510.5 36.5 c 128,-1,35
 501 19 501 19 479.5 9.5 c 128,-1,36
 458 0 458 0 426 0 c 2,37,-1
 285 0 l 2,38,39
 170 0 170 0 116 35.5 c 128,-1,40
 62 71 62 71 62 176 c 2,41,-1
 62 285 l 2,42,43
 62 390 62 390 116 425.5 c 128,-1,44
 170 461 170 461 285 461 c 2,45,-1
 314 461 l 2,46,47
 429 461 429 461 482.5 425.5 c 128,-1,48
 536 390 536 390 536 285 c 2,17,-1
314 409 m 2,49,-1
 285 409 l 2,50,51
 188 409 188 409 151.5 388.5 c 128,-1,52
 115 368 115 368 114 297 c 1,53,-1
 484 297 l 1,54,55
 483 368 483 368 446.5 388.5 c 128,-1,56
 410 409 410 409 314 409 c 2,49,-1
EndSplineSet
EndChar

StartChar: Gcircumflex
Encoding: 284 284 219
Width: 606
GlyphClass: 2
Flags: W
LayerCount: 2
Fore
SplineSet
484 246 m 1,0,-1
 353 246 l 2,1,2
 317 246 317 246 317 271 c 0,3,4
 317 298 317 298 353 298 c 2,5,-1
 536 298 l 1,6,-1
 536 109 l 2,7,8
 536 60 536 60 516.5 30 c 128,-1,9
 497 0 497 0 436 0 c 2,10,-1
 289 0 l 2,11,12
 234 0 234 0 198 6.5 c 128,-1,13
 162 13 162 13 131.5 31 c 128,-1,14
 101 49 101 49 86.5 85 c 128,-1,15
 72 121 72 121 72 177 c 2,16,-1
 72 459 l 2,17,18
 72 565 72 565 125.5 600.5 c 128,-1,19
 179 636 179 636 295 636 c 2,20,-1
 436 636 l 2,21,22
 468 636 468 636 489.5 626.5 c 128,-1,23
 511 617 511 617 520.5 599.5 c 128,-1,24
 530 582 530 582 533 565 c 128,-1,25
 536 548 536 548 536 525 c 0,26,27
 536 489 536 489 510 489 c 128,-1,28
 484 489 484 489 484 523 c 0,29,30
 484 556 484 556 472.5 570 c 128,-1,31
 461 584 461 584 429 584 c 2,32,-1
 295 584 l 2,33,34
 196 584 196 584 160 561.5 c 128,-1,35
 124 539 124 539 124 458 c 2,36,-1
 124 178 l 2,37,38
 124 97 124 97 159.5 74.5 c 128,-1,39
 195 52 195 52 289 52 c 2,40,-1
 429 52 l 2,41,42
 461 52 461 52 472.5 65.5 c 128,-1,43
 484 79 484 79 484 112 c 2,44,-1
 484 246 l 1,0,-1
168 687 m 2,45,-1
 273 819 l 1,46,-1
 332 819 l 1,47,-1
 439 687 l 2,48,49
 445 679 445 679 445 669 c 0,50,51
 445 646 445 646 422 646 c 0,52,53
 417 646 417 646 412.5 648 c 128,-1,54
 408 650 408 650 406.5 651.5 c 128,-1,55
 405 653 405 653 400 659 c 128,-1,56
 395 665 395 665 394 666 c 2,57,-1
 303 762 l 1,58,-1
 213 666 l 2,59,60
 211 664 211 664 208 660 c 128,-1,61
 205 656 205 656 203 654.5 c 128,-1,62
 201 653 201 653 198.5 650.5 c 128,-1,63
 196 648 196 648 192.5 647 c 128,-1,64
 189 646 189 646 185 646 c 0,65,66
 162 646 162 646 162 669 c 0,67,68
 162 679 162 679 168 687 c 2,45,-1
EndSplineSet
EndChar

StartChar: gcircumflex
Encoding: 285 285 220
Width: 611
GlyphClass: 2
Flags: W
LayerCount: 2
Fore
SplineSet
536 -87 m 2,0,1
 536 -152 536 -152 517 -178.5 c 128,-1,2
 498 -205 498 -205 445 -205 c 2,3,-1
 162 -205 l 2,4,5
 130 -205 130 -205 108.5 -195.5 c 128,-1,6
 87 -186 87 -186 77.5 -168 c 128,-1,7
 68 -150 68 -150 65 -133 c 128,-1,8
 62 -116 62 -116 62 -93 c 0,9,10
 62 -58 62 -58 88 -58 c 128,-1,11
 114 -58 114 -58 114 -91 c 0,12,13
 114 -126 114 -126 126 -139.5 c 128,-1,14
 138 -153 138 -153 169 -153 c 2,15,-1
 438 -153 l 2,16,17
 467 -153 467 -153 475.5 -143 c 128,-1,18
 484 -133 484 -133 484 -103 c 2,19,-1
 484 0 l 1,20,-1
 284 0 l 2,21,22
 169 0 169 0 115.5 35.5 c 128,-1,23
 62 71 62 71 62 176 c 2,24,-1
 62 285 l 2,25,26
 62 390 62 390 115.5 425.5 c 128,-1,27
 169 461 169 461 284 461 c 2,28,-1
 313 461 l 2,29,30
 425 461 425 461 484 398 c 1,31,-1
 484 433 l 2,32,33
 484 468 484 468 510 468 c 128,-1,34
 536 468 536 468 536 434 c 2,35,-1
 536 -87 l 2,0,1
484 52 m 1,36,-1
 484 233 l 2,37,38
 484 409 484 409 313 409 c 2,39,-1
 284 409 l 2,40,41
 233 409 233 409 205.5 405.5 c 128,-1,42
 178 402 178 402 154.5 389.5 c 128,-1,43
 131 377 131 377 122.5 352 c 128,-1,44
 114 327 114 327 114 284 c 2,45,-1
 114 177 l 2,46,47
 114 134 114 134 122.5 109 c 128,-1,48
 131 84 131 84 154.5 71.5 c 128,-1,49
 178 59 178 59 205.5 55.5 c 128,-1,50
 233 52 233 52 284 52 c 2,51,-1
 484 52 l 1,36,-1
164 565 m 2,52,-1
 269 697 l 1,53,-1
 328 697 l 1,54,-1
 435 565 l 2,55,56
 441 557 441 557 441 547 c 0,57,58
 441 524 441 524 418 524 c 0,59,60
 413 524 413 524 408.5 526 c 128,-1,61
 404 528 404 528 402.5 529.5 c 128,-1,62
 401 531 401 531 396 537 c 128,-1,63
 391 543 391 543 390 544 c 2,64,-1
 299 640 l 1,65,-1
 209 544 l 2,66,67
 207 542 207 542 204 538 c 128,-1,68
 201 534 201 534 199 532.5 c 128,-1,69
 197 531 197 531 194.5 528.5 c 128,-1,70
 192 526 192 526 188.5 525 c 128,-1,71
 185 524 185 524 181 524 c 0,72,73
 158 524 158 524 158 547 c 0,74,75
 158 557 158 557 164 565 c 2,52,-1
EndSplineSet
EndChar

StartChar: Gbreve
Encoding: 286 286 221
Width: 606
GlyphClass: 2
Flags: W
LayerCount: 2
Fore
SplineSet
484 246 m 1,0,-1
 353 246 l 2,1,2
 317 246 317 246 317 271 c 0,3,4
 317 298 317 298 353 298 c 2,5,-1
 536 298 l 1,6,-1
 536 109 l 2,7,8
 536 60 536 60 516.5 30 c 128,-1,9
 497 0 497 0 436 0 c 2,10,-1
 289 0 l 2,11,12
 234 0 234 0 198 6.5 c 128,-1,13
 162 13 162 13 131.5 31 c 128,-1,14
 101 49 101 49 86.5 85 c 128,-1,15
 72 121 72 121 72 177 c 2,16,-1
 72 459 l 2,17,18
 72 565 72 565 125.5 600.5 c 128,-1,19
 179 636 179 636 295 636 c 2,20,-1
 436 636 l 2,21,22
 468 636 468 636 489.5 626.5 c 128,-1,23
 511 617 511 617 520.5 599.5 c 128,-1,24
 530 582 530 582 533 565 c 128,-1,25
 536 548 536 548 536 525 c 0,26,27
 536 489 536 489 510 489 c 128,-1,28
 484 489 484 489 484 523 c 0,29,30
 484 556 484 556 472.5 570 c 128,-1,31
 461 584 461 584 429 584 c 2,32,-1
 295 584 l 2,33,34
 196 584 196 584 160 561.5 c 128,-1,35
 124 539 124 539 124 458 c 2,36,-1
 124 178 l 2,37,38
 124 97 124 97 159.5 74.5 c 128,-1,39
 195 52 195 52 289 52 c 2,40,-1
 429 52 l 2,41,42
 461 52 461 52 472.5 65.5 c 128,-1,43
 484 79 484 79 484 112 c 2,44,-1
 484 246 l 1,0,-1
305 688 m 0,45,46
 259 688 259 688 222 723.5 c 128,-1,47
 185 759 185 759 185 819 c 1,48,-1
 238 819 l 1,49,50
 238 776 238 776 258.5 759 c 128,-1,51
 279 742 279 742 305 742 c 128,-1,52
 331 742 331 742 351.5 759 c 128,-1,53
 372 776 372 776 372 819 c 1,54,-1
 425 819 l 1,55,56
 425 758 425 758 387.5 723 c 128,-1,57
 350 688 350 688 305 688 c 0,45,46
EndSplineSet
EndChar

StartChar: gbreve
Encoding: 287 287 222
Width: 611
GlyphClass: 2
Flags: W
LayerCount: 2
Fore
SplineSet
283 529 m 0,0,1
 237 529 237 529 200 564.5 c 128,-1,2
 163 600 163 600 163 660 c 1,3,-1
 216 660 l 1,4,5
 216 617 216 617 236.5 600 c 128,-1,6
 257 583 257 583 283 583 c 128,-1,7
 309 583 309 583 329.5 600 c 128,-1,8
 350 617 350 617 350 660 c 1,9,-1
 403 660 l 1,10,11
 403 599 403 599 365.5 564 c 128,-1,12
 328 529 328 529 283 529 c 0,0,1
536 -87 m 2,13,14
 536 -152 536 -152 517 -178.5 c 128,-1,15
 498 -205 498 -205 445 -205 c 2,16,-1
 162 -205 l 2,17,18
 130 -205 130 -205 108.5 -195.5 c 128,-1,19
 87 -186 87 -186 77.5 -168 c 128,-1,20
 68 -150 68 -150 65 -133 c 128,-1,21
 62 -116 62 -116 62 -93 c 0,22,23
 62 -58 62 -58 88 -58 c 128,-1,24
 114 -58 114 -58 114 -91 c 0,25,26
 114 -126 114 -126 126 -139.5 c 128,-1,27
 138 -153 138 -153 169 -153 c 2,28,-1
 438 -153 l 2,29,30
 467 -153 467 -153 475.5 -143 c 128,-1,31
 484 -133 484 -133 484 -103 c 2,32,-1
 484 0 l 1,33,-1
 284 0 l 2,34,35
 169 0 169 0 115.5 35.5 c 128,-1,36
 62 71 62 71 62 176 c 2,37,-1
 62 285 l 2,38,39
 62 390 62 390 115.5 425.5 c 128,-1,40
 169 461 169 461 284 461 c 2,41,-1
 313 461 l 2,42,43
 425 461 425 461 484 398 c 1,44,-1
 484 433 l 2,45,46
 484 468 484 468 510 468 c 128,-1,47
 536 468 536 468 536 434 c 2,48,-1
 536 -87 l 2,13,14
484 52 m 1,49,-1
 484 233 l 2,50,51
 484 409 484 409 313 409 c 2,52,-1
 284 409 l 2,53,54
 233 409 233 409 205.5 405.5 c 128,-1,55
 178 402 178 402 154.5 389.5 c 128,-1,56
 131 377 131 377 122.5 352 c 128,-1,57
 114 327 114 327 114 284 c 2,58,-1
 114 177 l 2,59,60
 114 134 114 134 122.5 109 c 128,-1,61
 131 84 131 84 154.5 71.5 c 128,-1,62
 178 59 178 59 205.5 55.5 c 128,-1,63
 233 52 233 52 284 52 c 2,64,-1
 484 52 l 1,49,-1
EndSplineSet
EndChar

StartChar: Gdotaccent
Encoding: 288 288 223
Width: 606
GlyphClass: 2
Flags: W
LayerCount: 2
Fore
SplineSet
484 246 m 1,0,-1
 353 246 l 2,1,2
 317 246 317 246 317 271 c 0,3,4
 317 298 317 298 353 298 c 2,5,-1
 536 298 l 1,6,-1
 536 109 l 2,7,8
 536 60 536 60 516.5 30 c 128,-1,9
 497 0 497 0 436 0 c 2,10,-1
 289 0 l 2,11,12
 234 0 234 0 198 6.5 c 128,-1,13
 162 13 162 13 131.5 31 c 128,-1,14
 101 49 101 49 86.5 85 c 128,-1,15
 72 121 72 121 72 177 c 2,16,-1
 72 459 l 2,17,18
 72 565 72 565 125.5 600.5 c 128,-1,19
 179 636 179 636 295 636 c 2,20,-1
 436 636 l 2,21,22
 468 636 468 636 489.5 626.5 c 128,-1,23
 511 617 511 617 520.5 599.5 c 128,-1,24
 530 582 530 582 533 565 c 128,-1,25
 536 548 536 548 536 525 c 0,26,27
 536 489 536 489 510 489 c 128,-1,28
 484 489 484 489 484 523 c 0,29,30
 484 556 484 556 472.5 570 c 128,-1,31
 461 584 461 584 429 584 c 2,32,-1
 295 584 l 2,33,34
 196 584 196 584 160 561.5 c 128,-1,35
 124 539 124 539 124 458 c 2,36,-1
 124 178 l 2,37,38
 124 97 124 97 159.5 74.5 c 128,-1,39
 195 52 195 52 289 52 c 2,40,-1
 429 52 l 2,41,42
 461 52 461 52 472.5 65.5 c 128,-1,43
 484 79 484 79 484 112 c 2,44,-1
 484 246 l 1,0,-1
289 783 m 0,45,46
 305 783 305 783 322.5 771 c 128,-1,47
 340 759 340 759 340 742 c 128,-1,48
 340 725 340 725 322.5 713 c 128,-1,49
 305 701 305 701 289 701 c 0,50,51
 272 701 272 701 255 713 c 128,-1,52
 238 725 238 725 238 742 c 128,-1,53
 238 759 238 759 255 771 c 128,-1,54
 272 783 272 783 289 783 c 0,45,46
EndSplineSet
EndChar

StartChar: gdotaccent
Encoding: 289 289 224
Width: 611
GlyphClass: 2
Flags: W
LayerCount: 2
Fore
SplineSet
536 -87 m 2,0,1
 536 -152 536 -152 517 -178.5 c 128,-1,2
 498 -205 498 -205 445 -205 c 2,3,-1
 162 -205 l 2,4,5
 130 -205 130 -205 108.5 -195.5 c 128,-1,6
 87 -186 87 -186 77.5 -168 c 128,-1,7
 68 -150 68 -150 65 -133 c 128,-1,8
 62 -116 62 -116 62 -93 c 0,9,10
 62 -58 62 -58 88 -58 c 128,-1,11
 114 -58 114 -58 114 -91 c 0,12,13
 114 -126 114 -126 126 -139.5 c 128,-1,14
 138 -153 138 -153 169 -153 c 2,15,-1
 438 -153 l 2,16,17
 467 -153 467 -153 475.5 -143 c 128,-1,18
 484 -133 484 -133 484 -103 c 2,19,-1
 484 0 l 1,20,-1
 284 0 l 2,21,22
 169 0 169 0 115.5 35.5 c 128,-1,23
 62 71 62 71 62 176 c 2,24,-1
 62 285 l 2,25,26
 62 390 62 390 115.5 425.5 c 128,-1,27
 169 461 169 461 284 461 c 2,28,-1
 313 461 l 2,29,30
 425 461 425 461 484 398 c 1,31,-1
 484 433 l 2,32,33
 484 468 484 468 510 468 c 128,-1,34
 536 468 536 468 536 434 c 2,35,-1
 536 -87 l 2,0,1
484 52 m 1,36,-1
 484 233 l 2,37,38
 484 409 484 409 313 409 c 2,39,-1
 284 409 l 2,40,41
 233 409 233 409 205.5 405.5 c 128,-1,42
 178 402 178 402 154.5 389.5 c 128,-1,43
 131 377 131 377 122.5 352 c 128,-1,44
 114 327 114 327 114 284 c 2,45,-1
 114 177 l 2,46,47
 114 134 114 134 122.5 109 c 128,-1,48
 131 84 131 84 154.5 71.5 c 128,-1,49
 178 59 178 59 205.5 55.5 c 128,-1,50
 233 52 233 52 284 52 c 2,51,-1
 484 52 l 1,36,-1
299 606 m 0,52,53
 315 606 315 606 332.5 594 c 128,-1,54
 350 582 350 582 350 565 c 128,-1,55
 350 548 350 548 332.5 536 c 128,-1,56
 315 524 315 524 299 524 c 0,57,58
 282 524 282 524 265 536 c 128,-1,59
 248 548 248 548 248 565 c 128,-1,60
 248 582 248 582 265 594 c 128,-1,61
 282 606 282 606 299 606 c 0,52,53
EndSplineSet
EndChar

StartChar: Gcommaaccent
Encoding: 290 290 225
Width: 606
GlyphClass: 2
Flags: W
LayerCount: 2
Fore
SplineSet
355 -79 m 0,0,1
 355 -89 355 -89 350 -98 c 2,2,-1
 309 -181 l 1,3,4
 299 -205 299 -205 284 -205 c 0,5,6
 262 -205 262 -205 262 -180 c 0,7,8
 262 -176 262 -176 265 -164 c 2,9,-1
 289 -77 l 2,10,11
 296 -54 296 -54 314 -54 c 0,12,13
 325 -54 325 -54 340 -60 c 128,-1,14
 355 -66 355 -66 355 -79 c 0,0,1
484 246 m 1,15,-1
 353 246 l 2,16,17
 317 246 317 246 317 271 c 0,18,19
 317 298 317 298 353 298 c 2,20,-1
 536 298 l 1,21,-1
 536 109 l 2,22,23
 536 60 536 60 516.5 30 c 128,-1,24
 497 0 497 0 436 0 c 2,25,-1
 289 0 l 2,26,27
 234 0 234 0 198 6.5 c 128,-1,28
 162 13 162 13 131.5 31 c 128,-1,29
 101 49 101 49 86.5 85 c 128,-1,30
 72 121 72 121 72 177 c 2,31,-1
 72 459 l 2,32,33
 72 565 72 565 125.5 600.5 c 128,-1,34
 179 636 179 636 295 636 c 2,35,-1
 436 636 l 2,36,37
 468 636 468 636 489.5 626.5 c 128,-1,38
 511 617 511 617 520.5 599.5 c 128,-1,39
 530 582 530 582 533 565 c 128,-1,40
 536 548 536 548 536 525 c 0,41,42
 536 489 536 489 510 489 c 128,-1,43
 484 489 484 489 484 523 c 0,44,45
 484 556 484 556 472.5 570 c 128,-1,46
 461 584 461 584 429 584 c 2,47,-1
 295 584 l 2,48,49
 196 584 196 584 160 561.5 c 128,-1,50
 124 539 124 539 124 458 c 2,51,-1
 124 178 l 2,52,53
 124 97 124 97 159.5 74.5 c 128,-1,54
 195 52 195 52 289 52 c 2,55,-1
 429 52 l 2,56,57
 461 52 461 52 472.5 65.5 c 128,-1,58
 484 79 484 79 484 112 c 2,59,-1
 484 246 l 1,15,-1
EndSplineSet
EndChar

StartChar: gcommaaccent
Encoding: 291 291 226
Width: 611
GlyphClass: 2
Flags: W
LayerCount: 2
Fore
SplineSet
272 554 m 0,0,1
 272 564 272 564 277 573 c 2,2,-1
 318 656 l 1,3,4
 328 680 328 680 343 680 c 0,5,6
 365 680 365 680 365 655 c 0,7,8
 365 651 365 651 362 639 c 2,9,-1
 338 553 l 2,10,11
 331 529 331 529 313 529 c 0,12,13
 302 529 302 529 287 535 c 128,-1,14
 272 541 272 541 272 554 c 0,0,1
536 -87 m 2,15,16
 536 -152 536 -152 517 -178.5 c 128,-1,17
 498 -205 498 -205 445 -205 c 2,18,-1
 162 -205 l 2,19,20
 130 -205 130 -205 108.5 -195.5 c 128,-1,21
 87 -186 87 -186 77.5 -168 c 128,-1,22
 68 -150 68 -150 65 -133 c 128,-1,23
 62 -116 62 -116 62 -93 c 0,24,25
 62 -58 62 -58 88 -58 c 128,-1,26
 114 -58 114 -58 114 -91 c 0,27,28
 114 -126 114 -126 126 -139.5 c 128,-1,29
 138 -153 138 -153 169 -153 c 2,30,-1
 438 -153 l 2,31,32
 467 -153 467 -153 475.5 -143 c 128,-1,33
 484 -133 484 -133 484 -103 c 2,34,-1
 484 0 l 1,35,-1
 284 0 l 2,36,37
 169 0 169 0 115.5 35.5 c 128,-1,38
 62 71 62 71 62 176 c 2,39,-1
 62 285 l 2,40,41
 62 390 62 390 115.5 425.5 c 128,-1,42
 169 461 169 461 284 461 c 2,43,-1
 313 461 l 2,44,45
 425 461 425 461 484 398 c 1,46,-1
 484 433 l 2,47,48
 484 468 484 468 510 468 c 128,-1,49
 536 468 536 468 536 434 c 2,50,-1
 536 -87 l 2,15,16
484 52 m 1,51,-1
 484 233 l 2,52,53
 484 409 484 409 313 409 c 2,54,-1
 284 409 l 2,55,56
 233 409 233 409 205.5 405.5 c 128,-1,57
 178 402 178 402 154.5 389.5 c 128,-1,58
 131 377 131 377 122.5 352 c 128,-1,59
 114 327 114 327 114 284 c 2,60,-1
 114 177 l 2,61,62
 114 134 114 134 122.5 109 c 128,-1,63
 131 84 131 84 154.5 71.5 c 128,-1,64
 178 59 178 59 205.5 55.5 c 128,-1,65
 233 52 233 52 284 52 c 2,66,-1
 484 52 l 1,51,-1
EndSplineSet
EndChar

StartChar: Hcircumflex
Encoding: 292 292 227
Width: 632
GlyphClass: 2
Flags: W
LayerCount: 2
Fore
SplineSet
136 27 m 2,0,1
 136 -7 136 -7 110 -7 c 128,-1,2
 84 -7 84 -7 84 27 c 2,3,-1
 84 608 l 2,4,5
 84 643 84 643 108 643 c 0,6,7
 136 643 136 643 136 608 c 2,8,-1
 136 369 l 1,9,-1
 496 369 l 1,10,-1
 496 608 l 2,11,12
 496 643 496 643 521 643 c 0,13,14
 548 643 548 643 548 608 c 2,15,-1
 548 27 l 2,16,17
 548 -7 548 -7 523 -7 c 0,18,19
 496 -7 496 -7 496 27 c 2,20,-1
 496 317 l 1,21,-1
 136 317 l 1,22,-1
 136 27 l 2,0,1
183 687 m 2,23,-1
 288 819 l 1,24,-1
 347 819 l 1,25,-1
 454 687 l 2,26,27
 460 679 460 679 460 669 c 0,28,29
 460 646 460 646 437 646 c 0,30,31
 432 646 432 646 427.5 648 c 128,-1,32
 423 650 423 650 421.5 651.5 c 128,-1,33
 420 653 420 653 415 659 c 128,-1,34
 410 665 410 665 409 666 c 2,35,-1
 318 762 l 1,36,-1
 228 666 l 2,37,38
 226 664 226 664 223 660 c 128,-1,39
 220 656 220 656 218 654.5 c 128,-1,40
 216 653 216 653 213.5 650.5 c 128,-1,41
 211 648 211 648 207.5 647 c 128,-1,42
 204 646 204 646 200 646 c 0,43,44
 177 646 177 646 177 669 c 0,45,46
 177 679 177 679 183 687 c 2,23,-1
EndSplineSet
EndChar

StartChar: hcircumflex
Encoding: 293 293 228
Width: 619
GlyphClass: 2
Flags: W
LayerCount: 2
Fore
SplineSet
298 409 m 2,0,1
 213 409 213 409 170 363.5 c 128,-1,2
 127 318 127 318 127 231 c 2,3,-1
 127 27 l 2,4,5
 127 -7 127 -7 101 -7 c 128,-1,6
 75 -7 75 -7 75 27 c 2,7,-1
 75 607 l 2,8,9
 75 643 75 643 99 643 c 0,10,11
 127 643 127 643 127 607 c 2,12,-1
 127 398 l 1,13,14
 186 461 186 461 298 461 c 2,15,-1
 327 461 l 2,16,17
 442 461 442 461 495.5 425.5 c 128,-1,18
 549 390 549 390 549 285 c 2,19,-1
 549 27 l 2,20,21
 549 -7 549 -7 524 -7 c 0,22,23
 497 -7 497 -7 497 27 c 2,24,-1
 497 284 l 2,25,26
 497 327 497 327 488.5 352 c 128,-1,27
 480 377 480 377 456.5 389.5 c 128,-1,28
 433 402 433 402 405.5 405.5 c 128,-1,29
 378 409 378 409 327 409 c 2,30,-1
 298 409 l 2,0,1
177 687 m 2,31,-1
 282 819 l 1,32,-1
 341 819 l 1,33,-1
 448 687 l 2,34,35
 454 679 454 679 454 669 c 0,36,37
 454 646 454 646 431 646 c 0,38,39
 426 646 426 646 421.5 648 c 128,-1,40
 417 650 417 650 415.5 651.5 c 128,-1,41
 414 653 414 653 409 659 c 128,-1,42
 404 665 404 665 403 666 c 2,43,-1
 312 762 l 1,44,-1
 222 666 l 2,45,46
 220 664 220 664 217 660 c 128,-1,47
 214 656 214 656 212 654.5 c 128,-1,48
 210 653 210 653 207.5 650.5 c 128,-1,49
 205 648 205 648 201.5 647 c 128,-1,50
 198 646 198 646 194 646 c 0,51,52
 171 646 171 646 171 669 c 0,53,54
 171 679 171 679 177 687 c 2,31,-1
EndSplineSet
EndChar

StartChar: Hbar
Encoding: 294 294 229
Width: 636
GlyphClass: 2
Flags: W
LayerCount: 2
Fore
SplineSet
54 508 m 2,0,1
 28 508 28 508 28 530 c 0,2,3
 28 551 28 551 54 551 c 2,4,-1
 86 551 l 1,5,-1
 86 608 l 2,6,7
 86 643 86 643 110 643 c 0,8,9
 138 643 138 643 138 608 c 2,10,-1
 138 551 l 1,11,-1
 498 551 l 1,12,-1
 498 608 l 2,13,14
 498 643 498 643 523 643 c 0,15,16
 550 643 550 643 550 608 c 2,17,-1
 550 551 l 1,18,-1
 579 551 l 2,19,20
 608 551 608 551 608 528 c 0,21,22
 608 508 608 508 579 508 c 2,23,-1
 550 508 l 1,24,-1
 550 27 l 2,25,26
 550 -7 550 -7 525 -7 c 0,27,28
 498 -7 498 -7 498 27 c 2,29,-1
 498 317 l 1,30,-1
 138 317 l 1,31,-1
 138 27 l 2,32,33
 138 -7 138 -7 112 -7 c 128,-1,34
 86 -7 86 -7 86 27 c 2,35,-1
 86 508 l 1,36,-1
 54 508 l 2,0,1
498 508 m 1,37,-1
 138 508 l 1,38,-1
 138 369 l 1,39,-1
 498 369 l 1,40,-1
 498 508 l 1,37,-1
EndSplineSet
EndChar

StartChar: hbar
Encoding: 295 295 230
Width: 619
GlyphClass: 2
Flags: W
LayerCount: 2
Fore
SplineSet
75 553 m 1,0,-1
 75 607 l 2,1,2
 75 643 75 643 99 643 c 0,3,4
 127 643 127 643 127 607 c 2,5,-1
 127 553 l 1,6,-1
 337 553 l 2,7,8
 375 553 375 553 375 525 c 0,9,10
 375 500 375 500 337 500 c 2,11,-1
 127 500 l 1,12,-1
 127 398 l 1,13,14
 186 461 186 461 298 461 c 2,15,-1
 327 461 l 2,16,17
 442 461 442 461 495.5 425.5 c 128,-1,18
 549 390 549 390 549 285 c 2,19,-1
 549 27 l 2,20,21
 549 -7 549 -7 524 -7 c 0,22,23
 497 -7 497 -7 497 27 c 2,24,-1
 497 284 l 2,25,26
 497 327 497 327 488.5 352 c 128,-1,27
 480 377 480 377 456.5 389.5 c 128,-1,28
 433 402 433 402 405.5 405.5 c 128,-1,29
 378 409 378 409 327 409 c 2,30,-1
 298 409 l 2,31,32
 214 409 214 409 170.5 363.5 c 128,-1,33
 127 318 127 318 127 231 c 2,34,-1
 127 27 l 2,35,36
 127 -7 127 -7 101 -7 c 128,-1,37
 75 -7 75 -7 75 27 c 2,38,-1
 75 500 l 1,39,40
 37 500 37 500 37 528 c 0,41,42
 37 553 37 553 75 553 c 1,0,-1
EndSplineSet
EndChar

StartChar: Itilde
Encoding: 296 296 231
Width: 220
GlyphClass: 2
Flags: W
LayerCount: 2
Fore
SplineSet
164 763 m 1,0,1
 167 763 167 763 172 767 c 2,2,-1
 203 795 l 1,3,4
 216 804 216 804 225 804 c 0,5,6
 235 804 235 804 243 798 c 128,-1,7
 251 792 251 792 251 781 c 0,8,9
 251 767 251 767 237 754 c 1,10,-1
 190 715 l 1,11,12
 182 707 182 707 171 707 c 0,13,14
 169 707 169 707 167 707.5 c 128,-1,15
 165 708 165 708 163.5 708 c 128,-1,16
 162 708 162 708 160 708 c 1,17,-1
 159 709 l 1,18,-1
 61 745 l 1,19,20
 59 747 59 747 55 747 c 0,21,22
 52 747 52 747 47 743 c 2,23,-1
 16 715 l 1,24,25
 3 706 3 706 -6 706 c 128,-1,26
 -15 706 -15 706 -23 712.5 c 128,-1,27
 -31 719 -31 719 -31 730 c 0,28,29
 -31 745 -31 745 -17 756 c 2,30,-1
 29 794 l 1,31,32
 36 803 36 803 48 803 c 0,33,34
 50 803 50 803 55 802 c 128,-1,35
 60 801 60 801 61 801 c 2,36,-1
 159 765 l 1,37,-1
 164 763 l 1,0,1
136 25 m 2,38,39
 136 -7 136 -7 109 -7 c 0,40,41
 84 -7 84 -7 84 25 c 2,42,-1
 84 610 l 2,43,44
 84 643 84 643 110 643 c 128,-1,45
 136 643 136 643 136 610 c 2,46,-1
 136 25 l 2,38,39
EndSplineSet
EndChar

StartChar: itilde
Encoding: 297 297 232
Width: 200
GlyphClass: 2
Flags: W
LayerCount: 2
Fore
SplineSet
154 591 m 1,0,1
 157 591 157 591 162 595 c 2,2,-1
 193 623 l 1,3,4
 206 632 206 632 215 632 c 0,5,6
 225 632 225 632 233 626 c 128,-1,7
 241 620 241 620 241 609 c 0,8,9
 241 595 241 595 227 582 c 1,10,-1
 180 543 l 1,11,12
 172 535 172 535 161 535 c 0,13,14
 159 535 159 535 157 535.5 c 128,-1,15
 155 536 155 536 153.5 536 c 128,-1,16
 152 536 152 536 150 536 c 1,17,-1
 149 537 l 1,18,-1
 51 573 l 1,19,20
 49 575 49 575 45 575 c 0,21,22
 42 575 42 575 37 571 c 2,23,-1
 6 543 l 1,24,25
 -7 534 -7 534 -16 534 c 128,-1,26
 -25 534 -25 534 -33 540.5 c 128,-1,27
 -41 547 -41 547 -41 558 c 0,28,29
 -41 573 -41 573 -27 584 c 2,30,-1
 19 622 l 1,31,32
 26 631 26 631 38 631 c 0,33,34
 40 631 40 631 45 630 c 128,-1,35
 50 629 50 629 51 629 c 2,36,-1
 149 593 l 1,37,-1
 154 591 l 1,0,1
99 -12 m 0,38,39
 74 -12 74 -12 74 20 c 2,40,-1
 74 440 l 2,41,42
 74 473 74 473 100 473 c 128,-1,43
 126 473 126 473 126 440 c 2,44,-1
 126 20 l 2,45,46
 126 -12 126 -12 99 -12 c 0,38,39
EndSplineSet
EndChar

StartChar: Imacron
Encoding: 298 298 233
Width: 220
GlyphClass: 2
Flags: W
LayerCount: 2
Fore
SplineSet
-45 733 m 0,0,1
 -45 759 -45 759 -14 759 c 2,2,-1
 231 759 l 2,3,4
 265 759 265 759 265 731 c 0,5,6
 265 720 265 720 255.5 713 c 128,-1,7
 246 706 246 706 231 706 c 2,8,-1
 -14 706 l 2,9,10
 -45 706 -45 706 -45 733 c 0,0,1
136 25 m 2,11,12
 136 -7 136 -7 109 -7 c 0,13,14
 84 -7 84 -7 84 25 c 2,15,-1
 84 610 l 2,16,17
 84 643 84 643 110 643 c 128,-1,18
 136 643 136 643 136 610 c 2,19,-1
 136 25 l 2,11,12
EndSplineSet
EndChar

StartChar: imacron
Encoding: 299 299 234
Width: 200
GlyphClass: 2
Flags: W
LayerCount: 2
Fore
SplineSet
-55 561 m 0,0,1
 -55 587 -55 587 -24 587 c 2,2,-1
 221 587 l 2,3,4
 255 587 255 587 255 559 c 0,5,6
 255 548 255 548 245.5 541 c 128,-1,7
 236 534 236 534 221 534 c 2,8,-1
 -24 534 l 2,9,10
 -55 534 -55 534 -55 561 c 0,0,1
99 -12 m 0,11,12
 74 -12 74 -12 74 20 c 2,13,-1
 74 440 l 2,14,15
 74 473 74 473 100 473 c 128,-1,16
 126 473 126 473 126 440 c 2,17,-1
 126 20 l 2,18,19
 126 -12 126 -12 99 -12 c 0,11,12
EndSplineSet
EndChar

StartChar: Iogonek
Encoding: 302 302 235
Width: 221
GlyphClass: 2
Flags: W
LayerCount: 2
Fore
SplineSet
78 -91 m 0,0,1
 78 -145 78 -145 120 -145 c 0,2,3
 136 -145 136 -145 158 -136.5 c 128,-1,4
 180 -128 180 -128 186 -128 c 0,5,6
 201 -128 201 -128 201 -145 c 0,7,8
 201 -171 201 -171 174 -183 c 128,-1,9
 147 -195 147 -195 122 -195 c 0,10,11
 81 -195 81 -195 53.5 -166 c 128,-1,12
 26 -137 26 -137 26 -91 c 0,13,14
 26 -47 26 -47 85 25 c 1,15,-1
 85 610 l 2,16,17
 85 643 85 643 111 643 c 128,-1,18
 137 643 137 643 137 610 c 2,19,-1
 137 25 l 2,20,21
 137 7 137 7 126 -3 c 0,22,23
 106 -20 106 -20 92 -49 c 128,-1,24
 78 -78 78 -78 78 -91 c 0,0,1
EndSplineSet
EndChar

StartChar: iogonek
Encoding: 303 303 236
Width: 201
GlyphClass: 2
Flags: W
LayerCount: 2
Fore
SplineSet
101 642 m 0,0,1
 117 642 117 642 134.5 630 c 128,-1,2
 152 618 152 618 152 601 c 128,-1,3
 152 584 152 584 134.5 572 c 128,-1,4
 117 560 117 560 101 560 c 0,5,6
 84 560 84 560 67 572 c 128,-1,7
 50 584 50 584 50 601 c 128,-1,8
 50 618 50 618 67 630 c 128,-1,9
 84 642 84 642 101 642 c 0,0,1
62 -101 m 0,10,11
 62 -155 62 -155 104 -155 c 0,12,13
 120 -155 120 -155 142 -146.5 c 128,-1,14
 164 -138 164 -138 170 -138 c 0,15,16
 185 -138 185 -138 185 -155 c 0,17,18
 185 -181 185 -181 158 -193 c 128,-1,19
 131 -205 131 -205 106 -205 c 0,20,21
 65 -205 65 -205 37.5 -176 c 128,-1,22
 10 -147 10 -147 10 -101 c 0,23,24
 10 -78 10 -78 30 -42.5 c 128,-1,25
 50 -7 50 -7 75 22 c 1,26,-1
 75 440 l 2,27,28
 75 473 75 473 101 473 c 128,-1,29
 127 473 127 473 127 440 c 2,30,-1
 127 20 l 2,31,32
 127 1 127 1 120 -4 c 0,33,34
 98 -21 98 -21 80 -54 c 128,-1,35
 62 -87 62 -87 62 -101 c 0,10,11
EndSplineSet
EndChar

StartChar: Idotaccent
Encoding: 304 304 237
Width: 220
GlyphClass: 2
Flags: W
LayerCount: 2
Fore
SplineSet
136 25 m 2,0,1
 136 -7 136 -7 109 -7 c 0,2,3
 84 -7 84 -7 84 25 c 2,4,-1
 84 610 l 2,5,6
 84 643 84 643 110 643 c 128,-1,7
 136 643 136 643 136 610 c 2,8,-1
 136 25 l 2,0,1
105 783 m 0,9,10
 121 783 121 783 138.5 771 c 128,-1,11
 156 759 156 759 156 742 c 128,-1,12
 156 725 156 725 138.5 713 c 128,-1,13
 121 701 121 701 105 701 c 0,14,15
 88 701 88 701 71 713 c 128,-1,16
 54 725 54 725 54 742 c 128,-1,17
 54 759 54 759 71 771 c 128,-1,18
 88 783 88 783 105 783 c 0,9,10
EndSplineSet
EndChar

StartChar: dotlessi
Encoding: 305 305 238
Width: 200
GlyphClass: 2
Flags: W
LayerCount: 2
Fore
SplineSet
99 -12 m 0,0,1
 74 -12 74 -12 74 20 c 2,2,-1
 74 440 l 2,3,4
 74 473 74 473 100 473 c 128,-1,5
 126 473 126 473 126 440 c 2,6,-1
 126 20 l 2,7,8
 126 -12 126 -12 99 -12 c 0,0,1
EndSplineSet
EndChar

StartChar: Jcircumflex
Encoding: 308 308 239
Width: 550
GlyphClass: 2
Flags: W
LayerCount: 2
Fore
SplineSet
251 44 m 0,0,1
 346 44 346 44 381.5 66.5 c 128,-1,2
 417 89 417 89 417 170 c 2,3,-1
 417 611 l 2,4,5
 417 643 417 643 443 643 c 128,-1,6
 469 643 469 643 469 610 c 2,7,-1
 469 169 l 2,8,9
 469 113 469 113 454.5 77 c 128,-1,10
 440 41 440 41 409.5 23 c 128,-1,11
 379 5 379 5 342.5 -1.5 c 128,-1,12
 306 -8 306 -8 251 -8 c 128,-1,13
 196 -8 196 -8 159.5 -1.5 c 128,-1,14
 123 5 123 5 92 23.5 c 128,-1,15
 61 42 61 42 46.5 78.5 c 128,-1,16
 32 115 32 115 32 172 c 0,17,18
 32 205 32 205 60 205 c 0,19,20
 85 205 85 205 85 172 c 0,21,22
 85 89 85 89 120 66.5 c 128,-1,23
 155 44 155 44 251 44 c 0,0,1
293 688 m 2,24,-1
 398 820 l 1,25,-1
 457 820 l 1,26,-1
 564 688 l 2,27,28
 570 680 570 680 570 670 c 0,29,30
 570 647 570 647 547 647 c 0,31,32
 542 647 542 647 537.5 649 c 128,-1,33
 533 651 533 651 531.5 652.5 c 128,-1,34
 530 654 530 654 525 660 c 128,-1,35
 520 666 520 666 519 667 c 2,36,-1
 428 763 l 1,37,-1
 338 667 l 2,38,39
 336 665 336 665 333 661 c 128,-1,40
 330 657 330 657 328 655.5 c 128,-1,41
 326 654 326 654 323.5 651.5 c 128,-1,42
 321 649 321 649 317.5 648 c 128,-1,43
 314 647 314 647 310 647 c 0,44,45
 287 647 287 647 287 670 c 0,46,47
 287 680 287 680 293 688 c 2,24,-1
EndSplineSet
EndChar

StartChar: jcircumflex
Encoding: 309 309 240
Width: 202
GlyphClass: 2
Flags: W
LayerCount: 2
Fore
SplineSet
127 0 m 2,0,1
 127 -56 127 -56 112.5 -91.5 c 128,-1,2
 98 -127 98 -127 67.5 -145 c 128,-1,3
 37 -163 37 -163 2 -169 c 128,-1,4
 -33 -175 -33 -175 -86 -175 c 0,5,6
 -122 -175 -122 -175 -122 -148 c 0,7,8
 -122 -123 -122 -123 -86 -123 c 0,9,10
 6 -123 6 -123 40.5 -101 c 128,-1,11
 75 -79 75 -79 75 0 c 2,12,-1
 75 432 l 2,13,14
 75 468 75 468 102 468 c 0,15,16
 127 468 127 468 127 432 c 2,17,-1
 127 0 l 2,0,1
-37 565 m 2,18,-1
 68 697 l 1,19,-1
 127 697 l 1,20,-1
 234 565 l 2,21,22
 240 557 240 557 240 547 c 0,23,24
 240 524 240 524 217 524 c 0,25,26
 212 524 212 524 207.5 526 c 128,-1,27
 203 528 203 528 201.5 529.5 c 128,-1,28
 200 531 200 531 195 537 c 128,-1,29
 190 543 190 543 189 544 c 2,30,-1
 98 640 l 1,31,-1
 8 544 l 2,32,33
 6 542 6 542 3 538 c 128,-1,34
 0 534 0 534 -2 532.5 c 128,-1,35
 -4 531 -4 531 -6.5 528.5 c 128,-1,36
 -9 526 -9 526 -12.5 525 c 128,-1,37
 -16 524 -16 524 -20 524 c 0,38,39
 -43 524 -43 524 -43 547 c 0,40,41
 -43 557 -43 557 -37 565 c 2,18,-1
EndSplineSet
EndChar

StartChar: Kcommaaccent
Encoding: 310 310 241
Width: 518
GlyphClass: 2
Flags: W
LayerCount: 2
Fore
SplineSet
345 -25 m 0,0,1
 345 -35 345 -35 340 -44 c 2,2,-1
 299 -127 l 1,3,4
 289 -151 289 -151 274 -151 c 0,5,6
 252 -151 252 -151 252 -126 c 0,7,8
 252 -122 252 -122 255 -110 c 2,9,-1
 279 -23 l 2,10,11
 286 0 286 0 304 0 c 0,12,13
 315 0 315 0 330 -6 c 128,-1,14
 345 -12 345 -12 345 -25 c 0,0,1
514 18 m 128,-1,16
 514 8 514 8 505 0.5 c 128,-1,17
 496 -7 496 -7 488 -7 c 0,18,19
 475 -7 475 -7 463 8 c 2,20,-1
 189 322 l 1,21,-1
 136 258 l 1,22,-1
 136 25 l 2,23,24
 136 -7 136 -7 109 -7 c 0,25,26
 84 -7 84 -7 84 25 c 2,27,-1
 84 610 l 2,28,29
 84 643 84 643 110 643 c 128,-1,30
 136 643 136 643 136 610 c 2,31,-1
 136 330 l 1,32,-1
 397 628 l 1,33,34
 408 643 408 643 422 643 c 0,35,36
 430 643 430 643 438.5 636 c 128,-1,37
 447 629 447 629 447 619 c 0,38,39
 447 608 447 608 437 595 c 1,40,-1
 224 356 l 1,41,-1
 503 41 l 2,42,15
 514 28 514 28 514 18 c 128,-1,16
EndSplineSet
EndChar

StartChar: kcommaaccent
Encoding: 311 311 242
Width: 454
GlyphClass: 2
Flags: W
LayerCount: 2
Fore
SplineSet
286 -25 m 0,0,1
 286 -35 286 -35 281 -44 c 2,2,-1
 240 -127 l 1,3,4
 230 -151 230 -151 215 -151 c 0,5,6
 193 -151 193 -151 193 -126 c 0,7,8
 193 -122 193 -122 196 -110 c 2,9,-1
 220 -23 l 2,10,11
 227 0 227 0 245 0 c 0,12,13
 256 0 256 0 271 -6 c 128,-1,14
 286 -12 286 -12 286 -25 c 0,0,1
442 19 m 0,15,16
 442 10 442 10 435 2 c 128,-1,17
 428 -6 428 -6 418 -6 c 0,18,19
 407 -6 407 -6 393 6 c 1,20,-1
 156 235 l 1,21,-1
 127 206 l 1,22,-1
 127 25 l 2,23,24
 127 -7 127 -7 100 -7 c 0,25,26
 75 -7 75 -7 75 24 c 2,27,-1
 75 610 l 2,28,29
 75 643 75 643 101 643 c 128,-1,30
 127 643 127 643 127 610 c 2,31,-1
 127 269 l 1,32,-1
 321 454 l 2,33,34
 334 466 334 466 345 466 c 0,35,36
 354 466 354 466 362 458.5 c 128,-1,37
 370 451 370 451 370 440 c 128,-1,38
 370 429 370 429 358 417 c 2,39,-1
 192 265 l 1,40,-1
 431 43 l 1,41,42
 442 30 442 30 442 19 c 0,15,16
EndSplineSet
EndChar

StartChar: kgreenlandic
Encoding: 312 312 243
Width: 459
GlyphClass: 2
Flags: W
LayerCount: 2
Fore
SplineSet
428 19 m 0,0,1
 428 10 428 10 421 1.5 c 128,-1,2
 414 -7 414 -7 404 -7 c 0,3,4
 392 -7 392 -7 381 2 c 2,5,-1
 126 207 l 1,6,-1
 126 24 l 2,7,8
 126 -7 126 -7 99 -7 c 0,9,10
 74 -7 74 -7 74 24 c 2,11,-1
 74 436 l 2,12,13
 74 468 74 468 100 468 c 128,-1,14
 126 468 126 468 126 436 c 2,15,-1
 126 257 l 1,16,-1
 380 461 l 2,17,18
 392 471 392 471 404 471 c 0,19,20
 414 471 414 471 421 462 c 128,-1,21
 428 453 428 453 428 445 c 0,22,23
 428 431 428 431 413 421 c 1,24,-1
 173 232 l 1,25,-1
 414 42 l 2,26,27
 428 32 428 32 428 19 c 0,0,1
EndSplineSet
EndChar

StartChar: Lacute
Encoding: 313 313 244
Width: 516
GlyphClass: 2
Flags: W
LayerCount: 2
Fore
SplineSet
108 0 m 2,0,1
 84 0 84 0 84 35 c 2,2,-1
 84 611 l 2,3,4
 84 643 84 643 110 643 c 128,-1,5
 136 643 136 643 136 611 c 2,6,-1
 136 52 l 1,7,-1
 459 52 l 2,8,9
 492 52 492 52 492 25 c 0,10,11
 492 0 492 0 459 0 c 2,12,-1
 108 0 l 2,0,1
199 770 m 1,13,-1
 129 701 l 2,14,15
 117 688 117 688 105 688 c 0,16,17
 95 688 95 688 87 695.5 c 128,-1,18
 79 703 79 703 79 712 c 0,19,20
 79 723 79 723 92 738 c 1,21,-1
 161 806 l 2,22,23
 173 819 173 819 186 819 c 0,24,25
 197 819 197 819 204 810.5 c 128,-1,26
 211 802 211 802 211 794 c 0,27,28
 211 784 211 784 199 770 c 1,13,-1
EndSplineSet
EndChar

StartChar: lacute
Encoding: 314 314 245
Width: 271
GlyphClass: 2
Flags: W
LayerCount: 2
Fore
SplineSet
197 0 m 2,0,-1
 190 0 l 2,1,2
 132 0 132 0 111 28.5 c 128,-1,3
 90 57 90 57 90 127 c 2,4,-1
 90 608 l 2,5,6
 90 643 90 643 116 643 c 128,-1,7
 142 643 142 643 142 608 c 2,8,-1
 142 110 l 2,9,10
 142 78 142 78 153.5 65 c 128,-1,11
 165 52 165 52 197 52 c 0,12,13
 232 52 232 52 232 25 c 0,14,15
 232 0 232 0 197 0 c 2,0,-1
205 781 m 1,16,-1
 135 712 l 2,17,18
 123 699 123 699 111 699 c 0,19,20
 101 699 101 699 93 706.5 c 128,-1,21
 85 714 85 714 85 723 c 0,22,23
 85 734 85 734 98 749 c 1,24,-1
 167 817 l 2,25,26
 179 830 179 830 192 830 c 0,27,28
 203 830 203 830 210 821.5 c 128,-1,29
 217 813 217 813 217 805 c 0,30,31
 217 795 217 795 205 781 c 1,16,-1
EndSplineSet
EndChar

StartChar: Lcommaaccent
Encoding: 315 315 246
Width: 516
GlyphClass: 2
Flags: W
LayerCount: 2
Fore
SplineSet
330 -79 m 0,0,1
 330 -89 330 -89 325 -98 c 2,2,-1
 284 -181 l 1,3,4
 274 -205 274 -205 259 -205 c 0,5,6
 237 -205 237 -205 237 -180 c 0,7,8
 237 -176 237 -176 240 -164 c 2,9,-1
 264 -77 l 2,10,11
 271 -54 271 -54 289 -54 c 0,12,13
 300 -54 300 -54 315 -60 c 128,-1,14
 330 -66 330 -66 330 -79 c 0,0,1
108 0 m 2,15,16
 84 0 84 0 84 35 c 2,17,-1
 84 611 l 2,18,19
 84 643 84 643 110 643 c 128,-1,20
 136 643 136 643 136 611 c 2,21,-1
 136 52 l 1,22,-1
 459 52 l 2,23,24
 492 52 492 52 492 25 c 0,25,26
 492 0 492 0 459 0 c 2,27,-1
 108 0 l 2,15,16
EndSplineSet
EndChar

StartChar: lcommaaccent
Encoding: 316 316 247
Width: 271
GlyphClass: 2
Flags: W
LayerCount: 2
Fore
SplineSet
186 -79 m 0,0,1
 186 -89 186 -89 181 -98 c 2,2,-1
 140 -181 l 1,3,4
 130 -205 130 -205 115 -205 c 0,5,6
 93 -205 93 -205 93 -180 c 0,7,8
 93 -176 93 -176 96 -164 c 2,9,-1
 120 -77 l 2,10,11
 127 -54 127 -54 145 -54 c 0,12,13
 156 -54 156 -54 171 -60 c 128,-1,14
 186 -66 186 -66 186 -79 c 0,0,1
197 0 m 2,15,-1
 190 0 l 2,16,17
 132 0 132 0 111 28.5 c 128,-1,18
 90 57 90 57 90 127 c 2,19,-1
 90 608 l 2,20,21
 90 643 90 643 116 643 c 128,-1,22
 142 643 142 643 142 608 c 2,23,-1
 142 110 l 2,24,25
 142 78 142 78 153.5 65 c 128,-1,26
 165 52 165 52 197 52 c 0,27,28
 232 52 232 52 232 25 c 0,29,30
 232 0 232 0 197 0 c 2,15,-1
EndSplineSet
EndChar

StartChar: Lcaron
Encoding: 317 317 248
Width: 516
GlyphClass: 2
Flags: W
LayerCount: 2
Fore
SplineSet
108 0 m 2,0,1
 84 0 84 0 84 35 c 2,2,-1
 84 611 l 2,3,4
 84 643 84 643 110 643 c 128,-1,5
 136 643 136 643 136 611 c 2,6,-1
 136 52 l 1,7,-1
 459 52 l 2,8,9
 492 52 492 52 492 25 c 0,10,11
 492 0 492 0 459 0 c 2,12,-1
 108 0 l 2,0,1
277 625 m 0,13,14
 277 615 277 615 272 606 c 2,15,-1
 231 523 l 1,16,17
 221 499 221 499 206 499 c 0,18,19
 184 499 184 499 184 524 c 0,20,21
 184 528 184 528 187 540 c 2,22,-1
 211 627 l 2,23,24
 218 650 218 650 236 650 c 0,25,26
 247 650 247 650 262 644 c 128,-1,27
 277 638 277 638 277 625 c 0,13,14
EndSplineSet
EndChar

StartChar: lcaron
Encoding: 318 318 249
Width: 271
GlyphClass: 2
Flags: W
LayerCount: 2
Fore
SplineSet
197 0 m 2,0,-1
 190 0 l 2,1,2
 132 0 132 0 111 28.5 c 128,-1,3
 90 57 90 57 90 127 c 2,4,-1
 90 608 l 2,5,6
 90 643 90 643 116 643 c 128,-1,7
 142 643 142 643 142 608 c 2,8,-1
 142 110 l 2,9,10
 142 78 142 78 153.5 65 c 128,-1,11
 165 52 165 52 197 52 c 0,12,13
 232 52 232 52 232 25 c 0,14,15
 232 0 232 0 197 0 c 2,0,-1
290 623 m 0,16,17
 290 613 290 613 285 604 c 2,18,-1
 244 521 l 1,19,20
 234 497 234 497 219 497 c 0,21,22
 197 497 197 497 197 522 c 0,23,24
 197 526 197 526 200 538 c 2,25,-1
 224 625 l 2,26,27
 231 648 231 648 249 648 c 0,28,29
 260 648 260 648 275 642 c 128,-1,30
 290 636 290 636 290 623 c 0,16,17
EndSplineSet
EndChar

StartChar: Lslash
Encoding: 321 321 250
Width: 525
GlyphClass: 2
Flags: W
LayerCount: 2
Fore
SplineSet
117 0 m 2,0,1
 93 0 93 0 93 35 c 2,2,-1
 93 307 l 1,3,-1
 40 281 l 2,4,5
 32 278 32 278 25 278 c 0,6,7
 11 278 11 278 5 287 c 128,-1,8
 -1 296 -1 296 -1 306 c 0,9,10
 -1 319 -1 319 21 330 c 2,11,-1
 93 366 l 1,12,-1
 93 611 l 2,13,14
 93 643 93 643 119 643 c 128,-1,15
 145 643 145 643 145 611 c 2,16,-1
 145 392 l 1,17,-1
 191 415 l 1,18,19
 206 418 206 418 208 418 c 0,20,21
 220 418 220 418 227.5 410.5 c 128,-1,22
 235 403 235 403 235 392 c 0,23,24
 235 378 235 378 210 365 c 2,25,-1
 145 333 l 1,26,-1
 145 52 l 1,27,-1
 468 52 l 2,28,29
 501 52 501 52 501 25 c 0,30,31
 501 0 501 0 468 0 c 2,32,-1
 117 0 l 2,0,1
EndSplineSet
EndChar

StartChar: lslash
Encoding: 322 322 251
Width: 317
GlyphClass: 2
Flags: W
LayerCount: 2
Fore
SplineSet
237 0 m 2,0,-1
 230 0 l 2,1,2
 172 0 172 0 151 28.5 c 128,-1,3
 130 57 130 57 130 127 c 2,4,-1
 130 309 l 1,5,-1
 74 281 l 2,6,7
 66 278 66 278 59 278 c 0,8,9
 45 278 45 278 39 287 c 128,-1,10
 33 296 33 296 33 306 c 0,11,12
 33 319 33 319 55 330 c 2,13,-1
 130 368 l 1,14,-1
 130 608 l 2,15,16
 130 643 130 643 156 643 c 128,-1,17
 182 643 182 643 182 608 c 2,18,-1
 182 394 l 1,19,-1
 225 415 l 1,20,21
 240 418 240 418 242 418 c 0,22,23
 254 418 254 418 261.5 410.5 c 128,-1,24
 269 403 269 403 269 392 c 0,25,26
 269 378 269 378 244 365 c 2,27,-1
 182 334 l 1,28,-1
 182 110 l 2,29,30
 182 78 182 78 193.5 65 c 128,-1,31
 205 52 205 52 237 52 c 0,32,33
 272 52 272 52 272 25 c 0,34,35
 272 0 272 0 237 0 c 2,0,-1
EndSplineSet
EndChar

StartChar: Nacute
Encoding: 323 323 252
Width: 632
GlyphClass: 2
Flags: W
LayerCount: 2
Fore
SplineSet
523 -7 m 0,0,1
 509 -7 509 -7 503 0 c 1,2,-1
 136 543 l 1,3,-1
 136 26 l 2,4,5
 136 -7 136 -7 110 -7 c 128,-1,6
 84 -7 84 -7 84 27 c 2,7,-1
 84 608 l 2,8,9
 84 643 84 643 108 643 c 0,10,11
 126 643 126 643 138 624 c 2,12,-1
 496 96 l 1,13,-1
 496 607 l 2,14,15
 496 643 496 643 521 643 c 0,16,17
 548 643 548 643 548 608 c 2,18,-1
 548 27 l 2,19,20
 548 -7 548 -7 523 -7 c 0,0,1
397 761 m 2,21,-1
 301 646 l 2,22,23
 288 631 288 631 276 631 c 0,24,25
 268 631 268 631 259.5 638.5 c 128,-1,26
 251 646 251 646 251 656 c 0,27,28
 251 668 251 668 260 679 c 2,29,-1
 356 794 l 1,30,31
 370 809 370 809 381 809 c 0,32,33
 390 809 390 809 398 801.5 c 128,-1,34
 406 794 406 794 406 783 c 128,-1,35
 406 772 406 772 397 761 c 2,21,-1
EndSplineSet
EndChar

StartChar: nacute
Encoding: 324 324 253
Width: 618
GlyphClass: 2
Flags: W
LayerCount: 2
Fore
SplineSet
297 409 m 2,0,1
 212 409 212 409 169 363.5 c 128,-1,2
 126 318 126 318 126 231 c 2,3,-1
 126 27 l 2,4,5
 126 -7 126 -7 100 -7 c 128,-1,6
 74 -7 74 -7 74 27 c 2,7,-1
 74 433 l 2,8,9
 74 468 74 468 98 468 c 0,10,11
 126 468 126 468 126 432 c 2,12,-1
 126 398 l 1,13,14
 185 461 185 461 297 461 c 2,15,-1
 326 461 l 2,16,17
 441 461 441 461 494.5 425.5 c 128,-1,18
 548 390 548 390 548 285 c 2,19,-1
 548 27 l 2,20,21
 548 -7 548 -7 523 -7 c 0,22,23
 496 -7 496 -7 496 27 c 2,24,-1
 496 284 l 2,25,26
 496 327 496 327 487.5 352 c 128,-1,27
 479 377 479 377 455.5 389.5 c 128,-1,28
 432 402 432 402 404.5 405.5 c 128,-1,29
 377 409 377 409 326 409 c 2,30,-1
 297 409 l 2,0,1
396 635 m 2,31,-1
 300 520 l 1,32,33
 286 505 286 505 275 505 c 0,34,35
 267 505 267 505 258.5 512.5 c 128,-1,36
 250 520 250 520 250 530 c 0,37,38
 250 542 250 542 259 553 c 2,39,-1
 355 668 l 2,40,41
 368 683 368 683 380 683 c 0,42,43
 389 683 389 683 397 675.5 c 128,-1,44
 405 668 405 668 405 657 c 128,-1,45
 405 646 405 646 396 635 c 2,31,-1
EndSplineSet
EndChar

